<mxfile host="app.diagrams.net" modified="2023-04-08T03:14:13.443Z" agent="Mozilla/5.0 (Windows NT 10.0; Win64; x64) AppleWebKit/537.36 (KHTML, like Gecko) Chrome/111.0.0.0 Safari/537.36" etag="t6mJnutFeTtfjhbv6ivg" version="21.1.5" type="device">
  <diagram name="Page-1" id="AQa7M7LmtuOtsmnBEkXg">
    <mxGraphModel dx="794" dy="470" grid="1" gridSize="10" guides="1" tooltips="1" connect="1" arrows="1" fold="1" page="1" pageScale="1" pageWidth="850" pageHeight="1100" math="0" shadow="0">
      <root>
        <mxCell id="0" />
        <mxCell id="1" parent="0" />
        <mxCell id="Mz_XwUTkdrpt21qilwWO-5" value="Table" style="shape=table;startSize=30;container=1;collapsible=1;childLayout=tableLayout;fixedRows=1;rowLines=0;fontStyle=1;align=center;resizeLast=1;html=1;strokeWidth=0;columnLines=0;rounded=0;shadow=0;swimlaneLine=1;" parent="1" vertex="1">
          <mxGeometry x="50" y="70" width="200" height="150" as="geometry">
            <mxRectangle x="60" y="610" width="70" height="30" as="alternateBounds" />
          </mxGeometry>
        </mxCell>
        <mxCell id="Mz_XwUTkdrpt21qilwWO-6" value="" style="shape=tableRow;horizontal=0;startSize=0;swimlaneHead=0;swimlaneBody=0;fillColor=none;collapsible=0;dropTarget=0;points=[[0,0.5],[1,0.5]];portConstraint=eastwest;top=0;left=0;right=0;bottom=0;swimlaneLine=1;container=1;rounded=0;shadow=0;strokeWidth=1;" parent="Mz_XwUTkdrpt21qilwWO-5" vertex="1">
          <mxGeometry y="30" width="200" height="30" as="geometry" />
        </mxCell>
        <mxCell id="Mz_XwUTkdrpt21qilwWO-7" value="&lt;span style=&quot;&quot;&gt;Key&lt;/span&gt;" style="shape=partialRectangle;connectable=0;top=0;left=0;bottom=0;right=0;fontStyle=0;overflow=hidden;whiteSpace=wrap;html=1;align=left;strokeWidth=1;spacingRight=0;spacingLeft=8;" parent="Mz_XwUTkdrpt21qilwWO-6" vertex="1">
          <mxGeometry width="120" height="30" as="geometry">
            <mxRectangle width="120" height="30" as="alternateBounds" />
          </mxGeometry>
        </mxCell>
        <mxCell id="Mz_XwUTkdrpt21qilwWO-8" value="Type" style="shape=partialRectangle;connectable=0;top=0;left=0;bottom=0;right=0;align=right;spacingLeft=0;fontStyle=0;overflow=hidden;whiteSpace=wrap;html=1;strokeWidth=1;spacingRight=8;" parent="Mz_XwUTkdrpt21qilwWO-6" vertex="1">
          <mxGeometry x="120" width="80" height="30" as="geometry">
            <mxRectangle width="80" height="30" as="alternateBounds" />
          </mxGeometry>
        </mxCell>
        <mxCell id="Mz_XwUTkdrpt21qilwWO-9" value="" style="shape=tableRow;horizontal=0;startSize=0;swimlaneHead=0;swimlaneBody=0;fillColor=none;collapsible=0;dropTarget=0;points=[[0,0.5],[1,0.5]];portConstraint=eastwest;top=0;left=0;right=0;bottom=0;" parent="Mz_XwUTkdrpt21qilwWO-5" vertex="1">
          <mxGeometry y="60" width="200" height="30" as="geometry" />
        </mxCell>
        <mxCell id="Mz_XwUTkdrpt21qilwWO-10" value="Key" style="shape=partialRectangle;connectable=0;top=0;left=0;bottom=0;right=0;editable=1;overflow=hidden;whiteSpace=wrap;html=1;align=left;strokeWidth=1;spacingRight=0;spacingLeft=8;" parent="Mz_XwUTkdrpt21qilwWO-9" vertex="1">
          <mxGeometry width="120" height="30" as="geometry">
            <mxRectangle width="120" height="30" as="alternateBounds" />
          </mxGeometry>
        </mxCell>
        <mxCell id="Mz_XwUTkdrpt21qilwWO-11" value="Type" style="shape=partialRectangle;connectable=0;top=0;left=0;bottom=0;right=0;align=right;spacingLeft=0;overflow=hidden;whiteSpace=wrap;html=1;strokeWidth=1;spacingRight=8;" parent="Mz_XwUTkdrpt21qilwWO-9" vertex="1">
          <mxGeometry x="120" width="80" height="30" as="geometry">
            <mxRectangle width="80" height="30" as="alternateBounds" />
          </mxGeometry>
        </mxCell>
        <mxCell id="Mz_XwUTkdrpt21qilwWO-12" value="" style="shape=tableRow;horizontal=0;startSize=0;swimlaneHead=0;swimlaneBody=0;fillColor=none;collapsible=0;dropTarget=0;points=[[0,0.5],[1,0.5]];portConstraint=eastwest;top=0;left=0;right=0;bottom=0;" parent="Mz_XwUTkdrpt21qilwWO-5" vertex="1">
          <mxGeometry y="90" width="200" height="30" as="geometry" />
        </mxCell>
        <mxCell id="Mz_XwUTkdrpt21qilwWO-13" value="Key" style="shape=partialRectangle;connectable=0;top=0;left=0;bottom=0;right=0;editable=1;overflow=hidden;whiteSpace=wrap;html=1;align=left;strokeWidth=1;spacingRight=0;spacingLeft=8;" parent="Mz_XwUTkdrpt21qilwWO-12" vertex="1">
          <mxGeometry width="120" height="30" as="geometry">
            <mxRectangle width="120" height="30" as="alternateBounds" />
          </mxGeometry>
        </mxCell>
        <mxCell id="Mz_XwUTkdrpt21qilwWO-14" value="Type" style="shape=partialRectangle;connectable=0;top=0;left=0;bottom=0;right=0;align=right;spacingLeft=0;overflow=hidden;whiteSpace=wrap;html=1;strokeWidth=1;spacingRight=8;" parent="Mz_XwUTkdrpt21qilwWO-12" vertex="1">
          <mxGeometry x="120" width="80" height="30" as="geometry">
            <mxRectangle width="80" height="30" as="alternateBounds" />
          </mxGeometry>
        </mxCell>
        <mxCell id="Mz_XwUTkdrpt21qilwWO-15" value="" style="shape=tableRow;horizontal=0;startSize=0;swimlaneHead=0;swimlaneBody=0;fillColor=none;collapsible=0;dropTarget=0;points=[[0,0.5],[1,0.5]];portConstraint=eastwest;top=0;left=0;right=0;bottom=0;rounded=0;" parent="Mz_XwUTkdrpt21qilwWO-5" vertex="1">
          <mxGeometry y="120" width="200" height="30" as="geometry" />
        </mxCell>
        <mxCell id="Mz_XwUTkdrpt21qilwWO-16" value="Key" style="shape=partialRectangle;connectable=0;top=0;left=0;bottom=0;right=0;editable=1;overflow=hidden;whiteSpace=wrap;html=1;align=left;strokeWidth=1;spacingRight=0;spacingLeft=8;" parent="Mz_XwUTkdrpt21qilwWO-15" vertex="1">
          <mxGeometry width="120" height="30" as="geometry">
            <mxRectangle width="120" height="30" as="alternateBounds" />
          </mxGeometry>
        </mxCell>
        <mxCell id="Mz_XwUTkdrpt21qilwWO-17" value="Type" style="shape=partialRectangle;connectable=0;top=0;left=0;bottom=0;right=0;align=right;spacingLeft=0;overflow=hidden;whiteSpace=wrap;html=1;strokeWidth=1;spacingRight=8;" parent="Mz_XwUTkdrpt21qilwWO-15" vertex="1">
          <mxGeometry x="120" width="80" height="30" as="geometry">
            <mxRectangle width="80" height="30" as="alternateBounds" />
          </mxGeometry>
        </mxCell>
        <mxCell id="Mz_XwUTkdrpt21qilwWO-62" value="users" style="shape=table;startSize=30;container=1;collapsible=1;childLayout=tableLayout;fixedRows=1;rowLines=0;fontStyle=1;align=center;resizeLast=1;html=1;strokeWidth=1;columnLines=0;rounded=0;shadow=0;swimlaneLine=1;fillColor=#dae8fc;strokeColor=#6c8ebf;" parent="1" vertex="1">
          <mxGeometry x="40" y="990" width="200" height="330" as="geometry">
            <mxRectangle x="60" y="610" width="70" height="30" as="alternateBounds" />
          </mxGeometry>
        </mxCell>
        <mxCell id="Mz_XwUTkdrpt21qilwWO-63" value="" style="shape=tableRow;horizontal=0;startSize=0;swimlaneHead=0;swimlaneBody=0;fillColor=none;collapsible=0;dropTarget=0;points=[[0,0.5],[1,0.5]];portConstraint=eastwest;top=0;left=0;right=0;bottom=0;swimlaneLine=1;container=1;rounded=0;shadow=0;strokeWidth=1;" parent="Mz_XwUTkdrpt21qilwWO-62" vertex="1">
          <mxGeometry y="30" width="200" height="30" as="geometry" />
        </mxCell>
        <mxCell id="Mz_XwUTkdrpt21qilwWO-64" value="&lt;span style=&quot;&quot;&gt;id&lt;/span&gt;" style="shape=partialRectangle;connectable=0;top=0;left=0;bottom=0;right=0;fontStyle=4;overflow=hidden;whiteSpace=wrap;html=1;align=left;strokeWidth=1;spacingRight=0;spacingLeft=8;" parent="Mz_XwUTkdrpt21qilwWO-63" vertex="1">
          <mxGeometry width="120" height="30" as="geometry">
            <mxRectangle width="120" height="30" as="alternateBounds" />
          </mxGeometry>
        </mxCell>
        <mxCell id="Mz_XwUTkdrpt21qilwWO-65" value="reference" style="shape=partialRectangle;connectable=0;top=0;left=0;bottom=0;right=0;align=right;spacingLeft=0;fontStyle=4;overflow=hidden;whiteSpace=wrap;html=1;strokeWidth=1;spacingRight=8;" parent="Mz_XwUTkdrpt21qilwWO-63" vertex="1">
          <mxGeometry x="120" width="80" height="30" as="geometry">
            <mxRectangle width="80" height="30" as="alternateBounds" />
          </mxGeometry>
        </mxCell>
        <mxCell id="Mz_XwUTkdrpt21qilwWO-66" value="" style="shape=tableRow;horizontal=0;startSize=0;swimlaneHead=0;swimlaneBody=0;fillColor=none;collapsible=0;dropTarget=0;points=[[0,0.5],[1,0.5]];portConstraint=eastwest;top=0;left=0;right=0;bottom=0;" parent="Mz_XwUTkdrpt21qilwWO-62" vertex="1">
          <mxGeometry y="60" width="200" height="30" as="geometry" />
        </mxCell>
        <mxCell id="Mz_XwUTkdrpt21qilwWO-67" value="email" style="shape=partialRectangle;connectable=0;top=0;left=0;bottom=0;right=0;editable=1;overflow=hidden;whiteSpace=wrap;html=1;align=left;strokeWidth=1;spacingRight=0;spacingLeft=8;" parent="Mz_XwUTkdrpt21qilwWO-66" vertex="1">
          <mxGeometry width="120" height="30" as="geometry">
            <mxRectangle width="120" height="30" as="alternateBounds" />
          </mxGeometry>
        </mxCell>
        <mxCell id="Mz_XwUTkdrpt21qilwWO-68" value="string" style="shape=partialRectangle;connectable=0;top=0;left=0;bottom=0;right=0;align=right;spacingLeft=0;overflow=hidden;whiteSpace=wrap;html=1;strokeWidth=1;spacingRight=8;" parent="Mz_XwUTkdrpt21qilwWO-66" vertex="1">
          <mxGeometry x="120" width="80" height="30" as="geometry">
            <mxRectangle width="80" height="30" as="alternateBounds" />
          </mxGeometry>
        </mxCell>
        <mxCell id="Mz_XwUTkdrpt21qilwWO-69" value="" style="shape=tableRow;horizontal=0;startSize=0;swimlaneHead=0;swimlaneBody=0;fillColor=none;collapsible=0;dropTarget=0;points=[[0,0.5],[1,0.5]];portConstraint=eastwest;top=0;left=0;right=0;bottom=0;" parent="Mz_XwUTkdrpt21qilwWO-62" vertex="1">
          <mxGeometry y="90" width="200" height="30" as="geometry" />
        </mxCell>
        <mxCell id="Mz_XwUTkdrpt21qilwWO-70" value="verified" style="shape=partialRectangle;connectable=0;top=0;left=0;bottom=0;right=0;editable=1;overflow=hidden;whiteSpace=wrap;html=1;align=left;strokeWidth=1;spacingRight=0;spacingLeft=8;" parent="Mz_XwUTkdrpt21qilwWO-69" vertex="1">
          <mxGeometry width="120" height="30" as="geometry">
            <mxRectangle width="120" height="30" as="alternateBounds" />
          </mxGeometry>
        </mxCell>
        <mxCell id="Mz_XwUTkdrpt21qilwWO-71" value="bool" style="shape=partialRectangle;connectable=0;top=0;left=0;bottom=0;right=0;align=right;spacingLeft=0;overflow=hidden;whiteSpace=wrap;html=1;strokeWidth=1;spacingRight=8;" parent="Mz_XwUTkdrpt21qilwWO-69" vertex="1">
          <mxGeometry x="120" width="80" height="30" as="geometry">
            <mxRectangle width="80" height="30" as="alternateBounds" />
          </mxGeometry>
        </mxCell>
        <mxCell id="Mz_XwUTkdrpt21qilwWO-72" value="" style="shape=tableRow;horizontal=0;startSize=0;swimlaneHead=0;swimlaneBody=0;fillColor=none;collapsible=0;dropTarget=0;points=[[0,0.5],[1,0.5]];portConstraint=eastwest;top=0;left=0;right=0;bottom=0;rounded=0;" parent="Mz_XwUTkdrpt21qilwWO-62" vertex="1">
          <mxGeometry y="120" width="200" height="30" as="geometry" />
        </mxCell>
        <mxCell id="Mz_XwUTkdrpt21qilwWO-73" value="emailVisibility" style="shape=partialRectangle;connectable=0;top=0;left=0;bottom=0;right=0;editable=1;overflow=hidden;whiteSpace=wrap;html=1;align=left;strokeWidth=1;spacingRight=0;spacingLeft=8;" parent="Mz_XwUTkdrpt21qilwWO-72" vertex="1">
          <mxGeometry width="120" height="30" as="geometry">
            <mxRectangle width="120" height="30" as="alternateBounds" />
          </mxGeometry>
        </mxCell>
        <mxCell id="Mz_XwUTkdrpt21qilwWO-74" value="bool" style="shape=partialRectangle;connectable=0;top=0;left=0;bottom=0;right=0;align=right;spacingLeft=0;overflow=hidden;whiteSpace=wrap;html=1;strokeWidth=1;spacingRight=8;" parent="Mz_XwUTkdrpt21qilwWO-72" vertex="1">
          <mxGeometry x="120" width="80" height="30" as="geometry">
            <mxRectangle width="80" height="30" as="alternateBounds" />
          </mxGeometry>
        </mxCell>
        <mxCell id="Mz_XwUTkdrpt21qilwWO-75" value="" style="shape=tableRow;horizontal=0;startSize=0;swimlaneHead=0;swimlaneBody=0;fillColor=none;collapsible=0;dropTarget=0;points=[[0,0.5],[1,0.5]];portConstraint=eastwest;top=0;left=0;right=0;bottom=0;rounded=0;" parent="Mz_XwUTkdrpt21qilwWO-62" vertex="1">
          <mxGeometry y="150" width="200" height="30" as="geometry" />
        </mxCell>
        <mxCell id="Mz_XwUTkdrpt21qilwWO-76" value="username" style="shape=partialRectangle;connectable=0;top=0;left=0;bottom=0;right=0;editable=1;overflow=hidden;whiteSpace=wrap;html=1;align=left;strokeWidth=1;spacingRight=0;spacingLeft=8;" parent="Mz_XwUTkdrpt21qilwWO-75" vertex="1">
          <mxGeometry width="120" height="30" as="geometry">
            <mxRectangle width="120" height="30" as="alternateBounds" />
          </mxGeometry>
        </mxCell>
        <mxCell id="Mz_XwUTkdrpt21qilwWO-77" value="string" style="shape=partialRectangle;connectable=0;top=0;left=0;bottom=0;right=0;align=right;spacingLeft=0;overflow=hidden;whiteSpace=wrap;html=1;strokeWidth=1;spacingRight=8;" parent="Mz_XwUTkdrpt21qilwWO-75" vertex="1">
          <mxGeometry x="120" width="80" height="30" as="geometry">
            <mxRectangle width="80" height="30" as="alternateBounds" />
          </mxGeometry>
        </mxCell>
        <mxCell id="Mz_XwUTkdrpt21qilwWO-78" value="" style="shape=tableRow;horizontal=0;startSize=0;swimlaneHead=0;swimlaneBody=0;fillColor=none;collapsible=0;dropTarget=0;points=[[0,0.5],[1,0.5]];portConstraint=eastwest;top=0;left=0;right=0;bottom=0;rounded=0;" parent="Mz_XwUTkdrpt21qilwWO-62" vertex="1">
          <mxGeometry y="180" width="200" height="30" as="geometry" />
        </mxCell>
        <mxCell id="Mz_XwUTkdrpt21qilwWO-79" value="displayName" style="shape=partialRectangle;connectable=0;top=0;left=0;bottom=0;right=0;editable=1;overflow=hidden;whiteSpace=wrap;html=1;align=left;strokeWidth=1;spacingRight=0;spacingLeft=8;" parent="Mz_XwUTkdrpt21qilwWO-78" vertex="1">
          <mxGeometry width="120" height="30" as="geometry">
            <mxRectangle width="120" height="30" as="alternateBounds" />
          </mxGeometry>
        </mxCell>
        <mxCell id="Mz_XwUTkdrpt21qilwWO-80" value="string" style="shape=partialRectangle;connectable=0;top=0;left=0;bottom=0;right=0;align=right;spacingLeft=0;overflow=hidden;whiteSpace=wrap;html=1;strokeWidth=1;spacingRight=8;" parent="Mz_XwUTkdrpt21qilwWO-78" vertex="1">
          <mxGeometry x="120" width="80" height="30" as="geometry">
            <mxRectangle width="80" height="30" as="alternateBounds" />
          </mxGeometry>
        </mxCell>
        <mxCell id="Mz_XwUTkdrpt21qilwWO-81" value="" style="shape=tableRow;horizontal=0;startSize=0;swimlaneHead=0;swimlaneBody=0;fillColor=none;collapsible=0;dropTarget=0;points=[[0,0.5],[1,0.5]];portConstraint=eastwest;top=0;left=0;right=0;bottom=0;rounded=0;" parent="Mz_XwUTkdrpt21qilwWO-62" vertex="1">
          <mxGeometry y="210" width="200" height="30" as="geometry" />
        </mxCell>
        <mxCell id="Mz_XwUTkdrpt21qilwWO-82" value="password" style="shape=partialRectangle;connectable=0;top=0;left=0;bottom=0;right=0;editable=1;overflow=hidden;whiteSpace=wrap;html=1;align=left;strokeWidth=1;spacingRight=0;spacingLeft=8;" parent="Mz_XwUTkdrpt21qilwWO-81" vertex="1">
          <mxGeometry width="120" height="30" as="geometry">
            <mxRectangle width="120" height="30" as="alternateBounds" />
          </mxGeometry>
        </mxCell>
        <mxCell id="Mz_XwUTkdrpt21qilwWO-83" value="string" style="shape=partialRectangle;connectable=0;top=0;left=0;bottom=0;right=0;align=right;spacingLeft=0;overflow=hidden;whiteSpace=wrap;html=1;strokeWidth=1;spacingRight=8;" parent="Mz_XwUTkdrpt21qilwWO-81" vertex="1">
          <mxGeometry x="120" width="80" height="30" as="geometry">
            <mxRectangle width="80" height="30" as="alternateBounds" />
          </mxGeometry>
        </mxCell>
        <mxCell id="Mz_XwUTkdrpt21qilwWO-84" value="" style="shape=tableRow;horizontal=0;startSize=0;swimlaneHead=0;swimlaneBody=0;fillColor=none;collapsible=0;dropTarget=0;points=[[0,0.5],[1,0.5]];portConstraint=eastwest;top=0;left=0;right=0;bottom=0;rounded=0;" parent="Mz_XwUTkdrpt21qilwWO-62" vertex="1">
          <mxGeometry y="240" width="200" height="30" as="geometry" />
        </mxCell>
        <mxCell id="Mz_XwUTkdrpt21qilwWO-85" value="experienceLevel" style="shape=partialRectangle;connectable=0;top=0;left=0;bottom=0;right=0;editable=1;overflow=hidden;whiteSpace=wrap;html=1;align=left;strokeWidth=1;spacingRight=0;spacingLeft=8;" parent="Mz_XwUTkdrpt21qilwWO-84" vertex="1">
          <mxGeometry width="120" height="30" as="geometry">
            <mxRectangle width="120" height="30" as="alternateBounds" />
          </mxGeometry>
        </mxCell>
        <mxCell id="Mz_XwUTkdrpt21qilwWO-86" value="int" style="shape=partialRectangle;connectable=0;top=0;left=0;bottom=0;right=0;align=right;spacingLeft=0;overflow=hidden;whiteSpace=wrap;html=1;strokeWidth=1;spacingRight=8;" parent="Mz_XwUTkdrpt21qilwWO-84" vertex="1">
          <mxGeometry x="120" width="80" height="30" as="geometry">
            <mxRectangle width="80" height="30" as="alternateBounds" />
          </mxGeometry>
        </mxCell>
        <mxCell id="Mz_XwUTkdrpt21qilwWO-87" value="" style="shape=tableRow;horizontal=0;startSize=0;swimlaneHead=0;swimlaneBody=0;fillColor=none;collapsible=0;dropTarget=0;points=[[0,0.5],[1,0.5]];portConstraint=eastwest;top=0;left=0;right=0;bottom=0;rounded=0;" parent="Mz_XwUTkdrpt21qilwWO-62" vertex="1">
          <mxGeometry y="270" width="200" height="30" as="geometry" />
        </mxCell>
        <mxCell id="Mz_XwUTkdrpt21qilwWO-88" value="created" style="shape=partialRectangle;connectable=0;top=0;left=0;bottom=0;right=0;editable=1;overflow=hidden;whiteSpace=wrap;html=1;align=left;strokeWidth=1;spacingRight=0;spacingLeft=8;" parent="Mz_XwUTkdrpt21qilwWO-87" vertex="1">
          <mxGeometry width="120" height="30" as="geometry">
            <mxRectangle width="120" height="30" as="alternateBounds" />
          </mxGeometry>
        </mxCell>
        <mxCell id="Mz_XwUTkdrpt21qilwWO-89" value="datetime" style="shape=partialRectangle;connectable=0;top=0;left=0;bottom=0;right=0;align=right;spacingLeft=0;overflow=hidden;whiteSpace=wrap;html=1;strokeWidth=1;spacingRight=8;" parent="Mz_XwUTkdrpt21qilwWO-87" vertex="1">
          <mxGeometry x="120" width="80" height="30" as="geometry">
            <mxRectangle width="80" height="30" as="alternateBounds" />
          </mxGeometry>
        </mxCell>
        <mxCell id="Mz_XwUTkdrpt21qilwWO-90" value="" style="shape=tableRow;horizontal=0;startSize=0;swimlaneHead=0;swimlaneBody=0;fillColor=none;collapsible=0;dropTarget=0;points=[[0,0.5],[1,0.5]];portConstraint=eastwest;top=0;left=0;right=0;bottom=0;rounded=0;" parent="Mz_XwUTkdrpt21qilwWO-62" vertex="1">
          <mxGeometry y="300" width="200" height="30" as="geometry" />
        </mxCell>
        <mxCell id="Mz_XwUTkdrpt21qilwWO-91" value="updated" style="shape=partialRectangle;connectable=0;top=0;left=0;bottom=0;right=0;editable=1;overflow=hidden;whiteSpace=wrap;html=1;align=left;strokeWidth=1;spacingRight=0;spacingLeft=8;" parent="Mz_XwUTkdrpt21qilwWO-90" vertex="1">
          <mxGeometry width="120" height="30" as="geometry">
            <mxRectangle width="120" height="30" as="alternateBounds" />
          </mxGeometry>
        </mxCell>
        <mxCell id="Mz_XwUTkdrpt21qilwWO-92" value="datetime" style="shape=partialRectangle;connectable=0;top=0;left=0;bottom=0;right=0;align=right;spacingLeft=0;overflow=hidden;whiteSpace=wrap;html=1;strokeWidth=1;spacingRight=8;" parent="Mz_XwUTkdrpt21qilwWO-90" vertex="1">
          <mxGeometry x="120" width="80" height="30" as="geometry">
            <mxRectangle width="80" height="30" as="alternateBounds" />
          </mxGeometry>
        </mxCell>
        <mxCell id="Mz_XwUTkdrpt21qilwWO-93" value="sessions" style="shape=table;startSize=30;container=1;collapsible=1;childLayout=tableLayout;fixedRows=1;rowLines=0;fontStyle=1;align=center;resizeLast=1;html=1;strokeWidth=1;columnLines=0;rounded=0;shadow=0;swimlaneLine=1;fillColor=#f8cecc;strokeColor=#b85450;" parent="1" vertex="1">
          <mxGeometry x="600" y="1020" width="200" height="300" as="geometry">
            <mxRectangle x="60" y="610" width="70" height="30" as="alternateBounds" />
          </mxGeometry>
        </mxCell>
        <mxCell id="Mz_XwUTkdrpt21qilwWO-94" value="" style="shape=tableRow;horizontal=0;startSize=0;swimlaneHead=0;swimlaneBody=0;fillColor=none;collapsible=0;dropTarget=0;points=[[0,0.5],[1,0.5]];portConstraint=eastwest;top=0;left=0;right=0;bottom=0;swimlaneLine=1;container=1;rounded=0;shadow=0;strokeWidth=1;" parent="Mz_XwUTkdrpt21qilwWO-93" vertex="1">
          <mxGeometry y="30" width="200" height="30" as="geometry" />
        </mxCell>
        <mxCell id="Mz_XwUTkdrpt21qilwWO-95" value="&lt;span style=&quot;&quot;&gt;id&lt;/span&gt;" style="shape=partialRectangle;connectable=0;top=0;left=0;bottom=0;right=0;fontStyle=4;overflow=hidden;whiteSpace=wrap;html=1;align=left;strokeWidth=1;spacingRight=0;spacingLeft=8;" parent="Mz_XwUTkdrpt21qilwWO-94" vertex="1">
          <mxGeometry width="120" height="30" as="geometry">
            <mxRectangle width="120" height="30" as="alternateBounds" />
          </mxGeometry>
        </mxCell>
        <mxCell id="Mz_XwUTkdrpt21qilwWO-96" value="reference" style="shape=partialRectangle;connectable=0;top=0;left=0;bottom=0;right=0;align=right;spacingLeft=0;fontStyle=4;overflow=hidden;whiteSpace=wrap;html=1;strokeWidth=1;spacingRight=8;" parent="Mz_XwUTkdrpt21qilwWO-94" vertex="1">
          <mxGeometry x="120" width="80" height="30" as="geometry">
            <mxRectangle width="80" height="30" as="alternateBounds" />
          </mxGeometry>
        </mxCell>
        <mxCell id="Mz_XwUTkdrpt21qilwWO-97" value="" style="shape=tableRow;horizontal=0;startSize=0;swimlaneHead=0;swimlaneBody=0;fillColor=none;collapsible=0;dropTarget=0;points=[[0,0.5],[1,0.5]];portConstraint=eastwest;top=0;left=0;right=0;bottom=0;" parent="Mz_XwUTkdrpt21qilwWO-93" vertex="1">
          <mxGeometry y="60" width="200" height="30" as="geometry" />
        </mxCell>
        <mxCell id="Mz_XwUTkdrpt21qilwWO-98" value="code" style="shape=partialRectangle;connectable=0;top=0;left=0;bottom=0;right=0;editable=1;overflow=hidden;whiteSpace=wrap;html=1;align=left;strokeWidth=1;spacingRight=0;spacingLeft=8;" parent="Mz_XwUTkdrpt21qilwWO-97" vertex="1">
          <mxGeometry width="120" height="30" as="geometry">
            <mxRectangle width="120" height="30" as="alternateBounds" />
          </mxGeometry>
        </mxCell>
        <mxCell id="Mz_XwUTkdrpt21qilwWO-99" value="string" style="shape=partialRectangle;connectable=0;top=0;left=0;bottom=0;right=0;align=right;spacingLeft=0;overflow=hidden;whiteSpace=wrap;html=1;strokeWidth=1;spacingRight=8;" parent="Mz_XwUTkdrpt21qilwWO-97" vertex="1">
          <mxGeometry x="120" width="80" height="30" as="geometry">
            <mxRectangle width="80" height="30" as="alternateBounds" />
          </mxGeometry>
        </mxCell>
        <mxCell id="Mz_XwUTkdrpt21qilwWO-100" value="" style="shape=tableRow;horizontal=0;startSize=0;swimlaneHead=0;swimlaneBody=0;fillColor=none;collapsible=0;dropTarget=0;points=[[0,0.5],[1,0.5]];portConstraint=eastwest;top=0;left=0;right=0;bottom=0;" parent="Mz_XwUTkdrpt21qilwWO-93" vertex="1">
          <mxGeometry y="90" width="200" height="30" as="geometry" />
        </mxCell>
        <mxCell id="Mz_XwUTkdrpt21qilwWO-101" value="hostDevice" style="shape=partialRectangle;connectable=0;top=0;left=0;bottom=0;right=0;editable=1;overflow=hidden;whiteSpace=wrap;html=1;align=left;strokeWidth=1;spacingRight=0;spacingLeft=8;" parent="Mz_XwUTkdrpt21qilwWO-100" vertex="1">
          <mxGeometry width="120" height="30" as="geometry">
            <mxRectangle width="120" height="30" as="alternateBounds" />
          </mxGeometry>
        </mxCell>
        <mxCell id="Mz_XwUTkdrpt21qilwWO-102" value="string" style="shape=partialRectangle;connectable=0;top=0;left=0;bottom=0;right=0;align=right;spacingLeft=0;overflow=hidden;whiteSpace=wrap;html=1;strokeWidth=1;spacingRight=8;" parent="Mz_XwUTkdrpt21qilwWO-100" vertex="1">
          <mxGeometry x="120" width="80" height="30" as="geometry">
            <mxRectangle width="80" height="30" as="alternateBounds" />
          </mxGeometry>
        </mxCell>
        <mxCell id="Mz_XwUTkdrpt21qilwWO-103" value="" style="shape=tableRow;horizontal=0;startSize=0;swimlaneHead=0;swimlaneBody=0;fillColor=none;collapsible=0;dropTarget=0;points=[[0,0.5],[1,0.5]];portConstraint=eastwest;top=0;left=0;right=0;bottom=0;rounded=0;" parent="Mz_XwUTkdrpt21qilwWO-93" vertex="1">
          <mxGeometry y="120" width="200" height="30" as="geometry" />
        </mxCell>
        <mxCell id="Mz_XwUTkdrpt21qilwWO-104" value="surveyId" style="shape=partialRectangle;connectable=0;top=0;left=0;bottom=0;right=0;editable=1;overflow=hidden;whiteSpace=wrap;html=1;align=left;strokeWidth=1;spacingRight=0;spacingLeft=8;" parent="Mz_XwUTkdrpt21qilwWO-103" vertex="1">
          <mxGeometry width="120" height="30" as="geometry">
            <mxRectangle width="120" height="30" as="alternateBounds" />
          </mxGeometry>
        </mxCell>
        <mxCell id="Mz_XwUTkdrpt21qilwWO-105" value="reference" style="shape=partialRectangle;connectable=0;top=0;left=0;bottom=0;right=0;align=right;spacingLeft=0;overflow=hidden;whiteSpace=wrap;html=1;strokeWidth=1;spacingRight=8;" parent="Mz_XwUTkdrpt21qilwWO-103" vertex="1">
          <mxGeometry x="120" width="80" height="30" as="geometry">
            <mxRectangle width="80" height="30" as="alternateBounds" />
          </mxGeometry>
        </mxCell>
        <mxCell id="Mz_XwUTkdrpt21qilwWO-106" value="" style="shape=tableRow;horizontal=0;startSize=0;swimlaneHead=0;swimlaneBody=0;fillColor=none;collapsible=0;dropTarget=0;points=[[0,0.5],[1,0.5]];portConstraint=eastwest;top=0;left=0;right=0;bottom=0;rounded=0;" parent="Mz_XwUTkdrpt21qilwWO-93" vertex="1">
          <mxGeometry y="150" width="200" height="30" as="geometry" />
        </mxCell>
        <mxCell id="Mz_XwUTkdrpt21qilwWO-107" value="created" style="shape=partialRectangle;connectable=0;top=0;left=0;bottom=0;right=0;editable=1;overflow=hidden;whiteSpace=wrap;html=1;align=left;strokeWidth=1;spacingRight=0;spacingLeft=8;" parent="Mz_XwUTkdrpt21qilwWO-106" vertex="1">
          <mxGeometry width="120" height="30" as="geometry">
            <mxRectangle width="120" height="30" as="alternateBounds" />
          </mxGeometry>
        </mxCell>
        <mxCell id="Mz_XwUTkdrpt21qilwWO-108" value="datetime" style="shape=partialRectangle;connectable=0;top=0;left=0;bottom=0;right=0;align=right;spacingLeft=0;overflow=hidden;whiteSpace=wrap;html=1;strokeWidth=1;spacingRight=8;" parent="Mz_XwUTkdrpt21qilwWO-106" vertex="1">
          <mxGeometry x="120" width="80" height="30" as="geometry">
            <mxRectangle width="80" height="30" as="alternateBounds" />
          </mxGeometry>
        </mxCell>
        <mxCell id="Mz_XwUTkdrpt21qilwWO-441" value="" style="shape=tableRow;horizontal=0;startSize=0;swimlaneHead=0;swimlaneBody=0;fillColor=none;collapsible=0;dropTarget=0;points=[[0,0.5],[1,0.5]];portConstraint=eastwest;top=0;left=0;right=0;bottom=0;rounded=0;" parent="Mz_XwUTkdrpt21qilwWO-93" vertex="1">
          <mxGeometry y="180" width="200" height="30" as="geometry" />
        </mxCell>
        <mxCell id="Mz_XwUTkdrpt21qilwWO-442" value="locked" style="shape=partialRectangle;connectable=0;top=0;left=0;bottom=0;right=0;editable=1;overflow=hidden;whiteSpace=wrap;html=1;align=left;strokeWidth=1;spacingRight=0;spacingLeft=8;" parent="Mz_XwUTkdrpt21qilwWO-441" vertex="1">
          <mxGeometry width="120" height="30" as="geometry">
            <mxRectangle width="120" height="30" as="alternateBounds" />
          </mxGeometry>
        </mxCell>
        <mxCell id="Mz_XwUTkdrpt21qilwWO-443" value="datetime?" style="shape=partialRectangle;connectable=0;top=0;left=0;bottom=0;right=0;align=right;spacingLeft=0;overflow=hidden;whiteSpace=wrap;html=1;strokeWidth=1;spacingRight=8;" parent="Mz_XwUTkdrpt21qilwWO-441" vertex="1">
          <mxGeometry x="120" width="80" height="30" as="geometry">
            <mxRectangle width="80" height="30" as="alternateBounds" />
          </mxGeometry>
        </mxCell>
        <mxCell id="Mz_XwUTkdrpt21qilwWO-109" value="" style="shape=tableRow;horizontal=0;startSize=0;swimlaneHead=0;swimlaneBody=0;fillColor=none;collapsible=0;dropTarget=0;points=[[0,0.5],[1,0.5]];portConstraint=eastwest;top=0;left=0;right=0;bottom=0;rounded=0;" parent="Mz_XwUTkdrpt21qilwWO-93" vertex="1">
          <mxGeometry y="210" width="200" height="30" as="geometry" />
        </mxCell>
        <mxCell id="Mz_XwUTkdrpt21qilwWO-110" value="started" style="shape=partialRectangle;connectable=0;top=0;left=0;bottom=0;right=0;editable=1;overflow=hidden;whiteSpace=wrap;html=1;align=left;strokeWidth=1;spacingRight=0;spacingLeft=8;" parent="Mz_XwUTkdrpt21qilwWO-109" vertex="1">
          <mxGeometry width="120" height="30" as="geometry">
            <mxRectangle width="120" height="30" as="alternateBounds" />
          </mxGeometry>
        </mxCell>
        <mxCell id="Mz_XwUTkdrpt21qilwWO-111" value="datetime?" style="shape=partialRectangle;connectable=0;top=0;left=0;bottom=0;right=0;align=right;spacingLeft=0;overflow=hidden;whiteSpace=wrap;html=1;strokeWidth=1;spacingRight=8;" parent="Mz_XwUTkdrpt21qilwWO-109" vertex="1">
          <mxGeometry x="120" width="80" height="30" as="geometry">
            <mxRectangle width="80" height="30" as="alternateBounds" />
          </mxGeometry>
        </mxCell>
        <mxCell id="Mz_XwUTkdrpt21qilwWO-112" value="" style="shape=tableRow;horizontal=0;startSize=0;swimlaneHead=0;swimlaneBody=0;fillColor=none;collapsible=0;dropTarget=0;points=[[0,0.5],[1,0.5]];portConstraint=eastwest;top=0;left=0;right=0;bottom=0;rounded=0;" parent="Mz_XwUTkdrpt21qilwWO-93" vertex="1">
          <mxGeometry y="240" width="200" height="30" as="geometry" />
        </mxCell>
        <mxCell id="Mz_XwUTkdrpt21qilwWO-113" value="ended" style="shape=partialRectangle;connectable=0;top=0;left=0;bottom=0;right=0;editable=1;overflow=hidden;whiteSpace=wrap;html=1;align=left;strokeWidth=1;spacingRight=0;spacingLeft=8;" parent="Mz_XwUTkdrpt21qilwWO-112" vertex="1">
          <mxGeometry width="120" height="30" as="geometry">
            <mxRectangle width="120" height="30" as="alternateBounds" />
          </mxGeometry>
        </mxCell>
        <mxCell id="Mz_XwUTkdrpt21qilwWO-114" value="datetime?" style="shape=partialRectangle;connectable=0;top=0;left=0;bottom=0;right=0;align=right;spacingLeft=0;overflow=hidden;whiteSpace=wrap;html=1;strokeWidth=1;spacingRight=8;" parent="Mz_XwUTkdrpt21qilwWO-112" vertex="1">
          <mxGeometry x="120" width="80" height="30" as="geometry">
            <mxRectangle width="80" height="30" as="alternateBounds" />
          </mxGeometry>
        </mxCell>
        <mxCell id="Mz_XwUTkdrpt21qilwWO-115" value="" style="shape=tableRow;horizontal=0;startSize=0;swimlaneHead=0;swimlaneBody=0;fillColor=none;collapsible=0;dropTarget=0;points=[[0,0.5],[1,0.5]];portConstraint=eastwest;top=0;left=0;right=0;bottom=0;rounded=0;" parent="Mz_XwUTkdrpt21qilwWO-93" vertex="1">
          <mxGeometry y="270" width="200" height="30" as="geometry" />
        </mxCell>
        <mxCell id="Mz_XwUTkdrpt21qilwWO-116" value="updated" style="shape=partialRectangle;connectable=0;top=0;left=0;bottom=0;right=0;editable=1;overflow=hidden;whiteSpace=wrap;html=1;align=left;strokeWidth=1;spacingRight=0;spacingLeft=8;" parent="Mz_XwUTkdrpt21qilwWO-115" vertex="1">
          <mxGeometry width="120" height="30" as="geometry">
            <mxRectangle width="120" height="30" as="alternateBounds" />
          </mxGeometry>
        </mxCell>
        <mxCell id="Mz_XwUTkdrpt21qilwWO-117" value="datetime" style="shape=partialRectangle;connectable=0;top=0;left=0;bottom=0;right=0;align=right;spacingLeft=0;overflow=hidden;whiteSpace=wrap;html=1;strokeWidth=1;spacingRight=8;" parent="Mz_XwUTkdrpt21qilwWO-115" vertex="1">
          <mxGeometry x="120" width="80" height="30" as="geometry">
            <mxRectangle width="80" height="30" as="alternateBounds" />
          </mxGeometry>
        </mxCell>
        <mxCell id="Mz_XwUTkdrpt21qilwWO-118" value="role_types" style="shape=table;startSize=30;container=1;collapsible=1;childLayout=tableLayout;fixedRows=1;rowLines=0;fontStyle=1;align=center;resizeLast=1;html=1;strokeWidth=1;columnLines=0;rounded=0;shadow=0;swimlaneLine=1;fillColor=#e1d5e7;strokeColor=#9673a6;" parent="1" vertex="1">
          <mxGeometry x="40" y="1370" width="200" height="150" as="geometry">
            <mxRectangle x="60" y="610" width="70" height="30" as="alternateBounds" />
          </mxGeometry>
        </mxCell>
        <mxCell id="Mz_XwUTkdrpt21qilwWO-119" value="" style="shape=tableRow;horizontal=0;startSize=0;swimlaneHead=0;swimlaneBody=0;fillColor=none;collapsible=0;dropTarget=0;points=[[0,0.5],[1,0.5]];portConstraint=eastwest;top=0;left=0;right=0;bottom=0;swimlaneLine=1;container=1;rounded=0;shadow=0;strokeWidth=1;" parent="Mz_XwUTkdrpt21qilwWO-118" vertex="1">
          <mxGeometry y="30" width="200" height="30" as="geometry" />
        </mxCell>
        <mxCell id="Mz_XwUTkdrpt21qilwWO-120" value="&lt;span style=&quot;&quot;&gt;id&lt;/span&gt;" style="shape=partialRectangle;connectable=0;top=0;left=0;bottom=0;right=0;fontStyle=4;overflow=hidden;whiteSpace=wrap;html=1;align=left;strokeWidth=1;spacingRight=0;spacingLeft=8;" parent="Mz_XwUTkdrpt21qilwWO-119" vertex="1">
          <mxGeometry width="120" height="30" as="geometry">
            <mxRectangle width="120" height="30" as="alternateBounds" />
          </mxGeometry>
        </mxCell>
        <mxCell id="Mz_XwUTkdrpt21qilwWO-121" value="reference" style="shape=partialRectangle;connectable=0;top=0;left=0;bottom=0;right=0;align=right;spacingLeft=0;fontStyle=4;overflow=hidden;whiteSpace=wrap;html=1;strokeWidth=1;spacingRight=8;" parent="Mz_XwUTkdrpt21qilwWO-119" vertex="1">
          <mxGeometry x="120" width="80" height="30" as="geometry">
            <mxRectangle width="80" height="30" as="alternateBounds" />
          </mxGeometry>
        </mxCell>
        <mxCell id="Mz_XwUTkdrpt21qilwWO-122" value="" style="shape=tableRow;horizontal=0;startSize=0;swimlaneHead=0;swimlaneBody=0;fillColor=none;collapsible=0;dropTarget=0;points=[[0,0.5],[1,0.5]];portConstraint=eastwest;top=0;left=0;right=0;bottom=0;" parent="Mz_XwUTkdrpt21qilwWO-118" vertex="1">
          <mxGeometry y="60" width="200" height="30" as="geometry" />
        </mxCell>
        <mxCell id="Mz_XwUTkdrpt21qilwWO-123" value="name" style="shape=partialRectangle;connectable=0;top=0;left=0;bottom=0;right=0;editable=1;overflow=hidden;whiteSpace=wrap;html=1;align=left;strokeWidth=1;spacingRight=0;spacingLeft=8;" parent="Mz_XwUTkdrpt21qilwWO-122" vertex="1">
          <mxGeometry width="120" height="30" as="geometry">
            <mxRectangle width="120" height="30" as="alternateBounds" />
          </mxGeometry>
        </mxCell>
        <mxCell id="Mz_XwUTkdrpt21qilwWO-124" value="string" style="shape=partialRectangle;connectable=0;top=0;left=0;bottom=0;right=0;align=right;spacingLeft=0;overflow=hidden;whiteSpace=wrap;html=1;strokeWidth=1;spacingRight=8;" parent="Mz_XwUTkdrpt21qilwWO-122" vertex="1">
          <mxGeometry x="120" width="80" height="30" as="geometry">
            <mxRectangle width="80" height="30" as="alternateBounds" />
          </mxGeometry>
        </mxCell>
        <mxCell id="Mz_XwUTkdrpt21qilwWO-125" value="" style="shape=tableRow;horizontal=0;startSize=0;swimlaneHead=0;swimlaneBody=0;fillColor=none;collapsible=0;dropTarget=0;points=[[0,0.5],[1,0.5]];portConstraint=eastwest;top=0;left=0;right=0;bottom=0;" parent="Mz_XwUTkdrpt21qilwWO-118" vertex="1">
          <mxGeometry y="90" width="200" height="30" as="geometry" />
        </mxCell>
        <mxCell id="Mz_XwUTkdrpt21qilwWO-126" value="created" style="shape=partialRectangle;connectable=0;top=0;left=0;bottom=0;right=0;editable=1;overflow=hidden;whiteSpace=wrap;html=1;align=left;strokeWidth=1;spacingRight=0;spacingLeft=8;" parent="Mz_XwUTkdrpt21qilwWO-125" vertex="1">
          <mxGeometry width="120" height="30" as="geometry">
            <mxRectangle width="120" height="30" as="alternateBounds" />
          </mxGeometry>
        </mxCell>
        <mxCell id="Mz_XwUTkdrpt21qilwWO-127" value="datetime" style="shape=partialRectangle;connectable=0;top=0;left=0;bottom=0;right=0;align=right;spacingLeft=0;overflow=hidden;whiteSpace=wrap;html=1;strokeWidth=1;spacingRight=8;" parent="Mz_XwUTkdrpt21qilwWO-125" vertex="1">
          <mxGeometry x="120" width="80" height="30" as="geometry">
            <mxRectangle width="80" height="30" as="alternateBounds" />
          </mxGeometry>
        </mxCell>
        <mxCell id="Mz_XwUTkdrpt21qilwWO-128" value="" style="shape=tableRow;horizontal=0;startSize=0;swimlaneHead=0;swimlaneBody=0;fillColor=none;collapsible=0;dropTarget=0;points=[[0,0.5],[1,0.5]];portConstraint=eastwest;top=0;left=0;right=0;bottom=0;rounded=0;" parent="Mz_XwUTkdrpt21qilwWO-118" vertex="1">
          <mxGeometry y="120" width="200" height="30" as="geometry" />
        </mxCell>
        <mxCell id="Mz_XwUTkdrpt21qilwWO-129" value="updated" style="shape=partialRectangle;connectable=0;top=0;left=0;bottom=0;right=0;editable=1;overflow=hidden;whiteSpace=wrap;html=1;align=left;strokeWidth=1;spacingRight=0;spacingLeft=8;" parent="Mz_XwUTkdrpt21qilwWO-128" vertex="1">
          <mxGeometry width="120" height="30" as="geometry">
            <mxRectangle width="120" height="30" as="alternateBounds" />
          </mxGeometry>
        </mxCell>
        <mxCell id="Mz_XwUTkdrpt21qilwWO-130" value="datetime" style="shape=partialRectangle;connectable=0;top=0;left=0;bottom=0;right=0;align=right;spacingLeft=0;overflow=hidden;whiteSpace=wrap;html=1;strokeWidth=1;spacingRight=8;" parent="Mz_XwUTkdrpt21qilwWO-128" vertex="1">
          <mxGeometry x="120" width="80" height="30" as="geometry">
            <mxRectangle width="80" height="30" as="alternateBounds" />
          </mxGeometry>
        </mxCell>
        <mxCell id="Mz_XwUTkdrpt21qilwWO-131" value="role_suggestions" style="shape=table;startSize=30;container=1;collapsible=1;childLayout=tableLayout;fixedRows=1;rowLines=0;fontStyle=1;align=center;resizeLast=1;html=1;strokeWidth=1;columnLines=0;rounded=0;shadow=0;swimlaneLine=1;fillColor=#e1d5e7;strokeColor=#9673a6;" parent="1" vertex="1">
          <mxGeometry x="320" y="1430" width="200" height="210" as="geometry">
            <mxRectangle x="60" y="610" width="70" height="30" as="alternateBounds" />
          </mxGeometry>
        </mxCell>
        <mxCell id="Mz_XwUTkdrpt21qilwWO-132" value="" style="shape=tableRow;horizontal=0;startSize=0;swimlaneHead=0;swimlaneBody=0;fillColor=none;collapsible=0;dropTarget=0;points=[[0,0.5],[1,0.5]];portConstraint=eastwest;top=0;left=0;right=0;bottom=0;swimlaneLine=1;container=1;rounded=0;shadow=0;strokeWidth=1;" parent="Mz_XwUTkdrpt21qilwWO-131" vertex="1">
          <mxGeometry y="30" width="200" height="30" as="geometry" />
        </mxCell>
        <mxCell id="Mz_XwUTkdrpt21qilwWO-133" value="&lt;span style=&quot;&quot;&gt;id&lt;/span&gt;" style="shape=partialRectangle;connectable=0;top=0;left=0;bottom=0;right=0;fontStyle=4;overflow=hidden;whiteSpace=wrap;html=1;align=left;strokeWidth=1;spacingRight=0;spacingLeft=8;" parent="Mz_XwUTkdrpt21qilwWO-132" vertex="1">
          <mxGeometry width="120" height="30" as="geometry">
            <mxRectangle width="120" height="30" as="alternateBounds" />
          </mxGeometry>
        </mxCell>
        <mxCell id="Mz_XwUTkdrpt21qilwWO-134" value="reference" style="shape=partialRectangle;connectable=0;top=0;left=0;bottom=0;right=0;align=right;spacingLeft=0;fontStyle=4;overflow=hidden;whiteSpace=wrap;html=1;strokeWidth=1;spacingRight=8;" parent="Mz_XwUTkdrpt21qilwWO-132" vertex="1">
          <mxGeometry x="120" width="80" height="30" as="geometry">
            <mxRectangle width="80" height="30" as="alternateBounds" />
          </mxGeometry>
        </mxCell>
        <mxCell id="Mz_XwUTkdrpt21qilwWO-135" value="" style="shape=tableRow;horizontal=0;startSize=0;swimlaneHead=0;swimlaneBody=0;fillColor=none;collapsible=0;dropTarget=0;points=[[0,0.5],[1,0.5]];portConstraint=eastwest;top=0;left=0;right=0;bottom=0;" parent="Mz_XwUTkdrpt21qilwWO-131" vertex="1">
          <mxGeometry y="60" width="200" height="30" as="geometry" />
        </mxCell>
        <mxCell id="Mz_XwUTkdrpt21qilwWO-136" value="participantId" style="shape=partialRectangle;connectable=0;top=0;left=0;bottom=0;right=0;editable=1;overflow=hidden;whiteSpace=wrap;html=1;align=left;strokeWidth=1;spacingRight=0;spacingLeft=8;" parent="Mz_XwUTkdrpt21qilwWO-135" vertex="1">
          <mxGeometry width="120" height="30" as="geometry">
            <mxRectangle width="120" height="30" as="alternateBounds" />
          </mxGeometry>
        </mxCell>
        <mxCell id="Mz_XwUTkdrpt21qilwWO-137" value="reference" style="shape=partialRectangle;connectable=0;top=0;left=0;bottom=0;right=0;align=right;spacingLeft=0;overflow=hidden;whiteSpace=wrap;html=1;strokeWidth=1;spacingRight=8;" parent="Mz_XwUTkdrpt21qilwWO-135" vertex="1">
          <mxGeometry x="120" width="80" height="30" as="geometry">
            <mxRectangle width="80" height="30" as="alternateBounds" />
          </mxGeometry>
        </mxCell>
        <mxCell id="Mz_XwUTkdrpt21qilwWO-144" value="" style="shape=tableRow;horizontal=0;startSize=0;swimlaneHead=0;swimlaneBody=0;fillColor=none;collapsible=0;dropTarget=0;points=[[0,0.5],[1,0.5]];portConstraint=eastwest;top=0;left=0;right=0;bottom=0;" parent="Mz_XwUTkdrpt21qilwWO-131" vertex="1">
          <mxGeometry y="90" width="200" height="30" as="geometry" />
        </mxCell>
        <mxCell id="Mz_XwUTkdrpt21qilwWO-145" value="roleTypeId" style="shape=partialRectangle;connectable=0;top=0;left=0;bottom=0;right=0;editable=1;overflow=hidden;whiteSpace=wrap;html=1;align=left;strokeWidth=1;spacingRight=0;spacingLeft=8;" parent="Mz_XwUTkdrpt21qilwWO-144" vertex="1">
          <mxGeometry width="120" height="30" as="geometry">
            <mxRectangle width="120" height="30" as="alternateBounds" />
          </mxGeometry>
        </mxCell>
        <mxCell id="Mz_XwUTkdrpt21qilwWO-146" value="reference" style="shape=partialRectangle;connectable=0;top=0;left=0;bottom=0;right=0;align=right;spacingLeft=0;overflow=hidden;whiteSpace=wrap;html=1;strokeWidth=1;spacingRight=8;" parent="Mz_XwUTkdrpt21qilwWO-144" vertex="1">
          <mxGeometry x="120" width="80" height="30" as="geometry">
            <mxRectangle width="80" height="30" as="alternateBounds" />
          </mxGeometry>
        </mxCell>
        <mxCell id="Mz_XwUTkdrpt21qilwWO-147" value="" style="shape=tableRow;horizontal=0;startSize=0;swimlaneHead=0;swimlaneBody=0;fillColor=none;collapsible=0;dropTarget=0;points=[[0,0.5],[1,0.5]];portConstraint=eastwest;top=0;left=0;right=0;bottom=0;" parent="Mz_XwUTkdrpt21qilwWO-131" vertex="1">
          <mxGeometry y="120" width="200" height="30" as="geometry" />
        </mxCell>
        <mxCell id="Mz_XwUTkdrpt21qilwWO-148" value="followed" style="shape=partialRectangle;connectable=0;top=0;left=0;bottom=0;right=0;editable=1;overflow=hidden;whiteSpace=wrap;html=1;align=left;strokeWidth=1;spacingRight=0;spacingLeft=8;" parent="Mz_XwUTkdrpt21qilwWO-147" vertex="1">
          <mxGeometry width="120" height="30" as="geometry">
            <mxRectangle width="120" height="30" as="alternateBounds" />
          </mxGeometry>
        </mxCell>
        <mxCell id="Mz_XwUTkdrpt21qilwWO-149" value="bool" style="shape=partialRectangle;connectable=0;top=0;left=0;bottom=0;right=0;align=right;spacingLeft=0;overflow=hidden;whiteSpace=wrap;html=1;strokeWidth=1;spacingRight=8;" parent="Mz_XwUTkdrpt21qilwWO-147" vertex="1">
          <mxGeometry x="120" width="80" height="30" as="geometry">
            <mxRectangle width="80" height="30" as="alternateBounds" />
          </mxGeometry>
        </mxCell>
        <mxCell id="Mz_XwUTkdrpt21qilwWO-138" value="" style="shape=tableRow;horizontal=0;startSize=0;swimlaneHead=0;swimlaneBody=0;fillColor=none;collapsible=0;dropTarget=0;points=[[0,0.5],[1,0.5]];portConstraint=eastwest;top=0;left=0;right=0;bottom=0;" parent="Mz_XwUTkdrpt21qilwWO-131" vertex="1">
          <mxGeometry y="150" width="200" height="30" as="geometry" />
        </mxCell>
        <mxCell id="Mz_XwUTkdrpt21qilwWO-139" value="created" style="shape=partialRectangle;connectable=0;top=0;left=0;bottom=0;right=0;editable=1;overflow=hidden;whiteSpace=wrap;html=1;align=left;strokeWidth=1;spacingRight=0;spacingLeft=8;" parent="Mz_XwUTkdrpt21qilwWO-138" vertex="1">
          <mxGeometry width="120" height="30" as="geometry">
            <mxRectangle width="120" height="30" as="alternateBounds" />
          </mxGeometry>
        </mxCell>
        <mxCell id="Mz_XwUTkdrpt21qilwWO-140" value="datetime" style="shape=partialRectangle;connectable=0;top=0;left=0;bottom=0;right=0;align=right;spacingLeft=0;overflow=hidden;whiteSpace=wrap;html=1;strokeWidth=1;spacingRight=8;" parent="Mz_XwUTkdrpt21qilwWO-138" vertex="1">
          <mxGeometry x="120" width="80" height="30" as="geometry">
            <mxRectangle width="80" height="30" as="alternateBounds" />
          </mxGeometry>
        </mxCell>
        <mxCell id="Mz_XwUTkdrpt21qilwWO-141" value="" style="shape=tableRow;horizontal=0;startSize=0;swimlaneHead=0;swimlaneBody=0;fillColor=none;collapsible=0;dropTarget=0;points=[[0,0.5],[1,0.5]];portConstraint=eastwest;top=0;left=0;right=0;bottom=0;rounded=0;" parent="Mz_XwUTkdrpt21qilwWO-131" vertex="1">
          <mxGeometry y="180" width="200" height="30" as="geometry" />
        </mxCell>
        <mxCell id="Mz_XwUTkdrpt21qilwWO-142" value="updated" style="shape=partialRectangle;connectable=0;top=0;left=0;bottom=0;right=0;editable=1;overflow=hidden;whiteSpace=wrap;html=1;align=left;strokeWidth=1;spacingRight=0;spacingLeft=8;" parent="Mz_XwUTkdrpt21qilwWO-141" vertex="1">
          <mxGeometry width="120" height="30" as="geometry">
            <mxRectangle width="120" height="30" as="alternateBounds" />
          </mxGeometry>
        </mxCell>
        <mxCell id="Mz_XwUTkdrpt21qilwWO-143" value="datetime" style="shape=partialRectangle;connectable=0;top=0;left=0;bottom=0;right=0;align=right;spacingLeft=0;overflow=hidden;whiteSpace=wrap;html=1;strokeWidth=1;spacingRight=8;" parent="Mz_XwUTkdrpt21qilwWO-141" vertex="1">
          <mxGeometry x="120" width="80" height="30" as="geometry">
            <mxRectangle width="80" height="30" as="alternateBounds" />
          </mxGeometry>
        </mxCell>
        <mxCell id="Mz_XwUTkdrpt21qilwWO-150" value="setting_types" style="shape=table;startSize=30;container=1;collapsible=1;childLayout=tableLayout;fixedRows=1;rowLines=0;fontStyle=1;align=center;resizeLast=1;html=1;strokeWidth=1;columnLines=0;rounded=0;shadow=0;swimlaneLine=1;fillColor=#b0e3e6;strokeColor=#0e8088;" parent="1" vertex="1">
          <mxGeometry x="880" y="700" width="200" height="180" as="geometry">
            <mxRectangle x="60" y="610" width="70" height="30" as="alternateBounds" />
          </mxGeometry>
        </mxCell>
        <mxCell id="Mz_XwUTkdrpt21qilwWO-151" value="" style="shape=tableRow;horizontal=0;startSize=0;swimlaneHead=0;swimlaneBody=0;fillColor=none;collapsible=0;dropTarget=0;points=[[0,0.5],[1,0.5]];portConstraint=eastwest;top=0;left=0;right=0;bottom=0;swimlaneLine=1;container=1;rounded=0;shadow=0;strokeWidth=1;" parent="Mz_XwUTkdrpt21qilwWO-150" vertex="1">
          <mxGeometry y="30" width="200" height="30" as="geometry" />
        </mxCell>
        <mxCell id="Mz_XwUTkdrpt21qilwWO-152" value="&lt;span style=&quot;&quot;&gt;id&lt;/span&gt;" style="shape=partialRectangle;connectable=0;top=0;left=0;bottom=0;right=0;fontStyle=4;overflow=hidden;whiteSpace=wrap;html=1;align=left;strokeWidth=1;spacingRight=0;spacingLeft=8;" parent="Mz_XwUTkdrpt21qilwWO-151" vertex="1">
          <mxGeometry width="120" height="30" as="geometry">
            <mxRectangle width="120" height="30" as="alternateBounds" />
          </mxGeometry>
        </mxCell>
        <mxCell id="Mz_XwUTkdrpt21qilwWO-153" value="reference" style="shape=partialRectangle;connectable=0;top=0;left=0;bottom=0;right=0;align=right;spacingLeft=0;fontStyle=4;overflow=hidden;whiteSpace=wrap;html=1;strokeWidth=1;spacingRight=8;" parent="Mz_XwUTkdrpt21qilwWO-151" vertex="1">
          <mxGeometry x="120" width="80" height="30" as="geometry">
            <mxRectangle width="80" height="30" as="alternateBounds" />
          </mxGeometry>
        </mxCell>
        <mxCell id="Mz_XwUTkdrpt21qilwWO-154" value="" style="shape=tableRow;horizontal=0;startSize=0;swimlaneHead=0;swimlaneBody=0;fillColor=none;collapsible=0;dropTarget=0;points=[[0,0.5],[1,0.5]];portConstraint=eastwest;top=0;left=0;right=0;bottom=0;" parent="Mz_XwUTkdrpt21qilwWO-150" vertex="1">
          <mxGeometry y="60" width="200" height="30" as="geometry" />
        </mxCell>
        <mxCell id="Mz_XwUTkdrpt21qilwWO-155" value="name" style="shape=partialRectangle;connectable=0;top=0;left=0;bottom=0;right=0;editable=1;overflow=hidden;whiteSpace=wrap;html=1;align=left;strokeWidth=1;spacingRight=0;spacingLeft=8;" parent="Mz_XwUTkdrpt21qilwWO-154" vertex="1">
          <mxGeometry width="120" height="30" as="geometry">
            <mxRectangle width="120" height="30" as="alternateBounds" />
          </mxGeometry>
        </mxCell>
        <mxCell id="Mz_XwUTkdrpt21qilwWO-156" value="string" style="shape=partialRectangle;connectable=0;top=0;left=0;bottom=0;right=0;align=right;spacingLeft=0;overflow=hidden;whiteSpace=wrap;html=1;strokeWidth=1;spacingRight=8;" parent="Mz_XwUTkdrpt21qilwWO-154" vertex="1">
          <mxGeometry x="120" width="80" height="30" as="geometry">
            <mxRectangle width="80" height="30" as="alternateBounds" />
          </mxGeometry>
        </mxCell>
        <mxCell id="Mz_XwUTkdrpt21qilwWO-444" value="" style="shape=tableRow;horizontal=0;startSize=0;swimlaneHead=0;swimlaneBody=0;fillColor=none;collapsible=0;dropTarget=0;points=[[0,0.5],[1,0.5]];portConstraint=eastwest;top=0;left=0;right=0;bottom=0;" parent="Mz_XwUTkdrpt21qilwWO-150" vertex="1">
          <mxGeometry y="90" width="200" height="30" as="geometry" />
        </mxCell>
        <mxCell id="Mz_XwUTkdrpt21qilwWO-445" value="defaultValue" style="shape=partialRectangle;connectable=0;top=0;left=0;bottom=0;right=0;editable=1;overflow=hidden;whiteSpace=wrap;html=1;align=left;strokeWidth=1;spacingRight=0;spacingLeft=8;" parent="Mz_XwUTkdrpt21qilwWO-444" vertex="1">
          <mxGeometry width="120" height="30" as="geometry">
            <mxRectangle width="120" height="30" as="alternateBounds" />
          </mxGeometry>
        </mxCell>
        <mxCell id="Mz_XwUTkdrpt21qilwWO-446" value="json" style="shape=partialRectangle;connectable=0;top=0;left=0;bottom=0;right=0;align=right;spacingLeft=0;overflow=hidden;whiteSpace=wrap;html=1;strokeWidth=1;spacingRight=8;" parent="Mz_XwUTkdrpt21qilwWO-444" vertex="1">
          <mxGeometry x="120" width="80" height="30" as="geometry">
            <mxRectangle width="80" height="30" as="alternateBounds" />
          </mxGeometry>
        </mxCell>
        <mxCell id="Mz_XwUTkdrpt21qilwWO-157" value="" style="shape=tableRow;horizontal=0;startSize=0;swimlaneHead=0;swimlaneBody=0;fillColor=none;collapsible=0;dropTarget=0;points=[[0,0.5],[1,0.5]];portConstraint=eastwest;top=0;left=0;right=0;bottom=0;" parent="Mz_XwUTkdrpt21qilwWO-150" vertex="1">
          <mxGeometry y="120" width="200" height="30" as="geometry" />
        </mxCell>
        <mxCell id="Mz_XwUTkdrpt21qilwWO-158" value="created" style="shape=partialRectangle;connectable=0;top=0;left=0;bottom=0;right=0;editable=1;overflow=hidden;whiteSpace=wrap;html=1;align=left;strokeWidth=1;spacingRight=0;spacingLeft=8;" parent="Mz_XwUTkdrpt21qilwWO-157" vertex="1">
          <mxGeometry width="120" height="30" as="geometry">
            <mxRectangle width="120" height="30" as="alternateBounds" />
          </mxGeometry>
        </mxCell>
        <mxCell id="Mz_XwUTkdrpt21qilwWO-159" value="datetime" style="shape=partialRectangle;connectable=0;top=0;left=0;bottom=0;right=0;align=right;spacingLeft=0;overflow=hidden;whiteSpace=wrap;html=1;strokeWidth=1;spacingRight=8;" parent="Mz_XwUTkdrpt21qilwWO-157" vertex="1">
          <mxGeometry x="120" width="80" height="30" as="geometry">
            <mxRectangle width="80" height="30" as="alternateBounds" />
          </mxGeometry>
        </mxCell>
        <mxCell id="Mz_XwUTkdrpt21qilwWO-160" value="" style="shape=tableRow;horizontal=0;startSize=0;swimlaneHead=0;swimlaneBody=0;fillColor=none;collapsible=0;dropTarget=0;points=[[0,0.5],[1,0.5]];portConstraint=eastwest;top=0;left=0;right=0;bottom=0;rounded=0;" parent="Mz_XwUTkdrpt21qilwWO-150" vertex="1">
          <mxGeometry y="150" width="200" height="30" as="geometry" />
        </mxCell>
        <mxCell id="Mz_XwUTkdrpt21qilwWO-161" value="updated" style="shape=partialRectangle;connectable=0;top=0;left=0;bottom=0;right=0;editable=1;overflow=hidden;whiteSpace=wrap;html=1;align=left;strokeWidth=1;spacingRight=0;spacingLeft=8;" parent="Mz_XwUTkdrpt21qilwWO-160" vertex="1">
          <mxGeometry width="120" height="30" as="geometry">
            <mxRectangle width="120" height="30" as="alternateBounds" />
          </mxGeometry>
        </mxCell>
        <mxCell id="Mz_XwUTkdrpt21qilwWO-162" value="datetime" style="shape=partialRectangle;connectable=0;top=0;left=0;bottom=0;right=0;align=right;spacingLeft=0;overflow=hidden;whiteSpace=wrap;html=1;strokeWidth=1;spacingRight=8;" parent="Mz_XwUTkdrpt21qilwWO-160" vertex="1">
          <mxGeometry x="120" width="80" height="30" as="geometry">
            <mxRectangle width="80" height="30" as="alternateBounds" />
          </mxGeometry>
        </mxCell>
        <mxCell id="Mz_XwUTkdrpt21qilwWO-163" value="session_settings" style="shape=table;startSize=30;container=1;collapsible=1;childLayout=tableLayout;fixedRows=1;rowLines=0;fontStyle=1;align=center;resizeLast=1;html=1;strokeWidth=1;columnLines=0;rounded=0;shadow=0;swimlaneLine=1;fillColor=#b0e3e6;strokeColor=#0e8088;" parent="1" vertex="1">
          <mxGeometry x="600" y="770" width="200" height="210" as="geometry">
            <mxRectangle x="60" y="610" width="70" height="30" as="alternateBounds" />
          </mxGeometry>
        </mxCell>
        <mxCell id="Mz_XwUTkdrpt21qilwWO-164" value="" style="shape=tableRow;horizontal=0;startSize=0;swimlaneHead=0;swimlaneBody=0;fillColor=none;collapsible=0;dropTarget=0;points=[[0,0.5],[1,0.5]];portConstraint=eastwest;top=0;left=0;right=0;bottom=0;swimlaneLine=1;container=1;rounded=0;shadow=0;strokeWidth=1;" parent="Mz_XwUTkdrpt21qilwWO-163" vertex="1">
          <mxGeometry y="30" width="200" height="30" as="geometry" />
        </mxCell>
        <mxCell id="Mz_XwUTkdrpt21qilwWO-165" value="&lt;span style=&quot;&quot;&gt;id&lt;/span&gt;" style="shape=partialRectangle;connectable=0;top=0;left=0;bottom=0;right=0;fontStyle=4;overflow=hidden;whiteSpace=wrap;html=1;align=left;strokeWidth=1;spacingRight=0;spacingLeft=8;" parent="Mz_XwUTkdrpt21qilwWO-164" vertex="1">
          <mxGeometry width="120" height="30" as="geometry">
            <mxRectangle width="120" height="30" as="alternateBounds" />
          </mxGeometry>
        </mxCell>
        <mxCell id="Mz_XwUTkdrpt21qilwWO-166" value="reference" style="shape=partialRectangle;connectable=0;top=0;left=0;bottom=0;right=0;align=right;spacingLeft=0;fontStyle=4;overflow=hidden;whiteSpace=wrap;html=1;strokeWidth=1;spacingRight=8;" parent="Mz_XwUTkdrpt21qilwWO-164" vertex="1">
          <mxGeometry x="120" width="80" height="30" as="geometry">
            <mxRectangle width="80" height="30" as="alternateBounds" />
          </mxGeometry>
        </mxCell>
        <mxCell id="Mz_XwUTkdrpt21qilwWO-167" value="" style="shape=tableRow;horizontal=0;startSize=0;swimlaneHead=0;swimlaneBody=0;fillColor=none;collapsible=0;dropTarget=0;points=[[0,0.5],[1,0.5]];portConstraint=eastwest;top=0;left=0;right=0;bottom=0;" parent="Mz_XwUTkdrpt21qilwWO-163" vertex="1">
          <mxGeometry y="60" width="200" height="30" as="geometry" />
        </mxCell>
        <mxCell id="Mz_XwUTkdrpt21qilwWO-168" value="sessionId" style="shape=partialRectangle;connectable=0;top=0;left=0;bottom=0;right=0;editable=1;overflow=hidden;whiteSpace=wrap;html=1;align=left;strokeWidth=1;spacingRight=0;spacingLeft=8;" parent="Mz_XwUTkdrpt21qilwWO-167" vertex="1">
          <mxGeometry width="120" height="30" as="geometry">
            <mxRectangle width="120" height="30" as="alternateBounds" />
          </mxGeometry>
        </mxCell>
        <mxCell id="Mz_XwUTkdrpt21qilwWO-169" value="reference" style="shape=partialRectangle;connectable=0;top=0;left=0;bottom=0;right=0;align=right;spacingLeft=0;overflow=hidden;whiteSpace=wrap;html=1;strokeWidth=1;spacingRight=8;" parent="Mz_XwUTkdrpt21qilwWO-167" vertex="1">
          <mxGeometry x="120" width="80" height="30" as="geometry">
            <mxRectangle width="80" height="30" as="alternateBounds" />
          </mxGeometry>
        </mxCell>
        <mxCell id="Mz_XwUTkdrpt21qilwWO-176" value="" style="shape=tableRow;horizontal=0;startSize=0;swimlaneHead=0;swimlaneBody=0;fillColor=none;collapsible=0;dropTarget=0;points=[[0,0.5],[1,0.5]];portConstraint=eastwest;top=0;left=0;right=0;bottom=0;" parent="Mz_XwUTkdrpt21qilwWO-163" vertex="1">
          <mxGeometry y="90" width="200" height="30" as="geometry" />
        </mxCell>
        <mxCell id="Mz_XwUTkdrpt21qilwWO-177" value="settingTypeId" style="shape=partialRectangle;connectable=0;top=0;left=0;bottom=0;right=0;editable=1;overflow=hidden;whiteSpace=wrap;html=1;align=left;strokeWidth=1;spacingRight=0;spacingLeft=8;" parent="Mz_XwUTkdrpt21qilwWO-176" vertex="1">
          <mxGeometry width="120" height="30" as="geometry">
            <mxRectangle width="120" height="30" as="alternateBounds" />
          </mxGeometry>
        </mxCell>
        <mxCell id="Mz_XwUTkdrpt21qilwWO-178" value="reference" style="shape=partialRectangle;connectable=0;top=0;left=0;bottom=0;right=0;align=right;spacingLeft=0;overflow=hidden;whiteSpace=wrap;html=1;strokeWidth=1;spacingRight=8;" parent="Mz_XwUTkdrpt21qilwWO-176" vertex="1">
          <mxGeometry x="120" width="80" height="30" as="geometry">
            <mxRectangle width="80" height="30" as="alternateBounds" />
          </mxGeometry>
        </mxCell>
        <mxCell id="Mz_XwUTkdrpt21qilwWO-179" value="" style="shape=tableRow;horizontal=0;startSize=0;swimlaneHead=0;swimlaneBody=0;fillColor=none;collapsible=0;dropTarget=0;points=[[0,0.5],[1,0.5]];portConstraint=eastwest;top=0;left=0;right=0;bottom=0;" parent="Mz_XwUTkdrpt21qilwWO-163" vertex="1">
          <mxGeometry y="120" width="200" height="30" as="geometry" />
        </mxCell>
        <mxCell id="Mz_XwUTkdrpt21qilwWO-180" value="value" style="shape=partialRectangle;connectable=0;top=0;left=0;bottom=0;right=0;editable=1;overflow=hidden;whiteSpace=wrap;html=1;align=left;strokeWidth=1;spacingRight=0;spacingLeft=8;" parent="Mz_XwUTkdrpt21qilwWO-179" vertex="1">
          <mxGeometry width="120" height="30" as="geometry">
            <mxRectangle width="120" height="30" as="alternateBounds" />
          </mxGeometry>
        </mxCell>
        <mxCell id="Mz_XwUTkdrpt21qilwWO-181" value="json" style="shape=partialRectangle;connectable=0;top=0;left=0;bottom=0;right=0;align=right;spacingLeft=0;overflow=hidden;whiteSpace=wrap;html=1;strokeWidth=1;spacingRight=8;" parent="Mz_XwUTkdrpt21qilwWO-179" vertex="1">
          <mxGeometry x="120" width="80" height="30" as="geometry">
            <mxRectangle width="80" height="30" as="alternateBounds" />
          </mxGeometry>
        </mxCell>
        <mxCell id="Mz_XwUTkdrpt21qilwWO-170" value="" style="shape=tableRow;horizontal=0;startSize=0;swimlaneHead=0;swimlaneBody=0;fillColor=none;collapsible=0;dropTarget=0;points=[[0,0.5],[1,0.5]];portConstraint=eastwest;top=0;left=0;right=0;bottom=0;" parent="Mz_XwUTkdrpt21qilwWO-163" vertex="1">
          <mxGeometry y="150" width="200" height="30" as="geometry" />
        </mxCell>
        <mxCell id="Mz_XwUTkdrpt21qilwWO-171" value="created" style="shape=partialRectangle;connectable=0;top=0;left=0;bottom=0;right=0;editable=1;overflow=hidden;whiteSpace=wrap;html=1;align=left;strokeWidth=1;spacingRight=0;spacingLeft=8;" parent="Mz_XwUTkdrpt21qilwWO-170" vertex="1">
          <mxGeometry width="120" height="30" as="geometry">
            <mxRectangle width="120" height="30" as="alternateBounds" />
          </mxGeometry>
        </mxCell>
        <mxCell id="Mz_XwUTkdrpt21qilwWO-172" value="datetime" style="shape=partialRectangle;connectable=0;top=0;left=0;bottom=0;right=0;align=right;spacingLeft=0;overflow=hidden;whiteSpace=wrap;html=1;strokeWidth=1;spacingRight=8;" parent="Mz_XwUTkdrpt21qilwWO-170" vertex="1">
          <mxGeometry x="120" width="80" height="30" as="geometry">
            <mxRectangle width="80" height="30" as="alternateBounds" />
          </mxGeometry>
        </mxCell>
        <mxCell id="Mz_XwUTkdrpt21qilwWO-173" value="" style="shape=tableRow;horizontal=0;startSize=0;swimlaneHead=0;swimlaneBody=0;fillColor=none;collapsible=0;dropTarget=0;points=[[0,0.5],[1,0.5]];portConstraint=eastwest;top=0;left=0;right=0;bottom=0;rounded=0;" parent="Mz_XwUTkdrpt21qilwWO-163" vertex="1">
          <mxGeometry y="180" width="200" height="30" as="geometry" />
        </mxCell>
        <mxCell id="Mz_XwUTkdrpt21qilwWO-174" value="updated" style="shape=partialRectangle;connectable=0;top=0;left=0;bottom=0;right=0;editable=1;overflow=hidden;whiteSpace=wrap;html=1;align=left;strokeWidth=1;spacingRight=0;spacingLeft=8;" parent="Mz_XwUTkdrpt21qilwWO-173" vertex="1">
          <mxGeometry width="120" height="30" as="geometry">
            <mxRectangle width="120" height="30" as="alternateBounds" />
          </mxGeometry>
        </mxCell>
        <mxCell id="Mz_XwUTkdrpt21qilwWO-175" value="datetime" style="shape=partialRectangle;connectable=0;top=0;left=0;bottom=0;right=0;align=right;spacingLeft=0;overflow=hidden;whiteSpace=wrap;html=1;strokeWidth=1;spacingRight=8;" parent="Mz_XwUTkdrpt21qilwWO-173" vertex="1">
          <mxGeometry x="120" width="80" height="30" as="geometry">
            <mxRectangle width="80" height="30" as="alternateBounds" />
          </mxGeometry>
        </mxCell>
        <mxCell id="Mz_XwUTkdrpt21qilwWO-182" value="setting_suggestions" style="shape=table;startSize=30;container=1;collapsible=1;childLayout=tableLayout;fixedRows=1;rowLines=0;fontStyle=1;align=center;resizeLast=1;html=1;strokeWidth=1;columnLines=0;rounded=0;shadow=0;swimlaneLine=1;fillColor=#b0e3e6;strokeColor=#0e8088;" parent="1" vertex="1">
          <mxGeometry x="880" y="920" width="200" height="240" as="geometry">
            <mxRectangle x="60" y="610" width="70" height="30" as="alternateBounds" />
          </mxGeometry>
        </mxCell>
        <mxCell id="Mz_XwUTkdrpt21qilwWO-183" value="" style="shape=tableRow;horizontal=0;startSize=0;swimlaneHead=0;swimlaneBody=0;fillColor=none;collapsible=0;dropTarget=0;points=[[0,0.5],[1,0.5]];portConstraint=eastwest;top=0;left=0;right=0;bottom=0;swimlaneLine=1;container=1;rounded=0;shadow=0;strokeWidth=1;" parent="Mz_XwUTkdrpt21qilwWO-182" vertex="1">
          <mxGeometry y="30" width="200" height="30" as="geometry" />
        </mxCell>
        <mxCell id="Mz_XwUTkdrpt21qilwWO-184" value="&lt;span style=&quot;&quot;&gt;id&lt;/span&gt;" style="shape=partialRectangle;connectable=0;top=0;left=0;bottom=0;right=0;fontStyle=4;overflow=hidden;whiteSpace=wrap;html=1;align=left;strokeWidth=1;spacingRight=0;spacingLeft=8;" parent="Mz_XwUTkdrpt21qilwWO-183" vertex="1">
          <mxGeometry width="120" height="30" as="geometry">
            <mxRectangle width="120" height="30" as="alternateBounds" />
          </mxGeometry>
        </mxCell>
        <mxCell id="Mz_XwUTkdrpt21qilwWO-185" value="reference" style="shape=partialRectangle;connectable=0;top=0;left=0;bottom=0;right=0;align=right;spacingLeft=0;fontStyle=4;overflow=hidden;whiteSpace=wrap;html=1;strokeWidth=1;spacingRight=8;" parent="Mz_XwUTkdrpt21qilwWO-183" vertex="1">
          <mxGeometry x="120" width="80" height="30" as="geometry">
            <mxRectangle width="80" height="30" as="alternateBounds" />
          </mxGeometry>
        </mxCell>
        <mxCell id="Mz_XwUTkdrpt21qilwWO-186" value="" style="shape=tableRow;horizontal=0;startSize=0;swimlaneHead=0;swimlaneBody=0;fillColor=none;collapsible=0;dropTarget=0;points=[[0,0.5],[1,0.5]];portConstraint=eastwest;top=0;left=0;right=0;bottom=0;" parent="Mz_XwUTkdrpt21qilwWO-182" vertex="1">
          <mxGeometry y="60" width="200" height="30" as="geometry" />
        </mxCell>
        <mxCell id="Mz_XwUTkdrpt21qilwWO-187" value="sessionId" style="shape=partialRectangle;connectable=0;top=0;left=0;bottom=0;right=0;editable=1;overflow=hidden;whiteSpace=wrap;html=1;align=left;strokeWidth=1;spacingRight=0;spacingLeft=8;" parent="Mz_XwUTkdrpt21qilwWO-186" vertex="1">
          <mxGeometry width="120" height="30" as="geometry">
            <mxRectangle width="120" height="30" as="alternateBounds" />
          </mxGeometry>
        </mxCell>
        <mxCell id="Mz_XwUTkdrpt21qilwWO-188" value="reference" style="shape=partialRectangle;connectable=0;top=0;left=0;bottom=0;right=0;align=right;spacingLeft=0;overflow=hidden;whiteSpace=wrap;html=1;strokeWidth=1;spacingRight=8;" parent="Mz_XwUTkdrpt21qilwWO-186" vertex="1">
          <mxGeometry x="120" width="80" height="30" as="geometry">
            <mxRectangle width="80" height="30" as="alternateBounds" />
          </mxGeometry>
        </mxCell>
        <mxCell id="Mz_XwUTkdrpt21qilwWO-189" value="" style="shape=tableRow;horizontal=0;startSize=0;swimlaneHead=0;swimlaneBody=0;fillColor=none;collapsible=0;dropTarget=0;points=[[0,0.5],[1,0.5]];portConstraint=eastwest;top=0;left=0;right=0;bottom=0;" parent="Mz_XwUTkdrpt21qilwWO-182" vertex="1">
          <mxGeometry y="90" width="200" height="30" as="geometry" />
        </mxCell>
        <mxCell id="Mz_XwUTkdrpt21qilwWO-190" value="settingTypeId" style="shape=partialRectangle;connectable=0;top=0;left=0;bottom=0;right=0;editable=1;overflow=hidden;whiteSpace=wrap;html=1;align=left;strokeWidth=1;spacingRight=0;spacingLeft=8;" parent="Mz_XwUTkdrpt21qilwWO-189" vertex="1">
          <mxGeometry width="120" height="30" as="geometry">
            <mxRectangle width="120" height="30" as="alternateBounds" />
          </mxGeometry>
        </mxCell>
        <mxCell id="Mz_XwUTkdrpt21qilwWO-191" value="reference" style="shape=partialRectangle;connectable=0;top=0;left=0;bottom=0;right=0;align=right;spacingLeft=0;overflow=hidden;whiteSpace=wrap;html=1;strokeWidth=1;spacingRight=8;" parent="Mz_XwUTkdrpt21qilwWO-189" vertex="1">
          <mxGeometry x="120" width="80" height="30" as="geometry">
            <mxRectangle width="80" height="30" as="alternateBounds" />
          </mxGeometry>
        </mxCell>
        <mxCell id="Mz_XwUTkdrpt21qilwWO-192" value="" style="shape=tableRow;horizontal=0;startSize=0;swimlaneHead=0;swimlaneBody=0;fillColor=none;collapsible=0;dropTarget=0;points=[[0,0.5],[1,0.5]];portConstraint=eastwest;top=0;left=0;right=0;bottom=0;" parent="Mz_XwUTkdrpt21qilwWO-182" vertex="1">
          <mxGeometry y="120" width="200" height="30" as="geometry" />
        </mxCell>
        <mxCell id="Mz_XwUTkdrpt21qilwWO-193" value="value" style="shape=partialRectangle;connectable=0;top=0;left=0;bottom=0;right=0;editable=1;overflow=hidden;whiteSpace=wrap;html=1;align=left;strokeWidth=1;spacingRight=0;spacingLeft=8;" parent="Mz_XwUTkdrpt21qilwWO-192" vertex="1">
          <mxGeometry width="120" height="30" as="geometry">
            <mxRectangle width="120" height="30" as="alternateBounds" />
          </mxGeometry>
        </mxCell>
        <mxCell id="Mz_XwUTkdrpt21qilwWO-194" value="json" style="shape=partialRectangle;connectable=0;top=0;left=0;bottom=0;right=0;align=right;spacingLeft=0;overflow=hidden;whiteSpace=wrap;html=1;strokeWidth=1;spacingRight=8;" parent="Mz_XwUTkdrpt21qilwWO-192" vertex="1">
          <mxGeometry x="120" width="80" height="30" as="geometry">
            <mxRectangle width="80" height="30" as="alternateBounds" />
          </mxGeometry>
        </mxCell>
        <mxCell id="Mz_XwUTkdrpt21qilwWO-201" value="" style="shape=tableRow;horizontal=0;startSize=0;swimlaneHead=0;swimlaneBody=0;fillColor=none;collapsible=0;dropTarget=0;points=[[0,0.5],[1,0.5]];portConstraint=eastwest;top=0;left=0;right=0;bottom=0;" parent="Mz_XwUTkdrpt21qilwWO-182" vertex="1">
          <mxGeometry y="150" width="200" height="30" as="geometry" />
        </mxCell>
        <mxCell id="Mz_XwUTkdrpt21qilwWO-202" value="followed" style="shape=partialRectangle;connectable=0;top=0;left=0;bottom=0;right=0;editable=1;overflow=hidden;whiteSpace=wrap;html=1;align=left;strokeWidth=1;spacingRight=0;spacingLeft=8;" parent="Mz_XwUTkdrpt21qilwWO-201" vertex="1">
          <mxGeometry width="120" height="30" as="geometry">
            <mxRectangle width="120" height="30" as="alternateBounds" />
          </mxGeometry>
        </mxCell>
        <mxCell id="Mz_XwUTkdrpt21qilwWO-203" value="bool" style="shape=partialRectangle;connectable=0;top=0;left=0;bottom=0;right=0;align=right;spacingLeft=0;overflow=hidden;whiteSpace=wrap;html=1;strokeWidth=1;spacingRight=8;" parent="Mz_XwUTkdrpt21qilwWO-201" vertex="1">
          <mxGeometry x="120" width="80" height="30" as="geometry">
            <mxRectangle width="80" height="30" as="alternateBounds" />
          </mxGeometry>
        </mxCell>
        <mxCell id="Mz_XwUTkdrpt21qilwWO-195" value="" style="shape=tableRow;horizontal=0;startSize=0;swimlaneHead=0;swimlaneBody=0;fillColor=none;collapsible=0;dropTarget=0;points=[[0,0.5],[1,0.5]];portConstraint=eastwest;top=0;left=0;right=0;bottom=0;" parent="Mz_XwUTkdrpt21qilwWO-182" vertex="1">
          <mxGeometry y="180" width="200" height="30" as="geometry" />
        </mxCell>
        <mxCell id="Mz_XwUTkdrpt21qilwWO-196" value="created" style="shape=partialRectangle;connectable=0;top=0;left=0;bottom=0;right=0;editable=1;overflow=hidden;whiteSpace=wrap;html=1;align=left;strokeWidth=1;spacingRight=0;spacingLeft=8;" parent="Mz_XwUTkdrpt21qilwWO-195" vertex="1">
          <mxGeometry width="120" height="30" as="geometry">
            <mxRectangle width="120" height="30" as="alternateBounds" />
          </mxGeometry>
        </mxCell>
        <mxCell id="Mz_XwUTkdrpt21qilwWO-197" value="datetime" style="shape=partialRectangle;connectable=0;top=0;left=0;bottom=0;right=0;align=right;spacingLeft=0;overflow=hidden;whiteSpace=wrap;html=1;strokeWidth=1;spacingRight=8;" parent="Mz_XwUTkdrpt21qilwWO-195" vertex="1">
          <mxGeometry x="120" width="80" height="30" as="geometry">
            <mxRectangle width="80" height="30" as="alternateBounds" />
          </mxGeometry>
        </mxCell>
        <mxCell id="Mz_XwUTkdrpt21qilwWO-198" value="" style="shape=tableRow;horizontal=0;startSize=0;swimlaneHead=0;swimlaneBody=0;fillColor=none;collapsible=0;dropTarget=0;points=[[0,0.5],[1,0.5]];portConstraint=eastwest;top=0;left=0;right=0;bottom=0;rounded=0;" parent="Mz_XwUTkdrpt21qilwWO-182" vertex="1">
          <mxGeometry y="210" width="200" height="30" as="geometry" />
        </mxCell>
        <mxCell id="Mz_XwUTkdrpt21qilwWO-199" value="updated" style="shape=partialRectangle;connectable=0;top=0;left=0;bottom=0;right=0;editable=1;overflow=hidden;whiteSpace=wrap;html=1;align=left;strokeWidth=1;spacingRight=0;spacingLeft=8;" parent="Mz_XwUTkdrpt21qilwWO-198" vertex="1">
          <mxGeometry width="120" height="30" as="geometry">
            <mxRectangle width="120" height="30" as="alternateBounds" />
          </mxGeometry>
        </mxCell>
        <mxCell id="Mz_XwUTkdrpt21qilwWO-200" value="datetime" style="shape=partialRectangle;connectable=0;top=0;left=0;bottom=0;right=0;align=right;spacingLeft=0;overflow=hidden;whiteSpace=wrap;html=1;strokeWidth=1;spacingRight=8;" parent="Mz_XwUTkdrpt21qilwWO-198" vertex="1">
          <mxGeometry x="120" width="80" height="30" as="geometry">
            <mxRectangle width="80" height="30" as="alternateBounds" />
          </mxGeometry>
        </mxCell>
        <mxCell id="Mz_XwUTkdrpt21qilwWO-407" style="edgeStyle=orthogonalEdgeStyle;rounded=0;orthogonalLoop=1;jettySize=auto;html=1;exitX=1;exitY=0.5;exitDx=0;exitDy=0;endArrow=ERone;endFill=0;startArrow=ERmany;startFill=0;" parent="1" source="Mz_XwUTkdrpt21qilwWO-204" target="Mz_XwUTkdrpt21qilwWO-94" edge="1">
          <mxGeometry relative="1" as="geometry" />
        </mxCell>
        <mxCell id="Mz_XwUTkdrpt21qilwWO-204" value="participants" style="shape=table;startSize=30;container=1;collapsible=1;childLayout=tableLayout;fixedRows=1;rowLines=0;fontStyle=1;align=center;resizeLast=1;html=1;strokeWidth=1;columnLines=0;rounded=0;shadow=0;swimlaneLine=1;fillColor=#d5e8d4;strokeColor=#82b366;" parent="1" vertex="1">
          <mxGeometry x="320" y="960" width="200" height="210" as="geometry">
            <mxRectangle x="60" y="610" width="70" height="30" as="alternateBounds" />
          </mxGeometry>
        </mxCell>
        <mxCell id="Mz_XwUTkdrpt21qilwWO-205" value="" style="shape=tableRow;horizontal=0;startSize=0;swimlaneHead=0;swimlaneBody=0;fillColor=none;collapsible=0;dropTarget=0;points=[[0,0.5],[1,0.5]];portConstraint=eastwest;top=0;left=0;right=0;bottom=0;swimlaneLine=1;container=1;rounded=0;shadow=0;strokeWidth=1;" parent="Mz_XwUTkdrpt21qilwWO-204" vertex="1">
          <mxGeometry y="30" width="200" height="30" as="geometry" />
        </mxCell>
        <mxCell id="Mz_XwUTkdrpt21qilwWO-206" value="&lt;span style=&quot;&quot;&gt;id&lt;/span&gt;" style="shape=partialRectangle;connectable=0;top=0;left=0;bottom=0;right=0;fontStyle=4;overflow=hidden;whiteSpace=wrap;html=1;align=left;strokeWidth=1;spacingRight=0;spacingLeft=8;" parent="Mz_XwUTkdrpt21qilwWO-205" vertex="1">
          <mxGeometry width="120" height="30" as="geometry">
            <mxRectangle width="120" height="30" as="alternateBounds" />
          </mxGeometry>
        </mxCell>
        <mxCell id="Mz_XwUTkdrpt21qilwWO-207" value="reference" style="shape=partialRectangle;connectable=0;top=0;left=0;bottom=0;right=0;align=right;spacingLeft=0;fontStyle=4;overflow=hidden;whiteSpace=wrap;html=1;strokeWidth=1;spacingRight=8;" parent="Mz_XwUTkdrpt21qilwWO-205" vertex="1">
          <mxGeometry x="120" width="80" height="30" as="geometry">
            <mxRectangle width="80" height="30" as="alternateBounds" />
          </mxGeometry>
        </mxCell>
        <mxCell id="Mz_XwUTkdrpt21qilwWO-208" value="" style="shape=tableRow;horizontal=0;startSize=0;swimlaneHead=0;swimlaneBody=0;fillColor=none;collapsible=0;dropTarget=0;points=[[0,0.5],[1,0.5]];portConstraint=eastwest;top=0;left=0;right=0;bottom=0;" parent="Mz_XwUTkdrpt21qilwWO-204" vertex="1">
          <mxGeometry y="60" width="200" height="30" as="geometry" />
        </mxCell>
        <mxCell id="Mz_XwUTkdrpt21qilwWO-209" value="userId" style="shape=partialRectangle;connectable=0;top=0;left=0;bottom=0;right=0;editable=1;overflow=hidden;whiteSpace=wrap;html=1;align=left;strokeWidth=1;spacingRight=0;spacingLeft=8;" parent="Mz_XwUTkdrpt21qilwWO-208" vertex="1">
          <mxGeometry width="120" height="30" as="geometry">
            <mxRectangle width="120" height="30" as="alternateBounds" />
          </mxGeometry>
        </mxCell>
        <mxCell id="Mz_XwUTkdrpt21qilwWO-210" value="reference" style="shape=partialRectangle;connectable=0;top=0;left=0;bottom=0;right=0;align=right;spacingLeft=0;overflow=hidden;whiteSpace=wrap;html=1;strokeWidth=1;spacingRight=8;" parent="Mz_XwUTkdrpt21qilwWO-208" vertex="1">
          <mxGeometry x="120" width="80" height="30" as="geometry">
            <mxRectangle width="80" height="30" as="alternateBounds" />
          </mxGeometry>
        </mxCell>
        <mxCell id="Mz_XwUTkdrpt21qilwWO-220" value="" style="shape=tableRow;horizontal=0;startSize=0;swimlaneHead=0;swimlaneBody=0;fillColor=none;collapsible=0;dropTarget=0;points=[[0,0.5],[1,0.5]];portConstraint=eastwest;top=0;left=0;right=0;bottom=0;" parent="Mz_XwUTkdrpt21qilwWO-204" vertex="1">
          <mxGeometry y="90" width="200" height="30" as="geometry" />
        </mxCell>
        <mxCell id="Mz_XwUTkdrpt21qilwWO-221" value="sessionId" style="shape=partialRectangle;connectable=0;top=0;left=0;bottom=0;right=0;editable=1;overflow=hidden;whiteSpace=wrap;html=1;align=left;strokeWidth=1;spacingRight=0;spacingLeft=8;" parent="Mz_XwUTkdrpt21qilwWO-220" vertex="1">
          <mxGeometry width="120" height="30" as="geometry">
            <mxRectangle width="120" height="30" as="alternateBounds" />
          </mxGeometry>
        </mxCell>
        <mxCell id="Mz_XwUTkdrpt21qilwWO-222" value="reference" style="shape=partialRectangle;connectable=0;top=0;left=0;bottom=0;right=0;align=right;spacingLeft=0;overflow=hidden;whiteSpace=wrap;html=1;strokeWidth=1;spacingRight=8;" parent="Mz_XwUTkdrpt21qilwWO-220" vertex="1">
          <mxGeometry x="120" width="80" height="30" as="geometry">
            <mxRectangle width="80" height="30" as="alternateBounds" />
          </mxGeometry>
        </mxCell>
        <mxCell id="Mz_XwUTkdrpt21qilwWO-217" value="" style="shape=tableRow;horizontal=0;startSize=0;swimlaneHead=0;swimlaneBody=0;fillColor=none;collapsible=0;dropTarget=0;points=[[0,0.5],[1,0.5]];portConstraint=eastwest;top=0;left=0;right=0;bottom=0;" parent="Mz_XwUTkdrpt21qilwWO-204" vertex="1">
          <mxGeometry y="120" width="200" height="30" as="geometry" />
        </mxCell>
        <mxCell id="Mz_XwUTkdrpt21qilwWO-218" value="rating" style="shape=partialRectangle;connectable=0;top=0;left=0;bottom=0;right=0;editable=1;overflow=hidden;whiteSpace=wrap;html=1;align=left;strokeWidth=1;spacingRight=0;spacingLeft=8;" parent="Mz_XwUTkdrpt21qilwWO-217" vertex="1">
          <mxGeometry width="120" height="30" as="geometry">
            <mxRectangle width="120" height="30" as="alternateBounds" />
          </mxGeometry>
        </mxCell>
        <mxCell id="Mz_XwUTkdrpt21qilwWO-219" value="float" style="shape=partialRectangle;connectable=0;top=0;left=0;bottom=0;right=0;align=right;spacingLeft=0;overflow=hidden;whiteSpace=wrap;html=1;strokeWidth=1;spacingRight=8;" parent="Mz_XwUTkdrpt21qilwWO-217" vertex="1">
          <mxGeometry x="120" width="80" height="30" as="geometry">
            <mxRectangle width="80" height="30" as="alternateBounds" />
          </mxGeometry>
        </mxCell>
        <mxCell id="Mz_XwUTkdrpt21qilwWO-211" value="" style="shape=tableRow;horizontal=0;startSize=0;swimlaneHead=0;swimlaneBody=0;fillColor=none;collapsible=0;dropTarget=0;points=[[0,0.5],[1,0.5]];portConstraint=eastwest;top=0;left=0;right=0;bottom=0;" parent="Mz_XwUTkdrpt21qilwWO-204" vertex="1">
          <mxGeometry y="150" width="200" height="30" as="geometry" />
        </mxCell>
        <mxCell id="Mz_XwUTkdrpt21qilwWO-212" value="created" style="shape=partialRectangle;connectable=0;top=0;left=0;bottom=0;right=0;editable=1;overflow=hidden;whiteSpace=wrap;html=1;align=left;strokeWidth=1;spacingRight=0;spacingLeft=8;" parent="Mz_XwUTkdrpt21qilwWO-211" vertex="1">
          <mxGeometry width="120" height="30" as="geometry">
            <mxRectangle width="120" height="30" as="alternateBounds" />
          </mxGeometry>
        </mxCell>
        <mxCell id="Mz_XwUTkdrpt21qilwWO-213" value="datetime" style="shape=partialRectangle;connectable=0;top=0;left=0;bottom=0;right=0;align=right;spacingLeft=0;overflow=hidden;whiteSpace=wrap;html=1;strokeWidth=1;spacingRight=8;" parent="Mz_XwUTkdrpt21qilwWO-211" vertex="1">
          <mxGeometry x="120" width="80" height="30" as="geometry">
            <mxRectangle width="80" height="30" as="alternateBounds" />
          </mxGeometry>
        </mxCell>
        <mxCell id="Mz_XwUTkdrpt21qilwWO-214" value="" style="shape=tableRow;horizontal=0;startSize=0;swimlaneHead=0;swimlaneBody=0;fillColor=none;collapsible=0;dropTarget=0;points=[[0,0.5],[1,0.5]];portConstraint=eastwest;top=0;left=0;right=0;bottom=0;rounded=0;" parent="Mz_XwUTkdrpt21qilwWO-204" vertex="1">
          <mxGeometry y="180" width="200" height="30" as="geometry" />
        </mxCell>
        <mxCell id="Mz_XwUTkdrpt21qilwWO-215" value="updated" style="shape=partialRectangle;connectable=0;top=0;left=0;bottom=0;right=0;editable=1;overflow=hidden;whiteSpace=wrap;html=1;align=left;strokeWidth=1;spacingRight=0;spacingLeft=8;" parent="Mz_XwUTkdrpt21qilwWO-214" vertex="1">
          <mxGeometry width="120" height="30" as="geometry">
            <mxRectangle width="120" height="30" as="alternateBounds" />
          </mxGeometry>
        </mxCell>
        <mxCell id="Mz_XwUTkdrpt21qilwWO-216" value="datetime" style="shape=partialRectangle;connectable=0;top=0;left=0;bottom=0;right=0;align=right;spacingLeft=0;overflow=hidden;whiteSpace=wrap;html=1;strokeWidth=1;spacingRight=8;" parent="Mz_XwUTkdrpt21qilwWO-214" vertex="1">
          <mxGeometry x="120" width="80" height="30" as="geometry">
            <mxRectangle width="80" height="30" as="alternateBounds" />
          </mxGeometry>
        </mxCell>
        <mxCell id="Mz_XwUTkdrpt21qilwWO-223" value="participant_roles" style="shape=table;startSize=30;container=1;collapsible=1;childLayout=tableLayout;fixedRows=1;rowLines=0;fontStyle=1;align=center;resizeLast=1;html=1;strokeWidth=1;columnLines=0;rounded=0;shadow=0;swimlaneLine=1;fillColor=#e1d5e7;strokeColor=#9673a6;" parent="1" vertex="1">
          <mxGeometry x="320" y="1210" width="200" height="180" as="geometry">
            <mxRectangle x="60" y="610" width="70" height="30" as="alternateBounds" />
          </mxGeometry>
        </mxCell>
        <mxCell id="Mz_XwUTkdrpt21qilwWO-224" value="" style="shape=tableRow;horizontal=0;startSize=0;swimlaneHead=0;swimlaneBody=0;fillColor=none;collapsible=0;dropTarget=0;points=[[0,0.5],[1,0.5]];portConstraint=eastwest;top=0;left=0;right=0;bottom=0;swimlaneLine=1;container=1;rounded=0;shadow=0;strokeWidth=1;" parent="Mz_XwUTkdrpt21qilwWO-223" vertex="1">
          <mxGeometry y="30" width="200" height="30" as="geometry" />
        </mxCell>
        <mxCell id="Mz_XwUTkdrpt21qilwWO-225" value="&lt;span style=&quot;&quot;&gt;id&lt;/span&gt;" style="shape=partialRectangle;connectable=0;top=0;left=0;bottom=0;right=0;fontStyle=4;overflow=hidden;whiteSpace=wrap;html=1;align=left;strokeWidth=1;spacingRight=0;spacingLeft=8;" parent="Mz_XwUTkdrpt21qilwWO-224" vertex="1">
          <mxGeometry width="120" height="30" as="geometry">
            <mxRectangle width="120" height="30" as="alternateBounds" />
          </mxGeometry>
        </mxCell>
        <mxCell id="Mz_XwUTkdrpt21qilwWO-226" value="reference" style="shape=partialRectangle;connectable=0;top=0;left=0;bottom=0;right=0;align=right;spacingLeft=0;fontStyle=4;overflow=hidden;whiteSpace=wrap;html=1;strokeWidth=1;spacingRight=8;" parent="Mz_XwUTkdrpt21qilwWO-224" vertex="1">
          <mxGeometry x="120" width="80" height="30" as="geometry">
            <mxRectangle width="80" height="30" as="alternateBounds" />
          </mxGeometry>
        </mxCell>
        <mxCell id="Mz_XwUTkdrpt21qilwWO-227" value="" style="shape=tableRow;horizontal=0;startSize=0;swimlaneHead=0;swimlaneBody=0;fillColor=none;collapsible=0;dropTarget=0;points=[[0,0.5],[1,0.5]];portConstraint=eastwest;top=0;left=0;right=0;bottom=0;" parent="Mz_XwUTkdrpt21qilwWO-223" vertex="1">
          <mxGeometry y="60" width="200" height="30" as="geometry" />
        </mxCell>
        <mxCell id="Mz_XwUTkdrpt21qilwWO-228" value="participantId" style="shape=partialRectangle;connectable=0;top=0;left=0;bottom=0;right=0;editable=1;overflow=hidden;whiteSpace=wrap;html=1;align=left;strokeWidth=1;spacingRight=0;spacingLeft=8;" parent="Mz_XwUTkdrpt21qilwWO-227" vertex="1">
          <mxGeometry width="120" height="30" as="geometry">
            <mxRectangle width="120" height="30" as="alternateBounds" />
          </mxGeometry>
        </mxCell>
        <mxCell id="Mz_XwUTkdrpt21qilwWO-229" value="reference" style="shape=partialRectangle;connectable=0;top=0;left=0;bottom=0;right=0;align=right;spacingLeft=0;overflow=hidden;whiteSpace=wrap;html=1;strokeWidth=1;spacingRight=8;" parent="Mz_XwUTkdrpt21qilwWO-227" vertex="1">
          <mxGeometry x="120" width="80" height="30" as="geometry">
            <mxRectangle width="80" height="30" as="alternateBounds" />
          </mxGeometry>
        </mxCell>
        <mxCell id="Mz_XwUTkdrpt21qilwWO-230" value="" style="shape=tableRow;horizontal=0;startSize=0;swimlaneHead=0;swimlaneBody=0;fillColor=none;collapsible=0;dropTarget=0;points=[[0,0.5],[1,0.5]];portConstraint=eastwest;top=0;left=0;right=0;bottom=0;" parent="Mz_XwUTkdrpt21qilwWO-223" vertex="1">
          <mxGeometry y="90" width="200" height="30" as="geometry" />
        </mxCell>
        <mxCell id="Mz_XwUTkdrpt21qilwWO-231" value="roleTypeId" style="shape=partialRectangle;connectable=0;top=0;left=0;bottom=0;right=0;editable=1;overflow=hidden;whiteSpace=wrap;html=1;align=left;strokeWidth=1;spacingRight=0;spacingLeft=8;" parent="Mz_XwUTkdrpt21qilwWO-230" vertex="1">
          <mxGeometry width="120" height="30" as="geometry">
            <mxRectangle width="120" height="30" as="alternateBounds" />
          </mxGeometry>
        </mxCell>
        <mxCell id="Mz_XwUTkdrpt21qilwWO-232" value="reference" style="shape=partialRectangle;connectable=0;top=0;left=0;bottom=0;right=0;align=right;spacingLeft=0;overflow=hidden;whiteSpace=wrap;html=1;strokeWidth=1;spacingRight=8;" parent="Mz_XwUTkdrpt21qilwWO-230" vertex="1">
          <mxGeometry x="120" width="80" height="30" as="geometry">
            <mxRectangle width="80" height="30" as="alternateBounds" />
          </mxGeometry>
        </mxCell>
        <mxCell id="Mz_XwUTkdrpt21qilwWO-236" value="" style="shape=tableRow;horizontal=0;startSize=0;swimlaneHead=0;swimlaneBody=0;fillColor=none;collapsible=0;dropTarget=0;points=[[0,0.5],[1,0.5]];portConstraint=eastwest;top=0;left=0;right=0;bottom=0;" parent="Mz_XwUTkdrpt21qilwWO-223" vertex="1">
          <mxGeometry y="120" width="200" height="30" as="geometry" />
        </mxCell>
        <mxCell id="Mz_XwUTkdrpt21qilwWO-237" value="created" style="shape=partialRectangle;connectable=0;top=0;left=0;bottom=0;right=0;editable=1;overflow=hidden;whiteSpace=wrap;html=1;align=left;strokeWidth=1;spacingRight=0;spacingLeft=8;" parent="Mz_XwUTkdrpt21qilwWO-236" vertex="1">
          <mxGeometry width="120" height="30" as="geometry">
            <mxRectangle width="120" height="30" as="alternateBounds" />
          </mxGeometry>
        </mxCell>
        <mxCell id="Mz_XwUTkdrpt21qilwWO-238" value="datetime" style="shape=partialRectangle;connectable=0;top=0;left=0;bottom=0;right=0;align=right;spacingLeft=0;overflow=hidden;whiteSpace=wrap;html=1;strokeWidth=1;spacingRight=8;" parent="Mz_XwUTkdrpt21qilwWO-236" vertex="1">
          <mxGeometry x="120" width="80" height="30" as="geometry">
            <mxRectangle width="80" height="30" as="alternateBounds" />
          </mxGeometry>
        </mxCell>
        <mxCell id="Mz_XwUTkdrpt21qilwWO-239" value="" style="shape=tableRow;horizontal=0;startSize=0;swimlaneHead=0;swimlaneBody=0;fillColor=none;collapsible=0;dropTarget=0;points=[[0,0.5],[1,0.5]];portConstraint=eastwest;top=0;left=0;right=0;bottom=0;rounded=0;" parent="Mz_XwUTkdrpt21qilwWO-223" vertex="1">
          <mxGeometry y="150" width="200" height="30" as="geometry" />
        </mxCell>
        <mxCell id="Mz_XwUTkdrpt21qilwWO-240" value="updated" style="shape=partialRectangle;connectable=0;top=0;left=0;bottom=0;right=0;editable=1;overflow=hidden;whiteSpace=wrap;html=1;align=left;strokeWidth=1;spacingRight=0;spacingLeft=8;" parent="Mz_XwUTkdrpt21qilwWO-239" vertex="1">
          <mxGeometry width="120" height="30" as="geometry">
            <mxRectangle width="120" height="30" as="alternateBounds" />
          </mxGeometry>
        </mxCell>
        <mxCell id="Mz_XwUTkdrpt21qilwWO-241" value="datetime" style="shape=partialRectangle;connectable=0;top=0;left=0;bottom=0;right=0;align=right;spacingLeft=0;overflow=hidden;whiteSpace=wrap;html=1;strokeWidth=1;spacingRight=8;" parent="Mz_XwUTkdrpt21qilwWO-239" vertex="1">
          <mxGeometry x="120" width="80" height="30" as="geometry">
            <mxRectangle width="80" height="30" as="alternateBounds" />
          </mxGeometry>
        </mxCell>
        <mxCell id="Mz_XwUTkdrpt21qilwWO-242" value="participant_tips" style="shape=table;startSize=30;container=1;collapsible=1;childLayout=tableLayout;fixedRows=1;rowLines=0;fontStyle=1;align=center;resizeLast=1;html=1;strokeWidth=1;columnLines=0;rounded=0;shadow=0;swimlaneLine=1;fillColor=#fff2cc;strokeColor=#d6b656;" parent="1" vertex="1">
          <mxGeometry x="320" y="740" width="200" height="180" as="geometry">
            <mxRectangle x="60" y="610" width="70" height="30" as="alternateBounds" />
          </mxGeometry>
        </mxCell>
        <mxCell id="Mz_XwUTkdrpt21qilwWO-243" value="" style="shape=tableRow;horizontal=0;startSize=0;swimlaneHead=0;swimlaneBody=0;fillColor=none;collapsible=0;dropTarget=0;points=[[0,0.5],[1,0.5]];portConstraint=eastwest;top=0;left=0;right=0;bottom=0;swimlaneLine=1;container=1;rounded=0;shadow=0;strokeWidth=1;fontStyle=0" parent="Mz_XwUTkdrpt21qilwWO-242" vertex="1">
          <mxGeometry y="30" width="200" height="30" as="geometry" />
        </mxCell>
        <mxCell id="Mz_XwUTkdrpt21qilwWO-244" value="&lt;span style=&quot;&quot;&gt;id&lt;/span&gt;" style="shape=partialRectangle;connectable=0;top=0;left=0;bottom=0;right=0;fontStyle=4;overflow=hidden;whiteSpace=wrap;html=1;align=left;strokeWidth=1;spacingRight=0;spacingLeft=8;" parent="Mz_XwUTkdrpt21qilwWO-243" vertex="1">
          <mxGeometry width="120" height="30" as="geometry">
            <mxRectangle width="120" height="30" as="alternateBounds" />
          </mxGeometry>
        </mxCell>
        <mxCell id="Mz_XwUTkdrpt21qilwWO-245" value="reference" style="shape=partialRectangle;connectable=0;top=0;left=0;bottom=0;right=0;align=right;spacingLeft=0;fontStyle=4;overflow=hidden;whiteSpace=wrap;html=1;strokeWidth=1;spacingRight=8;" parent="Mz_XwUTkdrpt21qilwWO-243" vertex="1">
          <mxGeometry x="120" width="80" height="30" as="geometry">
            <mxRectangle width="80" height="30" as="alternateBounds" />
          </mxGeometry>
        </mxCell>
        <mxCell id="Mz_XwUTkdrpt21qilwWO-246" value="" style="shape=tableRow;horizontal=0;startSize=0;swimlaneHead=0;swimlaneBody=0;fillColor=none;collapsible=0;dropTarget=0;points=[[0,0.5],[1,0.5]];portConstraint=eastwest;top=0;left=0;right=0;bottom=0;" parent="Mz_XwUTkdrpt21qilwWO-242" vertex="1">
          <mxGeometry y="60" width="200" height="30" as="geometry" />
        </mxCell>
        <mxCell id="Mz_XwUTkdrpt21qilwWO-247" value="participantId" style="shape=partialRectangle;connectable=0;top=0;left=0;bottom=0;right=0;editable=1;overflow=hidden;whiteSpace=wrap;html=1;align=left;strokeWidth=1;spacingRight=0;spacingLeft=8;" parent="Mz_XwUTkdrpt21qilwWO-246" vertex="1">
          <mxGeometry width="120" height="30" as="geometry">
            <mxRectangle width="120" height="30" as="alternateBounds" />
          </mxGeometry>
        </mxCell>
        <mxCell id="Mz_XwUTkdrpt21qilwWO-248" value="reference" style="shape=partialRectangle;connectable=0;top=0;left=0;bottom=0;right=0;align=right;spacingLeft=0;overflow=hidden;whiteSpace=wrap;html=1;strokeWidth=1;spacingRight=8;" parent="Mz_XwUTkdrpt21qilwWO-246" vertex="1">
          <mxGeometry x="120" width="80" height="30" as="geometry">
            <mxRectangle width="80" height="30" as="alternateBounds" />
          </mxGeometry>
        </mxCell>
        <mxCell id="Mz_XwUTkdrpt21qilwWO-249" value="" style="shape=tableRow;horizontal=0;startSize=0;swimlaneHead=0;swimlaneBody=0;fillColor=none;collapsible=0;dropTarget=0;points=[[0,0.5],[1,0.5]];portConstraint=eastwest;top=0;left=0;right=0;bottom=0;" parent="Mz_XwUTkdrpt21qilwWO-242" vertex="1">
          <mxGeometry y="90" width="200" height="30" as="geometry" />
        </mxCell>
        <mxCell id="Mz_XwUTkdrpt21qilwWO-250" value="text" style="shape=partialRectangle;connectable=0;top=0;left=0;bottom=0;right=0;editable=1;overflow=hidden;whiteSpace=wrap;html=1;align=left;strokeWidth=1;spacingRight=0;spacingLeft=8;" parent="Mz_XwUTkdrpt21qilwWO-249" vertex="1">
          <mxGeometry width="120" height="30" as="geometry">
            <mxRectangle width="120" height="30" as="alternateBounds" />
          </mxGeometry>
        </mxCell>
        <mxCell id="Mz_XwUTkdrpt21qilwWO-251" value="string" style="shape=partialRectangle;connectable=0;top=0;left=0;bottom=0;right=0;align=right;spacingLeft=0;overflow=hidden;whiteSpace=wrap;html=1;strokeWidth=1;spacingRight=8;" parent="Mz_XwUTkdrpt21qilwWO-249" vertex="1">
          <mxGeometry x="120" width="80" height="30" as="geometry">
            <mxRectangle width="80" height="30" as="alternateBounds" />
          </mxGeometry>
        </mxCell>
        <mxCell id="Mz_XwUTkdrpt21qilwWO-252" value="" style="shape=tableRow;horizontal=0;startSize=0;swimlaneHead=0;swimlaneBody=0;fillColor=none;collapsible=0;dropTarget=0;points=[[0,0.5],[1,0.5]];portConstraint=eastwest;top=0;left=0;right=0;bottom=0;" parent="Mz_XwUTkdrpt21qilwWO-242" vertex="1">
          <mxGeometry y="120" width="200" height="30" as="geometry" />
        </mxCell>
        <mxCell id="Mz_XwUTkdrpt21qilwWO-253" value="created" style="shape=partialRectangle;connectable=0;top=0;left=0;bottom=0;right=0;editable=1;overflow=hidden;whiteSpace=wrap;html=1;align=left;strokeWidth=1;spacingRight=0;spacingLeft=8;" parent="Mz_XwUTkdrpt21qilwWO-252" vertex="1">
          <mxGeometry width="120" height="30" as="geometry">
            <mxRectangle width="120" height="30" as="alternateBounds" />
          </mxGeometry>
        </mxCell>
        <mxCell id="Mz_XwUTkdrpt21qilwWO-254" value="datetime" style="shape=partialRectangle;connectable=0;top=0;left=0;bottom=0;right=0;align=right;spacingLeft=0;overflow=hidden;whiteSpace=wrap;html=1;strokeWidth=1;spacingRight=8;" parent="Mz_XwUTkdrpt21qilwWO-252" vertex="1">
          <mxGeometry x="120" width="80" height="30" as="geometry">
            <mxRectangle width="80" height="30" as="alternateBounds" />
          </mxGeometry>
        </mxCell>
        <mxCell id="Mz_XwUTkdrpt21qilwWO-255" value="" style="shape=tableRow;horizontal=0;startSize=0;swimlaneHead=0;swimlaneBody=0;fillColor=none;collapsible=0;dropTarget=0;points=[[0,0.5],[1,0.5]];portConstraint=eastwest;top=0;left=0;right=0;bottom=0;rounded=0;" parent="Mz_XwUTkdrpt21qilwWO-242" vertex="1">
          <mxGeometry y="150" width="200" height="30" as="geometry" />
        </mxCell>
        <mxCell id="Mz_XwUTkdrpt21qilwWO-256" value="updated" style="shape=partialRectangle;connectable=0;top=0;left=0;bottom=0;right=0;editable=1;overflow=hidden;whiteSpace=wrap;html=1;align=left;strokeWidth=1;spacingRight=0;spacingLeft=8;" parent="Mz_XwUTkdrpt21qilwWO-255" vertex="1">
          <mxGeometry width="120" height="30" as="geometry">
            <mxRectangle width="120" height="30" as="alternateBounds" />
          </mxGeometry>
        </mxCell>
        <mxCell id="Mz_XwUTkdrpt21qilwWO-257" value="datetime" style="shape=partialRectangle;connectable=0;top=0;left=0;bottom=0;right=0;align=right;spacingLeft=0;overflow=hidden;whiteSpace=wrap;html=1;strokeWidth=1;spacingRight=8;" parent="Mz_XwUTkdrpt21qilwWO-255" vertex="1">
          <mxGeometry x="120" width="80" height="30" as="geometry">
            <mxRectangle width="80" height="30" as="alternateBounds" />
          </mxGeometry>
        </mxCell>
        <mxCell id="Mz_XwUTkdrpt21qilwWO-258" value="activity_logs" style="shape=table;startSize=30;container=1;collapsible=1;childLayout=tableLayout;fixedRows=1;rowLines=0;fontStyle=1;align=center;resizeLast=1;html=1;strokeWidth=1;columnLines=0;rounded=0;shadow=0;swimlaneLine=1;fillColor=#fff2cc;strokeColor=#d6b656;" parent="1" vertex="1">
          <mxGeometry x="40" y="710" width="200" height="240" as="geometry">
            <mxRectangle x="60" y="610" width="70" height="30" as="alternateBounds" />
          </mxGeometry>
        </mxCell>
        <mxCell id="Mz_XwUTkdrpt21qilwWO-259" value="" style="shape=tableRow;horizontal=0;startSize=0;swimlaneHead=0;swimlaneBody=0;fillColor=none;collapsible=0;dropTarget=0;points=[[0,0.5],[1,0.5]];portConstraint=eastwest;top=0;left=0;right=0;bottom=0;swimlaneLine=1;container=1;rounded=0;shadow=0;strokeWidth=1;" parent="Mz_XwUTkdrpt21qilwWO-258" vertex="1">
          <mxGeometry y="30" width="200" height="30" as="geometry" />
        </mxCell>
        <mxCell id="Mz_XwUTkdrpt21qilwWO-260" value="&lt;span style=&quot;&quot;&gt;id&lt;/span&gt;" style="shape=partialRectangle;connectable=0;top=0;left=0;bottom=0;right=0;fontStyle=4;overflow=hidden;whiteSpace=wrap;html=1;align=left;strokeWidth=1;spacingRight=0;spacingLeft=8;" parent="Mz_XwUTkdrpt21qilwWO-259" vertex="1">
          <mxGeometry width="120" height="30" as="geometry">
            <mxRectangle width="120" height="30" as="alternateBounds" />
          </mxGeometry>
        </mxCell>
        <mxCell id="Mz_XwUTkdrpt21qilwWO-261" value="reference" style="shape=partialRectangle;connectable=0;top=0;left=0;bottom=0;right=0;align=right;spacingLeft=0;fontStyle=4;overflow=hidden;whiteSpace=wrap;html=1;strokeWidth=1;spacingRight=8;" parent="Mz_XwUTkdrpt21qilwWO-259" vertex="1">
          <mxGeometry x="120" width="80" height="30" as="geometry">
            <mxRectangle width="80" height="30" as="alternateBounds" />
          </mxGeometry>
        </mxCell>
        <mxCell id="Mz_XwUTkdrpt21qilwWO-262" value="" style="shape=tableRow;horizontal=0;startSize=0;swimlaneHead=0;swimlaneBody=0;fillColor=none;collapsible=0;dropTarget=0;points=[[0,0.5],[1,0.5]];portConstraint=eastwest;top=0;left=0;right=0;bottom=0;" parent="Mz_XwUTkdrpt21qilwWO-258" vertex="1">
          <mxGeometry y="60" width="200" height="30" as="geometry" />
        </mxCell>
        <mxCell id="Mz_XwUTkdrpt21qilwWO-263" value="participantRoleId" style="shape=partialRectangle;connectable=0;top=0;left=0;bottom=0;right=0;editable=1;overflow=hidden;whiteSpace=wrap;html=1;align=left;strokeWidth=1;spacingRight=0;spacingLeft=8;fontStyle=0" parent="Mz_XwUTkdrpt21qilwWO-262" vertex="1">
          <mxGeometry width="120" height="30" as="geometry">
            <mxRectangle width="120" height="30" as="alternateBounds" />
          </mxGeometry>
        </mxCell>
        <mxCell id="Mz_XwUTkdrpt21qilwWO-264" value="reference" style="shape=partialRectangle;connectable=0;top=0;left=0;bottom=0;right=0;align=right;spacingLeft=0;overflow=hidden;whiteSpace=wrap;html=1;strokeWidth=1;spacingRight=8;fontStyle=0" parent="Mz_XwUTkdrpt21qilwWO-262" vertex="1">
          <mxGeometry x="120" width="80" height="30" as="geometry">
            <mxRectangle width="80" height="30" as="alternateBounds" />
          </mxGeometry>
        </mxCell>
        <mxCell id="Mz_XwUTkdrpt21qilwWO-265" value="" style="shape=tableRow;horizontal=0;startSize=0;swimlaneHead=0;swimlaneBody=0;fillColor=none;collapsible=0;dropTarget=0;points=[[0,0.5],[1,0.5]];portConstraint=eastwest;top=0;left=0;right=0;bottom=0;" parent="Mz_XwUTkdrpt21qilwWO-258" vertex="1">
          <mxGeometry y="90" width="200" height="30" as="geometry" />
        </mxCell>
        <mxCell id="Mz_XwUTkdrpt21qilwWO-266" value="spokeCount" style="shape=partialRectangle;connectable=0;top=0;left=0;bottom=0;right=0;editable=1;overflow=hidden;whiteSpace=wrap;html=1;align=left;strokeWidth=1;spacingRight=0;spacingLeft=8;" parent="Mz_XwUTkdrpt21qilwWO-265" vertex="1">
          <mxGeometry width="120" height="30" as="geometry">
            <mxRectangle width="120" height="30" as="alternateBounds" />
          </mxGeometry>
        </mxCell>
        <mxCell id="Mz_XwUTkdrpt21qilwWO-267" value="int" style="shape=partialRectangle;connectable=0;top=0;left=0;bottom=0;right=0;align=right;spacingLeft=0;overflow=hidden;whiteSpace=wrap;html=1;strokeWidth=1;spacingRight=8;" parent="Mz_XwUTkdrpt21qilwWO-265" vertex="1">
          <mxGeometry x="120" width="80" height="30" as="geometry">
            <mxRectangle width="80" height="30" as="alternateBounds" />
          </mxGeometry>
        </mxCell>
        <mxCell id="Mz_XwUTkdrpt21qilwWO-274" value="" style="shape=tableRow;horizontal=0;startSize=0;swimlaneHead=0;swimlaneBody=0;fillColor=none;collapsible=0;dropTarget=0;points=[[0,0.5],[1,0.5]];portConstraint=eastwest;top=0;left=0;right=0;bottom=0;" parent="Mz_XwUTkdrpt21qilwWO-258" vertex="1">
          <mxGeometry y="120" width="200" height="30" as="geometry" />
        </mxCell>
        <mxCell id="Mz_XwUTkdrpt21qilwWO-275" value="frustratedCount" style="shape=partialRectangle;connectable=0;top=0;left=0;bottom=0;right=0;editable=1;overflow=hidden;whiteSpace=wrap;html=1;align=left;strokeWidth=1;spacingRight=0;spacingLeft=8;" parent="Mz_XwUTkdrpt21qilwWO-274" vertex="1">
          <mxGeometry width="120" height="30" as="geometry">
            <mxRectangle width="120" height="30" as="alternateBounds" />
          </mxGeometry>
        </mxCell>
        <mxCell id="Mz_XwUTkdrpt21qilwWO-276" value="int" style="shape=partialRectangle;connectable=0;top=0;left=0;bottom=0;right=0;align=right;spacingLeft=0;overflow=hidden;whiteSpace=wrap;html=1;strokeWidth=1;spacingRight=8;" parent="Mz_XwUTkdrpt21qilwWO-274" vertex="1">
          <mxGeometry x="120" width="80" height="30" as="geometry">
            <mxRectangle width="80" height="30" as="alternateBounds" />
          </mxGeometry>
        </mxCell>
        <mxCell id="Mz_XwUTkdrpt21qilwWO-277" value="" style="shape=tableRow;horizontal=0;startSize=0;swimlaneHead=0;swimlaneBody=0;fillColor=none;collapsible=0;dropTarget=0;points=[[0,0.5],[1,0.5]];portConstraint=eastwest;top=0;left=0;right=0;bottom=0;" parent="Mz_XwUTkdrpt21qilwWO-258" vertex="1">
          <mxGeometry y="150" width="200" height="30" as="geometry" />
        </mxCell>
        <mxCell id="Mz_XwUTkdrpt21qilwWO-278" value="boredCount" style="shape=partialRectangle;connectable=0;top=0;left=0;bottom=0;right=0;editable=1;overflow=hidden;whiteSpace=wrap;html=1;align=left;strokeWidth=1;spacingRight=0;spacingLeft=8;" parent="Mz_XwUTkdrpt21qilwWO-277" vertex="1">
          <mxGeometry width="120" height="30" as="geometry">
            <mxRectangle width="120" height="30" as="alternateBounds" />
          </mxGeometry>
        </mxCell>
        <mxCell id="Mz_XwUTkdrpt21qilwWO-279" value="int" style="shape=partialRectangle;connectable=0;top=0;left=0;bottom=0;right=0;align=right;spacingLeft=0;overflow=hidden;whiteSpace=wrap;html=1;strokeWidth=1;spacingRight=8;" parent="Mz_XwUTkdrpt21qilwWO-277" vertex="1">
          <mxGeometry x="120" width="80" height="30" as="geometry">
            <mxRectangle width="80" height="30" as="alternateBounds" />
          </mxGeometry>
        </mxCell>
        <mxCell id="Mz_XwUTkdrpt21qilwWO-268" value="" style="shape=tableRow;horizontal=0;startSize=0;swimlaneHead=0;swimlaneBody=0;fillColor=none;collapsible=0;dropTarget=0;points=[[0,0.5],[1,0.5]];portConstraint=eastwest;top=0;left=0;right=0;bottom=0;" parent="Mz_XwUTkdrpt21qilwWO-258" vertex="1">
          <mxGeometry y="180" width="200" height="30" as="geometry" />
        </mxCell>
        <mxCell id="Mz_XwUTkdrpt21qilwWO-269" value="created" style="shape=partialRectangle;connectable=0;top=0;left=0;bottom=0;right=0;editable=1;overflow=hidden;whiteSpace=wrap;html=1;align=left;strokeWidth=1;spacingRight=0;spacingLeft=8;" parent="Mz_XwUTkdrpt21qilwWO-268" vertex="1">
          <mxGeometry width="120" height="30" as="geometry">
            <mxRectangle width="120" height="30" as="alternateBounds" />
          </mxGeometry>
        </mxCell>
        <mxCell id="Mz_XwUTkdrpt21qilwWO-270" value="datetime" style="shape=partialRectangle;connectable=0;top=0;left=0;bottom=0;right=0;align=right;spacingLeft=0;overflow=hidden;whiteSpace=wrap;html=1;strokeWidth=1;spacingRight=8;" parent="Mz_XwUTkdrpt21qilwWO-268" vertex="1">
          <mxGeometry x="120" width="80" height="30" as="geometry">
            <mxRectangle width="80" height="30" as="alternateBounds" />
          </mxGeometry>
        </mxCell>
        <mxCell id="Mz_XwUTkdrpt21qilwWO-271" value="" style="shape=tableRow;horizontal=0;startSize=0;swimlaneHead=0;swimlaneBody=0;fillColor=none;collapsible=0;dropTarget=0;points=[[0,0.5],[1,0.5]];portConstraint=eastwest;top=0;left=0;right=0;bottom=0;rounded=0;" parent="Mz_XwUTkdrpt21qilwWO-258" vertex="1">
          <mxGeometry y="210" width="200" height="30" as="geometry" />
        </mxCell>
        <mxCell id="Mz_XwUTkdrpt21qilwWO-272" value="updated" style="shape=partialRectangle;connectable=0;top=0;left=0;bottom=0;right=0;editable=1;overflow=hidden;whiteSpace=wrap;html=1;align=left;strokeWidth=1;spacingRight=0;spacingLeft=8;" parent="Mz_XwUTkdrpt21qilwWO-271" vertex="1">
          <mxGeometry width="120" height="30" as="geometry">
            <mxRectangle width="120" height="30" as="alternateBounds" />
          </mxGeometry>
        </mxCell>
        <mxCell id="Mz_XwUTkdrpt21qilwWO-273" value="datetime" style="shape=partialRectangle;connectable=0;top=0;left=0;bottom=0;right=0;align=right;spacingLeft=0;overflow=hidden;whiteSpace=wrap;html=1;strokeWidth=1;spacingRight=8;" parent="Mz_XwUTkdrpt21qilwWO-271" vertex="1">
          <mxGeometry x="120" width="80" height="30" as="geometry">
            <mxRectangle width="80" height="30" as="alternateBounds" />
          </mxGeometry>
        </mxCell>
        <mxCell id="Mz_XwUTkdrpt21qilwWO-280" value="survey_responses" style="shape=table;startSize=30;container=1;collapsible=1;childLayout=tableLayout;fixedRows=1;rowLines=0;fontStyle=1;align=center;resizeLast=1;html=1;strokeWidth=1;columnLines=0;rounded=0;shadow=0;swimlaneLine=1;movable=1;resizable=1;rotatable=1;deletable=1;editable=1;locked=0;connectable=1;fillColor=#ffe6cc;strokeColor=#d79b00;" parent="1" vertex="1">
          <mxGeometry x="600" y="1360" width="200" height="210" as="geometry">
            <mxRectangle x="60" y="610" width="70" height="30" as="alternateBounds" />
          </mxGeometry>
        </mxCell>
        <mxCell id="Mz_XwUTkdrpt21qilwWO-281" value="" style="shape=tableRow;horizontal=0;startSize=0;swimlaneHead=0;swimlaneBody=0;fillColor=none;collapsible=0;dropTarget=0;points=[[0,0.5],[1,0.5]];portConstraint=eastwest;top=0;left=0;right=0;bottom=0;swimlaneLine=1;container=1;rounded=0;shadow=0;strokeWidth=1;" parent="Mz_XwUTkdrpt21qilwWO-280" vertex="1">
          <mxGeometry y="30" width="200" height="30" as="geometry" />
        </mxCell>
        <mxCell id="Mz_XwUTkdrpt21qilwWO-282" value="&lt;span style=&quot;&quot;&gt;id&lt;/span&gt;" style="shape=partialRectangle;connectable=0;top=0;left=0;bottom=0;right=0;fontStyle=4;overflow=hidden;whiteSpace=wrap;html=1;align=left;strokeWidth=1;spacingRight=0;spacingLeft=8;" parent="Mz_XwUTkdrpt21qilwWO-281" vertex="1">
          <mxGeometry width="120" height="30" as="geometry">
            <mxRectangle width="120" height="30" as="alternateBounds" />
          </mxGeometry>
        </mxCell>
        <mxCell id="Mz_XwUTkdrpt21qilwWO-283" value="reference" style="shape=partialRectangle;connectable=0;top=0;left=0;bottom=0;right=0;align=right;spacingLeft=0;fontStyle=4;overflow=hidden;whiteSpace=wrap;html=1;strokeWidth=1;spacingRight=8;" parent="Mz_XwUTkdrpt21qilwWO-281" vertex="1">
          <mxGeometry x="120" width="80" height="30" as="geometry">
            <mxRectangle width="80" height="30" as="alternateBounds" />
          </mxGeometry>
        </mxCell>
        <mxCell id="Mz_XwUTkdrpt21qilwWO-284" value="" style="shape=tableRow;horizontal=0;startSize=0;swimlaneHead=0;swimlaneBody=0;fillColor=none;collapsible=0;dropTarget=0;points=[[0,0.5],[1,0.5]];portConstraint=eastwest;top=0;left=0;right=0;bottom=0;" parent="Mz_XwUTkdrpt21qilwWO-280" vertex="1">
          <mxGeometry y="60" width="200" height="30" as="geometry" />
        </mxCell>
        <mxCell id="Mz_XwUTkdrpt21qilwWO-285" value="participantId" style="shape=partialRectangle;connectable=0;top=0;left=0;bottom=0;right=0;editable=1;overflow=hidden;whiteSpace=wrap;html=1;align=left;strokeWidth=1;spacingRight=0;spacingLeft=8;" parent="Mz_XwUTkdrpt21qilwWO-284" vertex="1">
          <mxGeometry width="120" height="30" as="geometry">
            <mxRectangle width="120" height="30" as="alternateBounds" />
          </mxGeometry>
        </mxCell>
        <mxCell id="Mz_XwUTkdrpt21qilwWO-286" value="reference" style="shape=partialRectangle;connectable=0;top=0;left=0;bottom=0;right=0;align=right;spacingLeft=0;overflow=hidden;whiteSpace=wrap;html=1;strokeWidth=1;spacingRight=8;" parent="Mz_XwUTkdrpt21qilwWO-284" vertex="1">
          <mxGeometry x="120" width="80" height="30" as="geometry">
            <mxRectangle width="80" height="30" as="alternateBounds" />
          </mxGeometry>
        </mxCell>
        <mxCell id="Mz_XwUTkdrpt21qilwWO-287" value="" style="shape=tableRow;horizontal=0;startSize=0;swimlaneHead=0;swimlaneBody=0;fillColor=none;collapsible=0;dropTarget=0;points=[[0,0.5],[1,0.5]];portConstraint=eastwest;top=0;left=0;right=0;bottom=0;" parent="Mz_XwUTkdrpt21qilwWO-280" vertex="1">
          <mxGeometry y="90" width="200" height="30" as="geometry" />
        </mxCell>
        <mxCell id="Mz_XwUTkdrpt21qilwWO-288" value="surveyId" style="shape=partialRectangle;connectable=0;top=0;left=0;bottom=0;right=0;editable=1;overflow=hidden;whiteSpace=wrap;html=1;align=left;strokeWidth=1;spacingRight=0;spacingLeft=8;" parent="Mz_XwUTkdrpt21qilwWO-287" vertex="1">
          <mxGeometry width="120" height="30" as="geometry">
            <mxRectangle width="120" height="30" as="alternateBounds" />
          </mxGeometry>
        </mxCell>
        <mxCell id="Mz_XwUTkdrpt21qilwWO-289" value="reference" style="shape=partialRectangle;connectable=0;top=0;left=0;bottom=0;right=0;align=right;spacingLeft=0;overflow=hidden;whiteSpace=wrap;html=1;strokeWidth=1;spacingRight=8;" parent="Mz_XwUTkdrpt21qilwWO-287" vertex="1">
          <mxGeometry x="120" width="80" height="30" as="geometry">
            <mxRectangle width="80" height="30" as="alternateBounds" />
          </mxGeometry>
        </mxCell>
        <mxCell id="Mz_XwUTkdrpt21qilwWO-447" value="" style="shape=tableRow;horizontal=0;startSize=0;swimlaneHead=0;swimlaneBody=0;fillColor=none;collapsible=0;dropTarget=0;points=[[0,0.5],[1,0.5]];portConstraint=eastwest;top=0;left=0;right=0;bottom=0;" parent="Mz_XwUTkdrpt21qilwWO-280" vertex="1">
          <mxGeometry y="120" width="200" height="30" as="geometry" />
        </mxCell>
        <mxCell id="Mz_XwUTkdrpt21qilwWO-448" value="completed" style="shape=partialRectangle;connectable=0;top=0;left=0;bottom=0;right=0;editable=1;overflow=hidden;whiteSpace=wrap;html=1;align=left;strokeWidth=1;spacingRight=0;spacingLeft=8;" parent="Mz_XwUTkdrpt21qilwWO-447" vertex="1">
          <mxGeometry width="120" height="30" as="geometry">
            <mxRectangle width="120" height="30" as="alternateBounds" />
          </mxGeometry>
        </mxCell>
        <mxCell id="Mz_XwUTkdrpt21qilwWO-449" value="bool" style="shape=partialRectangle;connectable=0;top=0;left=0;bottom=0;right=0;align=right;spacingLeft=0;overflow=hidden;whiteSpace=wrap;html=1;strokeWidth=1;spacingRight=8;" parent="Mz_XwUTkdrpt21qilwWO-447" vertex="1">
          <mxGeometry x="120" width="80" height="30" as="geometry">
            <mxRectangle width="80" height="30" as="alternateBounds" />
          </mxGeometry>
        </mxCell>
        <mxCell id="Mz_XwUTkdrpt21qilwWO-290" value="" style="shape=tableRow;horizontal=0;startSize=0;swimlaneHead=0;swimlaneBody=0;fillColor=none;collapsible=0;dropTarget=0;points=[[0,0.5],[1,0.5]];portConstraint=eastwest;top=0;left=0;right=0;bottom=0;rounded=0;" parent="Mz_XwUTkdrpt21qilwWO-280" vertex="1">
          <mxGeometry y="150" width="200" height="30" as="geometry" />
        </mxCell>
        <mxCell id="Mz_XwUTkdrpt21qilwWO-291" value="created" style="shape=partialRectangle;connectable=0;top=0;left=0;bottom=0;right=0;editable=1;overflow=hidden;whiteSpace=wrap;html=1;align=left;strokeWidth=1;spacingRight=0;spacingLeft=8;" parent="Mz_XwUTkdrpt21qilwWO-290" vertex="1">
          <mxGeometry width="120" height="30" as="geometry">
            <mxRectangle width="120" height="30" as="alternateBounds" />
          </mxGeometry>
        </mxCell>
        <mxCell id="Mz_XwUTkdrpt21qilwWO-292" value="datetime" style="shape=partialRectangle;connectable=0;top=0;left=0;bottom=0;right=0;align=right;spacingLeft=0;overflow=hidden;whiteSpace=wrap;html=1;strokeWidth=1;spacingRight=8;" parent="Mz_XwUTkdrpt21qilwWO-290" vertex="1">
          <mxGeometry x="120" width="80" height="30" as="geometry">
            <mxRectangle width="80" height="30" as="alternateBounds" />
          </mxGeometry>
        </mxCell>
        <mxCell id="Mz_XwUTkdrpt21qilwWO-293" value="" style="shape=tableRow;horizontal=0;startSize=0;swimlaneHead=0;swimlaneBody=0;fillColor=none;collapsible=0;dropTarget=0;points=[[0,0.5],[1,0.5]];portConstraint=eastwest;top=0;left=0;right=0;bottom=0;rounded=0;" parent="Mz_XwUTkdrpt21qilwWO-280" vertex="1">
          <mxGeometry y="180" width="200" height="30" as="geometry" />
        </mxCell>
        <mxCell id="Mz_XwUTkdrpt21qilwWO-294" value="updated" style="shape=partialRectangle;connectable=0;top=0;left=0;bottom=0;right=0;editable=1;overflow=hidden;whiteSpace=wrap;html=1;align=left;strokeWidth=1;spacingRight=0;spacingLeft=8;" parent="Mz_XwUTkdrpt21qilwWO-293" vertex="1">
          <mxGeometry width="120" height="30" as="geometry">
            <mxRectangle width="120" height="30" as="alternateBounds" />
          </mxGeometry>
        </mxCell>
        <mxCell id="Mz_XwUTkdrpt21qilwWO-295" value="datetime" style="shape=partialRectangle;connectable=0;top=0;left=0;bottom=0;right=0;align=right;spacingLeft=0;overflow=hidden;whiteSpace=wrap;html=1;strokeWidth=1;spacingRight=8;" parent="Mz_XwUTkdrpt21qilwWO-293" vertex="1">
          <mxGeometry x="120" width="80" height="30" as="geometry">
            <mxRectangle width="80" height="30" as="alternateBounds" />
          </mxGeometry>
        </mxCell>
        <mxCell id="Mz_XwUTkdrpt21qilwWO-296" value="surveys" style="shape=table;startSize=30;container=1;collapsible=1;childLayout=tableLayout;fixedRows=1;rowLines=0;fontStyle=1;align=center;resizeLast=1;html=1;strokeWidth=1;columnLines=0;rounded=0;shadow=0;swimlaneLine=1;fillColor=#ffe6cc;strokeColor=#d79b00;" parent="1" vertex="1">
          <mxGeometry x="880" y="1200" width="200" height="150" as="geometry">
            <mxRectangle x="60" y="610" width="70" height="30" as="alternateBounds" />
          </mxGeometry>
        </mxCell>
        <mxCell id="Mz_XwUTkdrpt21qilwWO-297" value="" style="shape=tableRow;horizontal=0;startSize=0;swimlaneHead=0;swimlaneBody=0;fillColor=none;collapsible=0;dropTarget=0;points=[[0,0.5],[1,0.5]];portConstraint=eastwest;top=0;left=0;right=0;bottom=0;swimlaneLine=1;container=1;rounded=0;shadow=0;strokeWidth=1;" parent="Mz_XwUTkdrpt21qilwWO-296" vertex="1">
          <mxGeometry y="30" width="200" height="30" as="geometry" />
        </mxCell>
        <mxCell id="Mz_XwUTkdrpt21qilwWO-298" value="&lt;span style=&quot;&quot;&gt;id&lt;/span&gt;" style="shape=partialRectangle;connectable=0;top=0;left=0;bottom=0;right=0;fontStyle=4;overflow=hidden;whiteSpace=wrap;html=1;align=left;strokeWidth=1;spacingRight=0;spacingLeft=8;" parent="Mz_XwUTkdrpt21qilwWO-297" vertex="1">
          <mxGeometry width="120" height="30" as="geometry">
            <mxRectangle width="120" height="30" as="alternateBounds" />
          </mxGeometry>
        </mxCell>
        <mxCell id="Mz_XwUTkdrpt21qilwWO-299" value="reference" style="shape=partialRectangle;connectable=0;top=0;left=0;bottom=0;right=0;align=right;spacingLeft=0;fontStyle=4;overflow=hidden;whiteSpace=wrap;html=1;strokeWidth=1;spacingRight=8;" parent="Mz_XwUTkdrpt21qilwWO-297" vertex="1">
          <mxGeometry x="120" width="80" height="30" as="geometry">
            <mxRectangle width="80" height="30" as="alternateBounds" />
          </mxGeometry>
        </mxCell>
        <mxCell id="Mz_XwUTkdrpt21qilwWO-303" value="" style="shape=tableRow;horizontal=0;startSize=0;swimlaneHead=0;swimlaneBody=0;fillColor=none;collapsible=0;dropTarget=0;points=[[0,0.5],[1,0.5]];portConstraint=eastwest;top=0;left=0;right=0;bottom=0;" parent="Mz_XwUTkdrpt21qilwWO-296" vertex="1">
          <mxGeometry y="60" width="200" height="30" as="geometry" />
        </mxCell>
        <mxCell id="Mz_XwUTkdrpt21qilwWO-304" value="name" style="shape=partialRectangle;connectable=0;top=0;left=0;bottom=0;right=0;editable=1;overflow=hidden;whiteSpace=wrap;html=1;align=left;strokeWidth=1;spacingRight=0;spacingLeft=8;" parent="Mz_XwUTkdrpt21qilwWO-303" vertex="1">
          <mxGeometry width="120" height="30" as="geometry">
            <mxRectangle width="120" height="30" as="alternateBounds" />
          </mxGeometry>
        </mxCell>
        <mxCell id="Mz_XwUTkdrpt21qilwWO-305" value="string" style="shape=partialRectangle;connectable=0;top=0;left=0;bottom=0;right=0;align=right;spacingLeft=0;overflow=hidden;whiteSpace=wrap;html=1;strokeWidth=1;spacingRight=8;" parent="Mz_XwUTkdrpt21qilwWO-303" vertex="1">
          <mxGeometry x="120" width="80" height="30" as="geometry">
            <mxRectangle width="80" height="30" as="alternateBounds" />
          </mxGeometry>
        </mxCell>
        <mxCell id="Mz_XwUTkdrpt21qilwWO-306" value="" style="shape=tableRow;horizontal=0;startSize=0;swimlaneHead=0;swimlaneBody=0;fillColor=none;collapsible=0;dropTarget=0;points=[[0,0.5],[1,0.5]];portConstraint=eastwest;top=0;left=0;right=0;bottom=0;rounded=0;" parent="Mz_XwUTkdrpt21qilwWO-296" vertex="1">
          <mxGeometry y="90" width="200" height="30" as="geometry" />
        </mxCell>
        <mxCell id="Mz_XwUTkdrpt21qilwWO-307" value="created" style="shape=partialRectangle;connectable=0;top=0;left=0;bottom=0;right=0;editable=1;overflow=hidden;whiteSpace=wrap;html=1;align=left;strokeWidth=1;spacingRight=0;spacingLeft=8;" parent="Mz_XwUTkdrpt21qilwWO-306" vertex="1">
          <mxGeometry width="120" height="30" as="geometry">
            <mxRectangle width="120" height="30" as="alternateBounds" />
          </mxGeometry>
        </mxCell>
        <mxCell id="Mz_XwUTkdrpt21qilwWO-308" value="datetime" style="shape=partialRectangle;connectable=0;top=0;left=0;bottom=0;right=0;align=right;spacingLeft=0;overflow=hidden;whiteSpace=wrap;html=1;strokeWidth=1;spacingRight=8;" parent="Mz_XwUTkdrpt21qilwWO-306" vertex="1">
          <mxGeometry x="120" width="80" height="30" as="geometry">
            <mxRectangle width="80" height="30" as="alternateBounds" />
          </mxGeometry>
        </mxCell>
        <mxCell id="Mz_XwUTkdrpt21qilwWO-309" value="" style="shape=tableRow;horizontal=0;startSize=0;swimlaneHead=0;swimlaneBody=0;fillColor=none;collapsible=0;dropTarget=0;points=[[0,0.5],[1,0.5]];portConstraint=eastwest;top=0;left=0;right=0;bottom=0;rounded=0;" parent="Mz_XwUTkdrpt21qilwWO-296" vertex="1">
          <mxGeometry y="120" width="200" height="30" as="geometry" />
        </mxCell>
        <mxCell id="Mz_XwUTkdrpt21qilwWO-310" value="updated" style="shape=partialRectangle;connectable=0;top=0;left=0;bottom=0;right=0;editable=1;overflow=hidden;whiteSpace=wrap;html=1;align=left;strokeWidth=1;spacingRight=0;spacingLeft=8;" parent="Mz_XwUTkdrpt21qilwWO-309" vertex="1">
          <mxGeometry width="120" height="30" as="geometry">
            <mxRectangle width="120" height="30" as="alternateBounds" />
          </mxGeometry>
        </mxCell>
        <mxCell id="Mz_XwUTkdrpt21qilwWO-311" value="datetime" style="shape=partialRectangle;connectable=0;top=0;left=0;bottom=0;right=0;align=right;spacingLeft=0;overflow=hidden;whiteSpace=wrap;html=1;strokeWidth=1;spacingRight=8;" parent="Mz_XwUTkdrpt21qilwWO-309" vertex="1">
          <mxGeometry x="120" width="80" height="30" as="geometry">
            <mxRectangle width="80" height="30" as="alternateBounds" />
          </mxGeometry>
        </mxCell>
        <mxCell id="Mz_XwUTkdrpt21qilwWO-312" value="survey_questions" style="shape=table;startSize=30;container=1;collapsible=1;childLayout=tableLayout;fixedRows=1;rowLines=0;fontStyle=1;align=center;resizeLast=1;html=1;strokeWidth=1;columnLines=0;rounded=0;shadow=0;swimlaneLine=1;fillColor=#ffe6cc;strokeColor=#d79b00;" parent="1" vertex="1">
          <mxGeometry x="880" y="1390" width="200" height="180" as="geometry">
            <mxRectangle x="60" y="610" width="70" height="30" as="alternateBounds" />
          </mxGeometry>
        </mxCell>
        <mxCell id="Mz_XwUTkdrpt21qilwWO-313" value="" style="shape=tableRow;horizontal=0;startSize=0;swimlaneHead=0;swimlaneBody=0;fillColor=none;collapsible=0;dropTarget=0;points=[[0,0.5],[1,0.5]];portConstraint=eastwest;top=0;left=0;right=0;bottom=0;swimlaneLine=1;container=1;rounded=0;shadow=0;strokeWidth=1;" parent="Mz_XwUTkdrpt21qilwWO-312" vertex="1">
          <mxGeometry y="30" width="200" height="30" as="geometry" />
        </mxCell>
        <mxCell id="Mz_XwUTkdrpt21qilwWO-314" value="&lt;span style=&quot;&quot;&gt;id&lt;/span&gt;" style="shape=partialRectangle;connectable=0;top=0;left=0;bottom=0;right=0;fontStyle=4;overflow=hidden;whiteSpace=wrap;html=1;align=left;strokeWidth=1;spacingRight=0;spacingLeft=8;" parent="Mz_XwUTkdrpt21qilwWO-313" vertex="1">
          <mxGeometry width="120" height="30" as="geometry">
            <mxRectangle width="120" height="30" as="alternateBounds" />
          </mxGeometry>
        </mxCell>
        <mxCell id="Mz_XwUTkdrpt21qilwWO-315" value="reference" style="shape=partialRectangle;connectable=0;top=0;left=0;bottom=0;right=0;align=right;spacingLeft=0;fontStyle=4;overflow=hidden;whiteSpace=wrap;html=1;strokeWidth=1;spacingRight=8;" parent="Mz_XwUTkdrpt21qilwWO-313" vertex="1">
          <mxGeometry x="120" width="80" height="30" as="geometry">
            <mxRectangle width="80" height="30" as="alternateBounds" />
          </mxGeometry>
        </mxCell>
        <mxCell id="Mz_XwUTkdrpt21qilwWO-316" value="" style="shape=tableRow;horizontal=0;startSize=0;swimlaneHead=0;swimlaneBody=0;fillColor=none;collapsible=0;dropTarget=0;points=[[0,0.5],[1,0.5]];portConstraint=eastwest;top=0;left=0;right=0;bottom=0;" parent="Mz_XwUTkdrpt21qilwWO-312" vertex="1">
          <mxGeometry y="60" width="200" height="30" as="geometry" />
        </mxCell>
        <mxCell id="Mz_XwUTkdrpt21qilwWO-317" value="surveyId" style="shape=partialRectangle;connectable=0;top=0;left=0;bottom=0;right=0;editable=1;overflow=hidden;whiteSpace=wrap;html=1;align=left;strokeWidth=1;spacingRight=0;spacingLeft=8;" parent="Mz_XwUTkdrpt21qilwWO-316" vertex="1">
          <mxGeometry width="120" height="30" as="geometry">
            <mxRectangle width="120" height="30" as="alternateBounds" />
          </mxGeometry>
        </mxCell>
        <mxCell id="Mz_XwUTkdrpt21qilwWO-318" value="reference" style="shape=partialRectangle;connectable=0;top=0;left=0;bottom=0;right=0;align=right;spacingLeft=0;overflow=hidden;whiteSpace=wrap;html=1;strokeWidth=1;spacingRight=8;" parent="Mz_XwUTkdrpt21qilwWO-316" vertex="1">
          <mxGeometry x="120" width="80" height="30" as="geometry">
            <mxRectangle width="80" height="30" as="alternateBounds" />
          </mxGeometry>
        </mxCell>
        <mxCell id="Mz_XwUTkdrpt21qilwWO-319" value="" style="shape=tableRow;horizontal=0;startSize=0;swimlaneHead=0;swimlaneBody=0;fillColor=none;collapsible=0;dropTarget=0;points=[[0,0.5],[1,0.5]];portConstraint=eastwest;top=0;left=0;right=0;bottom=0;" parent="Mz_XwUTkdrpt21qilwWO-312" vertex="1">
          <mxGeometry y="90" width="200" height="30" as="geometry" />
        </mxCell>
        <mxCell id="Mz_XwUTkdrpt21qilwWO-320" value="questionId" style="shape=partialRectangle;connectable=0;top=0;left=0;bottom=0;right=0;editable=1;overflow=hidden;whiteSpace=wrap;html=1;align=left;strokeWidth=1;spacingRight=0;spacingLeft=8;" parent="Mz_XwUTkdrpt21qilwWO-319" vertex="1">
          <mxGeometry width="120" height="30" as="geometry">
            <mxRectangle width="120" height="30" as="alternateBounds" />
          </mxGeometry>
        </mxCell>
        <mxCell id="Mz_XwUTkdrpt21qilwWO-321" value="reference" style="shape=partialRectangle;connectable=0;top=0;left=0;bottom=0;right=0;align=right;spacingLeft=0;overflow=hidden;whiteSpace=wrap;html=1;strokeWidth=1;spacingRight=8;" parent="Mz_XwUTkdrpt21qilwWO-319" vertex="1">
          <mxGeometry x="120" width="80" height="30" as="geometry">
            <mxRectangle width="80" height="30" as="alternateBounds" />
          </mxGeometry>
        </mxCell>
        <mxCell id="Mz_XwUTkdrpt21qilwWO-322" value="" style="shape=tableRow;horizontal=0;startSize=0;swimlaneHead=0;swimlaneBody=0;fillColor=none;collapsible=0;dropTarget=0;points=[[0,0.5],[1,0.5]];portConstraint=eastwest;top=0;left=0;right=0;bottom=0;rounded=0;" parent="Mz_XwUTkdrpt21qilwWO-312" vertex="1">
          <mxGeometry y="120" width="200" height="30" as="geometry" />
        </mxCell>
        <mxCell id="Mz_XwUTkdrpt21qilwWO-323" value="created" style="shape=partialRectangle;connectable=0;top=0;left=0;bottom=0;right=0;editable=1;overflow=hidden;whiteSpace=wrap;html=1;align=left;strokeWidth=1;spacingRight=0;spacingLeft=8;" parent="Mz_XwUTkdrpt21qilwWO-322" vertex="1">
          <mxGeometry width="120" height="30" as="geometry">
            <mxRectangle width="120" height="30" as="alternateBounds" />
          </mxGeometry>
        </mxCell>
        <mxCell id="Mz_XwUTkdrpt21qilwWO-324" value="datetime" style="shape=partialRectangle;connectable=0;top=0;left=0;bottom=0;right=0;align=right;spacingLeft=0;overflow=hidden;whiteSpace=wrap;html=1;strokeWidth=1;spacingRight=8;" parent="Mz_XwUTkdrpt21qilwWO-322" vertex="1">
          <mxGeometry x="120" width="80" height="30" as="geometry">
            <mxRectangle width="80" height="30" as="alternateBounds" />
          </mxGeometry>
        </mxCell>
        <mxCell id="Mz_XwUTkdrpt21qilwWO-325" value="" style="shape=tableRow;horizontal=0;startSize=0;swimlaneHead=0;swimlaneBody=0;fillColor=none;collapsible=0;dropTarget=0;points=[[0,0.5],[1,0.5]];portConstraint=eastwest;top=0;left=0;right=0;bottom=0;rounded=0;" parent="Mz_XwUTkdrpt21qilwWO-312" vertex="1">
          <mxGeometry y="150" width="200" height="30" as="geometry" />
        </mxCell>
        <mxCell id="Mz_XwUTkdrpt21qilwWO-326" value="updated" style="shape=partialRectangle;connectable=0;top=0;left=0;bottom=0;right=0;editable=1;overflow=hidden;whiteSpace=wrap;html=1;align=left;strokeWidth=1;spacingRight=0;spacingLeft=8;" parent="Mz_XwUTkdrpt21qilwWO-325" vertex="1">
          <mxGeometry width="120" height="30" as="geometry">
            <mxRectangle width="120" height="30" as="alternateBounds" />
          </mxGeometry>
        </mxCell>
        <mxCell id="Mz_XwUTkdrpt21qilwWO-327" value="datetime" style="shape=partialRectangle;connectable=0;top=0;left=0;bottom=0;right=0;align=right;spacingLeft=0;overflow=hidden;whiteSpace=wrap;html=1;strokeWidth=1;spacingRight=8;" parent="Mz_XwUTkdrpt21qilwWO-325" vertex="1">
          <mxGeometry x="120" width="80" height="30" as="geometry">
            <mxRectangle width="80" height="30" as="alternateBounds" />
          </mxGeometry>
        </mxCell>
        <mxCell id="Mz_XwUTkdrpt21qilwWO-328" value="questions" style="shape=table;startSize=30;container=1;collapsible=1;childLayout=tableLayout;fixedRows=1;rowLines=0;fontStyle=1;align=center;resizeLast=1;html=1;strokeWidth=1;columnLines=0;rounded=0;shadow=0;swimlaneLine=1;fillColor=#ffe6cc;strokeColor=#d79b00;" parent="1" vertex="1">
          <mxGeometry x="880" y="1610" width="200" height="270" as="geometry">
            <mxRectangle x="60" y="610" width="70" height="30" as="alternateBounds" />
          </mxGeometry>
        </mxCell>
        <mxCell id="Mz_XwUTkdrpt21qilwWO-329" value="" style="shape=tableRow;horizontal=0;startSize=0;swimlaneHead=0;swimlaneBody=0;fillColor=none;collapsible=0;dropTarget=0;points=[[0,0.5],[1,0.5]];portConstraint=eastwest;top=0;left=0;right=0;bottom=0;swimlaneLine=1;container=1;rounded=0;shadow=0;strokeWidth=1;" parent="Mz_XwUTkdrpt21qilwWO-328" vertex="1">
          <mxGeometry y="30" width="200" height="30" as="geometry" />
        </mxCell>
        <mxCell id="Mz_XwUTkdrpt21qilwWO-330" value="&lt;span style=&quot;&quot;&gt;id&lt;/span&gt;" style="shape=partialRectangle;connectable=0;top=0;left=0;bottom=0;right=0;fontStyle=4;overflow=hidden;whiteSpace=wrap;html=1;align=left;strokeWidth=1;spacingRight=0;spacingLeft=8;" parent="Mz_XwUTkdrpt21qilwWO-329" vertex="1">
          <mxGeometry width="120" height="30" as="geometry">
            <mxRectangle width="120" height="30" as="alternateBounds" />
          </mxGeometry>
        </mxCell>
        <mxCell id="Mz_XwUTkdrpt21qilwWO-331" value="reference" style="shape=partialRectangle;connectable=0;top=0;left=0;bottom=0;right=0;align=right;spacingLeft=0;fontStyle=4;overflow=hidden;whiteSpace=wrap;html=1;strokeWidth=1;spacingRight=8;" parent="Mz_XwUTkdrpt21qilwWO-329" vertex="1">
          <mxGeometry x="120" width="80" height="30" as="geometry">
            <mxRectangle width="80" height="30" as="alternateBounds" />
          </mxGeometry>
        </mxCell>
        <mxCell id="Mz_XwUTkdrpt21qilwWO-332" value="" style="shape=tableRow;horizontal=0;startSize=0;swimlaneHead=0;swimlaneBody=0;fillColor=none;collapsible=0;dropTarget=0;points=[[0,0.5],[1,0.5]];portConstraint=eastwest;top=0;left=0;right=0;bottom=0;" parent="Mz_XwUTkdrpt21qilwWO-328" vertex="1">
          <mxGeometry y="60" width="200" height="30" as="geometry" />
        </mxCell>
        <mxCell id="Mz_XwUTkdrpt21qilwWO-333" value="name" style="shape=partialRectangle;connectable=0;top=0;left=0;bottom=0;right=0;editable=1;overflow=hidden;whiteSpace=wrap;html=1;align=left;strokeWidth=1;spacingRight=0;spacingLeft=8;" parent="Mz_XwUTkdrpt21qilwWO-332" vertex="1">
          <mxGeometry width="120" height="30" as="geometry">
            <mxRectangle width="120" height="30" as="alternateBounds" />
          </mxGeometry>
        </mxCell>
        <mxCell id="Mz_XwUTkdrpt21qilwWO-334" value="string" style="shape=partialRectangle;connectable=0;top=0;left=0;bottom=0;right=0;align=right;spacingLeft=0;overflow=hidden;whiteSpace=wrap;html=1;strokeWidth=1;spacingRight=8;" parent="Mz_XwUTkdrpt21qilwWO-332" vertex="1">
          <mxGeometry x="120" width="80" height="30" as="geometry">
            <mxRectangle width="80" height="30" as="alternateBounds" />
          </mxGeometry>
        </mxCell>
        <mxCell id="Mz_XwUTkdrpt21qilwWO-335" value="" style="shape=tableRow;horizontal=0;startSize=0;swimlaneHead=0;swimlaneBody=0;fillColor=none;collapsible=0;dropTarget=0;points=[[0,0.5],[1,0.5]];portConstraint=eastwest;top=0;left=0;right=0;bottom=0;" parent="Mz_XwUTkdrpt21qilwWO-328" vertex="1">
          <mxGeometry y="90" width="200" height="30" as="geometry" />
        </mxCell>
        <mxCell id="Mz_XwUTkdrpt21qilwWO-336" value="text" style="shape=partialRectangle;connectable=0;top=0;left=0;bottom=0;right=0;editable=1;overflow=hidden;whiteSpace=wrap;html=1;align=left;strokeWidth=1;spacingRight=0;spacingLeft=8;" parent="Mz_XwUTkdrpt21qilwWO-335" vertex="1">
          <mxGeometry width="120" height="30" as="geometry">
            <mxRectangle width="120" height="30" as="alternateBounds" />
          </mxGeometry>
        </mxCell>
        <mxCell id="Mz_XwUTkdrpt21qilwWO-337" value="string" style="shape=partialRectangle;connectable=0;top=0;left=0;bottom=0;right=0;align=right;spacingLeft=0;overflow=hidden;whiteSpace=wrap;html=1;strokeWidth=1;spacingRight=8;" parent="Mz_XwUTkdrpt21qilwWO-335" vertex="1">
          <mxGeometry x="120" width="80" height="30" as="geometry">
            <mxRectangle width="80" height="30" as="alternateBounds" />
          </mxGeometry>
        </mxCell>
        <mxCell id="8-hDoOB4yc0p_dm7sISC-1" value="" style="shape=tableRow;horizontal=0;startSize=0;swimlaneHead=0;swimlaneBody=0;fillColor=none;collapsible=0;dropTarget=0;points=[[0,0.5],[1,0.5]];portConstraint=eastwest;top=0;left=0;right=0;bottom=0;" vertex="1" parent="Mz_XwUTkdrpt21qilwWO-328">
          <mxGeometry y="120" width="200" height="30" as="geometry" />
        </mxCell>
        <mxCell id="8-hDoOB4yc0p_dm7sISC-2" value="choices" style="shape=partialRectangle;connectable=0;top=0;left=0;bottom=0;right=0;editable=1;overflow=hidden;whiteSpace=wrap;html=1;align=left;strokeWidth=1;spacingRight=0;spacingLeft=8;" vertex="1" parent="8-hDoOB4yc0p_dm7sISC-1">
          <mxGeometry width="120" height="30" as="geometry">
            <mxRectangle width="120" height="30" as="alternateBounds" />
          </mxGeometry>
        </mxCell>
        <mxCell id="8-hDoOB4yc0p_dm7sISC-3" value="json" style="shape=partialRectangle;connectable=0;top=0;left=0;bottom=0;right=0;align=right;spacingLeft=0;overflow=hidden;whiteSpace=wrap;html=1;strokeWidth=1;spacingRight=8;" vertex="1" parent="8-hDoOB4yc0p_dm7sISC-1">
          <mxGeometry x="120" width="80" height="30" as="geometry">
            <mxRectangle width="80" height="30" as="alternateBounds" />
          </mxGeometry>
        </mxCell>
        <mxCell id="Mz_XwUTkdrpt21qilwWO-344" value="" style="shape=tableRow;horizontal=0;startSize=0;swimlaneHead=0;swimlaneBody=0;fillColor=none;collapsible=0;dropTarget=0;points=[[0,0.5],[1,0.5]];portConstraint=eastwest;top=0;left=0;right=0;bottom=0;" parent="Mz_XwUTkdrpt21qilwWO-328" vertex="1">
          <mxGeometry y="150" width="200" height="30" as="geometry" />
        </mxCell>
        <mxCell id="Mz_XwUTkdrpt21qilwWO-345" value="required" style="shape=partialRectangle;connectable=0;top=0;left=0;bottom=0;right=0;editable=1;overflow=hidden;whiteSpace=wrap;html=1;align=left;strokeWidth=1;spacingRight=0;spacingLeft=8;" parent="Mz_XwUTkdrpt21qilwWO-344" vertex="1">
          <mxGeometry width="120" height="30" as="geometry">
            <mxRectangle width="120" height="30" as="alternateBounds" />
          </mxGeometry>
        </mxCell>
        <mxCell id="Mz_XwUTkdrpt21qilwWO-346" value="bool" style="shape=partialRectangle;connectable=0;top=0;left=0;bottom=0;right=0;align=right;spacingLeft=0;overflow=hidden;whiteSpace=wrap;html=1;strokeWidth=1;spacingRight=8;" parent="Mz_XwUTkdrpt21qilwWO-344" vertex="1">
          <mxGeometry x="120" width="80" height="30" as="geometry">
            <mxRectangle width="80" height="30" as="alternateBounds" />
          </mxGeometry>
        </mxCell>
        <mxCell id="Mz_XwUTkdrpt21qilwWO-450" value="" style="shape=tableRow;horizontal=0;startSize=0;swimlaneHead=0;swimlaneBody=0;fillColor=none;collapsible=0;dropTarget=0;points=[[0,0.5],[1,0.5]];portConstraint=eastwest;top=0;left=0;right=0;bottom=0;" parent="Mz_XwUTkdrpt21qilwWO-328" vertex="1">
          <mxGeometry y="180" width="200" height="30" as="geometry" />
        </mxCell>
        <mxCell id="Mz_XwUTkdrpt21qilwWO-451" value="questionTypeId" style="shape=partialRectangle;connectable=0;top=0;left=0;bottom=0;right=0;editable=1;overflow=hidden;whiteSpace=wrap;html=1;align=left;strokeWidth=1;spacingRight=0;spacingLeft=8;" parent="Mz_XwUTkdrpt21qilwWO-450" vertex="1">
          <mxGeometry width="120" height="30" as="geometry">
            <mxRectangle width="120" height="30" as="alternateBounds" />
          </mxGeometry>
        </mxCell>
        <mxCell id="Mz_XwUTkdrpt21qilwWO-452" value="reference" style="shape=partialRectangle;connectable=0;top=0;left=0;bottom=0;right=0;align=right;spacingLeft=0;overflow=hidden;whiteSpace=wrap;html=1;strokeWidth=1;spacingRight=8;" parent="Mz_XwUTkdrpt21qilwWO-450" vertex="1">
          <mxGeometry x="120" width="80" height="30" as="geometry">
            <mxRectangle width="80" height="30" as="alternateBounds" />
          </mxGeometry>
        </mxCell>
        <mxCell id="Mz_XwUTkdrpt21qilwWO-338" value="" style="shape=tableRow;horizontal=0;startSize=0;swimlaneHead=0;swimlaneBody=0;fillColor=none;collapsible=0;dropTarget=0;points=[[0,0.5],[1,0.5]];portConstraint=eastwest;top=0;left=0;right=0;bottom=0;rounded=0;" parent="Mz_XwUTkdrpt21qilwWO-328" vertex="1">
          <mxGeometry y="210" width="200" height="30" as="geometry" />
        </mxCell>
        <mxCell id="Mz_XwUTkdrpt21qilwWO-339" value="created" style="shape=partialRectangle;connectable=0;top=0;left=0;bottom=0;right=0;editable=1;overflow=hidden;whiteSpace=wrap;html=1;align=left;strokeWidth=1;spacingRight=0;spacingLeft=8;" parent="Mz_XwUTkdrpt21qilwWO-338" vertex="1">
          <mxGeometry width="120" height="30" as="geometry">
            <mxRectangle width="120" height="30" as="alternateBounds" />
          </mxGeometry>
        </mxCell>
        <mxCell id="Mz_XwUTkdrpt21qilwWO-340" value="datetime" style="shape=partialRectangle;connectable=0;top=0;left=0;bottom=0;right=0;align=right;spacingLeft=0;overflow=hidden;whiteSpace=wrap;html=1;strokeWidth=1;spacingRight=8;" parent="Mz_XwUTkdrpt21qilwWO-338" vertex="1">
          <mxGeometry x="120" width="80" height="30" as="geometry">
            <mxRectangle width="80" height="30" as="alternateBounds" />
          </mxGeometry>
        </mxCell>
        <mxCell id="Mz_XwUTkdrpt21qilwWO-341" value="" style="shape=tableRow;horizontal=0;startSize=0;swimlaneHead=0;swimlaneBody=0;fillColor=none;collapsible=0;dropTarget=0;points=[[0,0.5],[1,0.5]];portConstraint=eastwest;top=0;left=0;right=0;bottom=0;rounded=0;" parent="Mz_XwUTkdrpt21qilwWO-328" vertex="1">
          <mxGeometry y="240" width="200" height="30" as="geometry" />
        </mxCell>
        <mxCell id="Mz_XwUTkdrpt21qilwWO-342" value="updated" style="shape=partialRectangle;connectable=0;top=0;left=0;bottom=0;right=0;editable=1;overflow=hidden;whiteSpace=wrap;html=1;align=left;strokeWidth=1;spacingRight=0;spacingLeft=8;" parent="Mz_XwUTkdrpt21qilwWO-341" vertex="1">
          <mxGeometry width="120" height="30" as="geometry">
            <mxRectangle width="120" height="30" as="alternateBounds" />
          </mxGeometry>
        </mxCell>
        <mxCell id="Mz_XwUTkdrpt21qilwWO-343" value="datetime" style="shape=partialRectangle;connectable=0;top=0;left=0;bottom=0;right=0;align=right;spacingLeft=0;overflow=hidden;whiteSpace=wrap;html=1;strokeWidth=1;spacingRight=8;" parent="Mz_XwUTkdrpt21qilwWO-341" vertex="1">
          <mxGeometry x="120" width="80" height="30" as="geometry">
            <mxRectangle width="80" height="30" as="alternateBounds" />
          </mxGeometry>
        </mxCell>
        <mxCell id="Mz_XwUTkdrpt21qilwWO-347" value="question_types" style="shape=table;startSize=30;container=1;collapsible=1;childLayout=tableLayout;fixedRows=1;rowLines=0;fontStyle=1;align=center;resizeLast=1;html=1;strokeWidth=1;columnLines=0;rounded=0;shadow=0;swimlaneLine=1;fillColor=#ffe6cc;strokeColor=#d79b00;" parent="1" vertex="1">
          <mxGeometry x="320" y="1670" width="200" height="150" as="geometry">
            <mxRectangle x="60" y="610" width="70" height="30" as="alternateBounds" />
          </mxGeometry>
        </mxCell>
        <mxCell id="Mz_XwUTkdrpt21qilwWO-348" value="" style="shape=tableRow;horizontal=0;startSize=0;swimlaneHead=0;swimlaneBody=0;fillColor=none;collapsible=0;dropTarget=0;points=[[0,0.5],[1,0.5]];portConstraint=eastwest;top=0;left=0;right=0;bottom=0;swimlaneLine=1;container=1;rounded=0;shadow=0;strokeWidth=1;" parent="Mz_XwUTkdrpt21qilwWO-347" vertex="1">
          <mxGeometry y="30" width="200" height="30" as="geometry" />
        </mxCell>
        <mxCell id="Mz_XwUTkdrpt21qilwWO-349" value="&lt;span style=&quot;&quot;&gt;id&lt;/span&gt;" style="shape=partialRectangle;connectable=0;top=0;left=0;bottom=0;right=0;fontStyle=4;overflow=hidden;whiteSpace=wrap;html=1;align=left;strokeWidth=1;spacingRight=0;spacingLeft=8;" parent="Mz_XwUTkdrpt21qilwWO-348" vertex="1">
          <mxGeometry width="120" height="30" as="geometry">
            <mxRectangle width="120" height="30" as="alternateBounds" />
          </mxGeometry>
        </mxCell>
        <mxCell id="Mz_XwUTkdrpt21qilwWO-350" value="reference" style="shape=partialRectangle;connectable=0;top=0;left=0;bottom=0;right=0;align=right;spacingLeft=0;fontStyle=4;overflow=hidden;whiteSpace=wrap;html=1;strokeWidth=1;spacingRight=8;" parent="Mz_XwUTkdrpt21qilwWO-348" vertex="1">
          <mxGeometry x="120" width="80" height="30" as="geometry">
            <mxRectangle width="80" height="30" as="alternateBounds" />
          </mxGeometry>
        </mxCell>
        <mxCell id="Mz_XwUTkdrpt21qilwWO-351" value="" style="shape=tableRow;horizontal=0;startSize=0;swimlaneHead=0;swimlaneBody=0;fillColor=none;collapsible=0;dropTarget=0;points=[[0,0.5],[1,0.5]];portConstraint=eastwest;top=0;left=0;right=0;bottom=0;" parent="Mz_XwUTkdrpt21qilwWO-347" vertex="1">
          <mxGeometry y="60" width="200" height="30" as="geometry" />
        </mxCell>
        <mxCell id="Mz_XwUTkdrpt21qilwWO-352" value="name" style="shape=partialRectangle;connectable=0;top=0;left=0;bottom=0;right=0;editable=1;overflow=hidden;whiteSpace=wrap;html=1;align=left;strokeWidth=1;spacingRight=0;spacingLeft=8;" parent="Mz_XwUTkdrpt21qilwWO-351" vertex="1">
          <mxGeometry width="120" height="30" as="geometry">
            <mxRectangle width="120" height="30" as="alternateBounds" />
          </mxGeometry>
        </mxCell>
        <mxCell id="Mz_XwUTkdrpt21qilwWO-353" value="string" style="shape=partialRectangle;connectable=0;top=0;left=0;bottom=0;right=0;align=right;spacingLeft=0;overflow=hidden;whiteSpace=wrap;html=1;strokeWidth=1;spacingRight=8;" parent="Mz_XwUTkdrpt21qilwWO-351" vertex="1">
          <mxGeometry x="120" width="80" height="30" as="geometry">
            <mxRectangle width="80" height="30" as="alternateBounds" />
          </mxGeometry>
        </mxCell>
        <mxCell id="Mz_XwUTkdrpt21qilwWO-354" value="" style="shape=tableRow;horizontal=0;startSize=0;swimlaneHead=0;swimlaneBody=0;fillColor=none;collapsible=0;dropTarget=0;points=[[0,0.5],[1,0.5]];portConstraint=eastwest;top=0;left=0;right=0;bottom=0;rounded=0;" parent="Mz_XwUTkdrpt21qilwWO-347" vertex="1">
          <mxGeometry y="90" width="200" height="30" as="geometry" />
        </mxCell>
        <mxCell id="Mz_XwUTkdrpt21qilwWO-355" value="created" style="shape=partialRectangle;connectable=0;top=0;left=0;bottom=0;right=0;editable=1;overflow=hidden;whiteSpace=wrap;html=1;align=left;strokeWidth=1;spacingRight=0;spacingLeft=8;" parent="Mz_XwUTkdrpt21qilwWO-354" vertex="1">
          <mxGeometry width="120" height="30" as="geometry">
            <mxRectangle width="120" height="30" as="alternateBounds" />
          </mxGeometry>
        </mxCell>
        <mxCell id="Mz_XwUTkdrpt21qilwWO-356" value="datetime" style="shape=partialRectangle;connectable=0;top=0;left=0;bottom=0;right=0;align=right;spacingLeft=0;overflow=hidden;whiteSpace=wrap;html=1;strokeWidth=1;spacingRight=8;" parent="Mz_XwUTkdrpt21qilwWO-354" vertex="1">
          <mxGeometry x="120" width="80" height="30" as="geometry">
            <mxRectangle width="80" height="30" as="alternateBounds" />
          </mxGeometry>
        </mxCell>
        <mxCell id="Mz_XwUTkdrpt21qilwWO-357" value="" style="shape=tableRow;horizontal=0;startSize=0;swimlaneHead=0;swimlaneBody=0;fillColor=none;collapsible=0;dropTarget=0;points=[[0,0.5],[1,0.5]];portConstraint=eastwest;top=0;left=0;right=0;bottom=0;rounded=0;" parent="Mz_XwUTkdrpt21qilwWO-347" vertex="1">
          <mxGeometry y="120" width="200" height="30" as="geometry" />
        </mxCell>
        <mxCell id="Mz_XwUTkdrpt21qilwWO-358" value="updated" style="shape=partialRectangle;connectable=0;top=0;left=0;bottom=0;right=0;editable=1;overflow=hidden;whiteSpace=wrap;html=1;align=left;strokeWidth=1;spacingRight=0;spacingLeft=8;" parent="Mz_XwUTkdrpt21qilwWO-357" vertex="1">
          <mxGeometry width="120" height="30" as="geometry">
            <mxRectangle width="120" height="30" as="alternateBounds" />
          </mxGeometry>
        </mxCell>
        <mxCell id="Mz_XwUTkdrpt21qilwWO-359" value="datetime" style="shape=partialRectangle;connectable=0;top=0;left=0;bottom=0;right=0;align=right;spacingLeft=0;overflow=hidden;whiteSpace=wrap;html=1;strokeWidth=1;spacingRight=8;" parent="Mz_XwUTkdrpt21qilwWO-357" vertex="1">
          <mxGeometry x="120" width="80" height="30" as="geometry">
            <mxRectangle width="80" height="30" as="alternateBounds" />
          </mxGeometry>
        </mxCell>
        <mxCell id="Mz_XwUTkdrpt21qilwWO-360" value="question_answers" style="shape=table;startSize=30;container=1;collapsible=1;childLayout=tableLayout;fixedRows=1;rowLines=0;fontStyle=1;align=center;resizeLast=1;html=1;strokeWidth=1;columnLines=0;rounded=0;shadow=0;swimlaneLine=1;fillColor=#ffe6cc;strokeColor=#d79b00;" parent="1" vertex="1">
          <mxGeometry x="600" y="1610" width="200" height="210" as="geometry">
            <mxRectangle x="60" y="610" width="70" height="30" as="alternateBounds" />
          </mxGeometry>
        </mxCell>
        <mxCell id="Mz_XwUTkdrpt21qilwWO-361" value="" style="shape=tableRow;horizontal=0;startSize=0;swimlaneHead=0;swimlaneBody=0;fillColor=none;collapsible=0;dropTarget=0;points=[[0,0.5],[1,0.5]];portConstraint=eastwest;top=0;left=0;right=0;bottom=0;swimlaneLine=1;container=1;rounded=0;shadow=0;strokeWidth=1;" parent="Mz_XwUTkdrpt21qilwWO-360" vertex="1">
          <mxGeometry y="30" width="200" height="30" as="geometry" />
        </mxCell>
        <mxCell id="Mz_XwUTkdrpt21qilwWO-362" value="&lt;span style=&quot;&quot;&gt;id&lt;/span&gt;" style="shape=partialRectangle;connectable=0;top=0;left=0;bottom=0;right=0;fontStyle=4;overflow=hidden;whiteSpace=wrap;html=1;align=left;strokeWidth=1;spacingRight=0;spacingLeft=8;" parent="Mz_XwUTkdrpt21qilwWO-361" vertex="1">
          <mxGeometry width="110" height="30" as="geometry">
            <mxRectangle width="110" height="30" as="alternateBounds" />
          </mxGeometry>
        </mxCell>
        <mxCell id="Mz_XwUTkdrpt21qilwWO-363" value="reference" style="shape=partialRectangle;connectable=0;top=0;left=0;bottom=0;right=0;align=right;spacingLeft=0;fontStyle=4;overflow=hidden;whiteSpace=wrap;html=1;strokeWidth=1;spacingRight=8;" parent="Mz_XwUTkdrpt21qilwWO-361" vertex="1">
          <mxGeometry x="110" width="90" height="30" as="geometry">
            <mxRectangle width="90" height="30" as="alternateBounds" />
          </mxGeometry>
        </mxCell>
        <mxCell id="Mz_XwUTkdrpt21qilwWO-364" value="" style="shape=tableRow;horizontal=0;startSize=0;swimlaneHead=0;swimlaneBody=0;fillColor=none;collapsible=0;dropTarget=0;points=[[0,0.5],[1,0.5]];portConstraint=eastwest;top=0;left=0;right=0;bottom=0;" parent="Mz_XwUTkdrpt21qilwWO-360" vertex="1">
          <mxGeometry y="60" width="200" height="30" as="geometry" />
        </mxCell>
        <mxCell id="Mz_XwUTkdrpt21qilwWO-365" value="surveyResponseId" style="shape=partialRectangle;connectable=0;top=0;left=0;bottom=0;right=0;editable=1;overflow=hidden;whiteSpace=wrap;html=1;align=left;strokeWidth=1;spacingRight=0;spacingLeft=8;" parent="Mz_XwUTkdrpt21qilwWO-364" vertex="1">
          <mxGeometry width="110" height="30" as="geometry">
            <mxRectangle width="110" height="30" as="alternateBounds" />
          </mxGeometry>
        </mxCell>
        <mxCell id="Mz_XwUTkdrpt21qilwWO-366" value="reference" style="shape=partialRectangle;connectable=0;top=0;left=0;bottom=0;right=0;align=right;spacingLeft=0;overflow=hidden;whiteSpace=wrap;html=1;strokeWidth=1;spacingRight=8;" parent="Mz_XwUTkdrpt21qilwWO-364" vertex="1">
          <mxGeometry x="110" width="90" height="30" as="geometry">
            <mxRectangle width="90" height="30" as="alternateBounds" />
          </mxGeometry>
        </mxCell>
        <mxCell id="Mz_XwUTkdrpt21qilwWO-373" value="" style="shape=tableRow;horizontal=0;startSize=0;swimlaneHead=0;swimlaneBody=0;fillColor=none;collapsible=0;dropTarget=0;points=[[0,0.5],[1,0.5]];portConstraint=eastwest;top=0;left=0;right=0;bottom=0;" parent="Mz_XwUTkdrpt21qilwWO-360" vertex="1">
          <mxGeometry y="90" width="200" height="30" as="geometry" />
        </mxCell>
        <mxCell id="Mz_XwUTkdrpt21qilwWO-374" value="questionId" style="shape=partialRectangle;connectable=0;top=0;left=0;bottom=0;right=0;editable=1;overflow=hidden;whiteSpace=wrap;html=1;align=left;strokeWidth=1;spacingRight=0;spacingLeft=8;" parent="Mz_XwUTkdrpt21qilwWO-373" vertex="1">
          <mxGeometry width="110" height="30" as="geometry">
            <mxRectangle width="110" height="30" as="alternateBounds" />
          </mxGeometry>
        </mxCell>
        <mxCell id="Mz_XwUTkdrpt21qilwWO-375" value="reference" style="shape=partialRectangle;connectable=0;top=0;left=0;bottom=0;right=0;align=right;spacingLeft=0;overflow=hidden;whiteSpace=wrap;html=1;strokeWidth=1;spacingRight=8;" parent="Mz_XwUTkdrpt21qilwWO-373" vertex="1">
          <mxGeometry x="110" width="90" height="30" as="geometry">
            <mxRectangle width="90" height="30" as="alternateBounds" />
          </mxGeometry>
        </mxCell>
        <mxCell id="Mz_XwUTkdrpt21qilwWO-376" value="" style="shape=tableRow;horizontal=0;startSize=0;swimlaneHead=0;swimlaneBody=0;fillColor=none;collapsible=0;dropTarget=0;points=[[0,0.5],[1,0.5]];portConstraint=eastwest;top=0;left=0;right=0;bottom=0;" parent="Mz_XwUTkdrpt21qilwWO-360" vertex="1">
          <mxGeometry y="120" width="200" height="30" as="geometry" />
        </mxCell>
        <mxCell id="Mz_XwUTkdrpt21qilwWO-377" value="answer" style="shape=partialRectangle;connectable=0;top=0;left=0;bottom=0;right=0;editable=1;overflow=hidden;whiteSpace=wrap;html=1;align=left;strokeWidth=1;spacingRight=0;spacingLeft=8;" parent="Mz_XwUTkdrpt21qilwWO-376" vertex="1">
          <mxGeometry width="110" height="30" as="geometry">
            <mxRectangle width="110" height="30" as="alternateBounds" />
          </mxGeometry>
        </mxCell>
        <mxCell id="Mz_XwUTkdrpt21qilwWO-378" value="json" style="shape=partialRectangle;connectable=0;top=0;left=0;bottom=0;right=0;align=right;spacingLeft=0;overflow=hidden;whiteSpace=wrap;html=1;strokeWidth=1;spacingRight=8;" parent="Mz_XwUTkdrpt21qilwWO-376" vertex="1">
          <mxGeometry x="110" width="90" height="30" as="geometry">
            <mxRectangle width="90" height="30" as="alternateBounds" />
          </mxGeometry>
        </mxCell>
        <mxCell id="Mz_XwUTkdrpt21qilwWO-367" value="" style="shape=tableRow;horizontal=0;startSize=0;swimlaneHead=0;swimlaneBody=0;fillColor=none;collapsible=0;dropTarget=0;points=[[0,0.5],[1,0.5]];portConstraint=eastwest;top=0;left=0;right=0;bottom=0;rounded=0;" parent="Mz_XwUTkdrpt21qilwWO-360" vertex="1">
          <mxGeometry y="150" width="200" height="30" as="geometry" />
        </mxCell>
        <mxCell id="Mz_XwUTkdrpt21qilwWO-368" value="created" style="shape=partialRectangle;connectable=0;top=0;left=0;bottom=0;right=0;editable=1;overflow=hidden;whiteSpace=wrap;html=1;align=left;strokeWidth=1;spacingRight=0;spacingLeft=8;" parent="Mz_XwUTkdrpt21qilwWO-367" vertex="1">
          <mxGeometry width="110" height="30" as="geometry">
            <mxRectangle width="110" height="30" as="alternateBounds" />
          </mxGeometry>
        </mxCell>
        <mxCell id="Mz_XwUTkdrpt21qilwWO-369" value="datetime" style="shape=partialRectangle;connectable=0;top=0;left=0;bottom=0;right=0;align=right;spacingLeft=0;overflow=hidden;whiteSpace=wrap;html=1;strokeWidth=1;spacingRight=8;" parent="Mz_XwUTkdrpt21qilwWO-367" vertex="1">
          <mxGeometry x="110" width="90" height="30" as="geometry">
            <mxRectangle width="90" height="30" as="alternateBounds" />
          </mxGeometry>
        </mxCell>
        <mxCell id="Mz_XwUTkdrpt21qilwWO-370" value="" style="shape=tableRow;horizontal=0;startSize=0;swimlaneHead=0;swimlaneBody=0;fillColor=none;collapsible=0;dropTarget=0;points=[[0,0.5],[1,0.5]];portConstraint=eastwest;top=0;left=0;right=0;bottom=0;rounded=0;" parent="Mz_XwUTkdrpt21qilwWO-360" vertex="1">
          <mxGeometry y="180" width="200" height="30" as="geometry" />
        </mxCell>
        <mxCell id="Mz_XwUTkdrpt21qilwWO-371" value="updated" style="shape=partialRectangle;connectable=0;top=0;left=0;bottom=0;right=0;editable=1;overflow=hidden;whiteSpace=wrap;html=1;align=left;strokeWidth=1;spacingRight=0;spacingLeft=8;" parent="Mz_XwUTkdrpt21qilwWO-370" vertex="1">
          <mxGeometry width="110" height="30" as="geometry">
            <mxRectangle width="110" height="30" as="alternateBounds" />
          </mxGeometry>
        </mxCell>
        <mxCell id="Mz_XwUTkdrpt21qilwWO-372" value="datetime" style="shape=partialRectangle;connectable=0;top=0;left=0;bottom=0;right=0;align=right;spacingLeft=0;overflow=hidden;whiteSpace=wrap;html=1;strokeWidth=1;spacingRight=8;" parent="Mz_XwUTkdrpt21qilwWO-370" vertex="1">
          <mxGeometry x="110" width="90" height="30" as="geometry">
            <mxRectangle width="90" height="30" as="alternateBounds" />
          </mxGeometry>
        </mxCell>
        <mxCell id="Mz_XwUTkdrpt21qilwWO-400" style="edgeStyle=orthogonalEdgeStyle;rounded=0;orthogonalLoop=1;jettySize=auto;html=1;startArrow=ERmany;startFill=0;endArrow=ERone;endFill=0;" parent="1" source="Mz_XwUTkdrpt21qilwWO-144" target="Mz_XwUTkdrpt21qilwWO-119" edge="1">
          <mxGeometry relative="1" as="geometry">
            <Array as="points">
              <mxPoint x="270" y="1535" />
              <mxPoint x="270" y="1420" />
            </Array>
          </mxGeometry>
        </mxCell>
        <mxCell id="Mz_XwUTkdrpt21qilwWO-401" style="edgeStyle=orthogonalEdgeStyle;rounded=0;orthogonalLoop=1;jettySize=auto;html=1;endArrow=ERone;endFill=0;startArrow=ERmany;startFill=0;" parent="1" source="Mz_XwUTkdrpt21qilwWO-230" target="Mz_XwUTkdrpt21qilwWO-119" edge="1">
          <mxGeometry relative="1" as="geometry">
            <Array as="points">
              <mxPoint x="270" y="1315" />
              <mxPoint x="270" y="1410" />
            </Array>
          </mxGeometry>
        </mxCell>
        <mxCell id="Mz_XwUTkdrpt21qilwWO-402" style="edgeStyle=orthogonalEdgeStyle;rounded=0;orthogonalLoop=1;jettySize=auto;html=1;exitX=0;exitY=0.5;exitDx=0;exitDy=0;endArrow=ERone;endFill=0;startArrow=ERmany;startFill=0;" parent="1" source="Mz_XwUTkdrpt21qilwWO-208" target="Mz_XwUTkdrpt21qilwWO-63" edge="1">
          <mxGeometry relative="1" as="geometry" />
        </mxCell>
        <mxCell id="Mz_XwUTkdrpt21qilwWO-403" style="edgeStyle=orthogonalEdgeStyle;rounded=0;orthogonalLoop=1;jettySize=auto;html=1;endArrow=ERone;endFill=0;startArrow=ERmany;startFill=0;" parent="1" source="Mz_XwUTkdrpt21qilwWO-227" target="Mz_XwUTkdrpt21qilwWO-205" edge="1">
          <mxGeometry relative="1" as="geometry">
            <Array as="points">
              <mxPoint x="300" y="1285" />
              <mxPoint x="300" y="1010" />
            </Array>
          </mxGeometry>
        </mxCell>
        <mxCell id="Mz_XwUTkdrpt21qilwWO-404" style="edgeStyle=orthogonalEdgeStyle;rounded=0;orthogonalLoop=1;jettySize=auto;html=1;endArrow=ERone;endFill=0;startArrow=ERmany;startFill=0;" parent="1" source="Mz_XwUTkdrpt21qilwWO-135" target="Mz_XwUTkdrpt21qilwWO-205" edge="1">
          <mxGeometry relative="1" as="geometry">
            <Array as="points">
              <mxPoint x="290" y="1505" />
              <mxPoint x="290" y="1005" />
            </Array>
          </mxGeometry>
        </mxCell>
        <mxCell id="Mz_XwUTkdrpt21qilwWO-405" style="edgeStyle=orthogonalEdgeStyle;rounded=0;orthogonalLoop=1;jettySize=auto;html=1;endArrow=ERone;endFill=0;startArrow=ERmany;startFill=0;" parent="1" source="Mz_XwUTkdrpt21qilwWO-262" target="Mz_XwUTkdrpt21qilwWO-224" edge="1">
          <mxGeometry relative="1" as="geometry">
            <Array as="points">
              <mxPoint x="280" y="785" />
              <mxPoint x="280" y="1255" />
            </Array>
          </mxGeometry>
        </mxCell>
        <mxCell id="Mz_XwUTkdrpt21qilwWO-408" style="edgeStyle=orthogonalEdgeStyle;rounded=0;orthogonalLoop=1;jettySize=auto;html=1;exitX=0;exitY=0.5;exitDx=0;exitDy=0;startArrow=ERmany;startFill=0;endArrow=ERone;endFill=0;" parent="1" source="Mz_XwUTkdrpt21qilwWO-167" target="Mz_XwUTkdrpt21qilwWO-94" edge="1">
          <mxGeometry relative="1" as="geometry">
            <Array as="points">
              <mxPoint x="580" y="845" />
              <mxPoint x="580" y="1060" />
            </Array>
          </mxGeometry>
        </mxCell>
        <mxCell id="Mz_XwUTkdrpt21qilwWO-410" style="edgeStyle=orthogonalEdgeStyle;rounded=0;orthogonalLoop=1;jettySize=auto;html=1;startArrow=ERmany;startFill=0;endArrow=ERone;endFill=0;" parent="1" source="Mz_XwUTkdrpt21qilwWO-186" target="Mz_XwUTkdrpt21qilwWO-94" edge="1">
          <mxGeometry relative="1" as="geometry" />
        </mxCell>
        <mxCell id="Mz_XwUTkdrpt21qilwWO-411" style="edgeStyle=orthogonalEdgeStyle;rounded=0;orthogonalLoop=1;jettySize=auto;html=1;startArrow=ERmany;startFill=0;endArrow=ERone;endFill=0;" parent="1" source="Mz_XwUTkdrpt21qilwWO-176" target="Mz_XwUTkdrpt21qilwWO-151" edge="1">
          <mxGeometry relative="1" as="geometry" />
        </mxCell>
        <mxCell id="Mz_XwUTkdrpt21qilwWO-413" style="edgeStyle=orthogonalEdgeStyle;rounded=0;orthogonalLoop=1;jettySize=auto;html=1;startArrow=ERmany;startFill=0;endArrow=ERone;endFill=0;exitX=0;exitY=0.5;exitDx=0;exitDy=0;entryX=0;entryY=0.5;entryDx=0;entryDy=0;" parent="1" source="Mz_XwUTkdrpt21qilwWO-364" target="Mz_XwUTkdrpt21qilwWO-281" edge="1">
          <mxGeometry relative="1" as="geometry">
            <Array as="points">
              <mxPoint x="580" y="1685" />
              <mxPoint x="580" y="1405" />
            </Array>
          </mxGeometry>
        </mxCell>
        <mxCell id="Mz_XwUTkdrpt21qilwWO-414" style="edgeStyle=orthogonalEdgeStyle;rounded=0;orthogonalLoop=1;jettySize=auto;html=1;startArrow=ERmany;startFill=0;endArrow=ERone;endFill=0;exitX=0;exitY=0.5;exitDx=0;exitDy=0;" parent="1" source="Mz_XwUTkdrpt21qilwWO-284" target="Mz_XwUTkdrpt21qilwWO-205" edge="1">
          <mxGeometry relative="1" as="geometry">
            <Array as="points">
              <mxPoint x="540" y="1435" />
              <mxPoint x="540" y="1010" />
            </Array>
          </mxGeometry>
        </mxCell>
        <mxCell id="Mz_XwUTkdrpt21qilwWO-415" style="edgeStyle=orthogonalEdgeStyle;rounded=0;orthogonalLoop=1;jettySize=auto;html=1;startArrow=ERmany;startFill=0;endArrow=ERone;endFill=0;exitX=1;exitY=0.5;exitDx=0;exitDy=0;" parent="1" source="Mz_XwUTkdrpt21qilwWO-287" target="Mz_XwUTkdrpt21qilwWO-297" edge="1">
          <mxGeometry relative="1" as="geometry">
            <mxPoint x="800" y="1435" as="sourcePoint" />
            <Array as="points">
              <mxPoint x="840" y="1465" />
              <mxPoint x="840" y="1250" />
            </Array>
          </mxGeometry>
        </mxCell>
        <mxCell id="Mz_XwUTkdrpt21qilwWO-416" style="edgeStyle=orthogonalEdgeStyle;rounded=0;orthogonalLoop=1;jettySize=auto;html=1;startArrow=ERmany;startFill=0;endArrow=ERone;endFill=0;entryX=1;entryY=0.5;entryDx=0;entryDy=0;" parent="1" source="Mz_XwUTkdrpt21qilwWO-189" target="Mz_XwUTkdrpt21qilwWO-151" edge="1">
          <mxGeometry relative="1" as="geometry">
            <Array as="points">
              <mxPoint x="1090" y="1025" />
              <mxPoint x="1090" y="745" />
            </Array>
          </mxGeometry>
        </mxCell>
        <mxCell id="Mz_XwUTkdrpt21qilwWO-418" style="edgeStyle=orthogonalEdgeStyle;rounded=0;orthogonalLoop=1;jettySize=auto;html=1;startArrow=ERmany;startFill=0;endArrow=ERone;endFill=0;" parent="1" source="Mz_XwUTkdrpt21qilwWO-316" target="Mz_XwUTkdrpt21qilwWO-297" edge="1">
          <mxGeometry relative="1" as="geometry">
            <Array as="points">
              <mxPoint x="1100" y="1465" />
              <mxPoint x="1100" y="1245" />
            </Array>
          </mxGeometry>
        </mxCell>
        <mxCell id="Mz_XwUTkdrpt21qilwWO-419" style="edgeStyle=orthogonalEdgeStyle;rounded=0;orthogonalLoop=1;jettySize=auto;html=1;startArrow=ERmany;startFill=0;endArrow=ERone;endFill=0;" parent="1" source="Mz_XwUTkdrpt21qilwWO-319" target="Mz_XwUTkdrpt21qilwWO-329" edge="1">
          <mxGeometry relative="1" as="geometry">
            <Array as="points">
              <mxPoint x="1100" y="1495" />
              <mxPoint x="1100" y="1655" />
            </Array>
          </mxGeometry>
        </mxCell>
        <mxCell id="Mz_XwUTkdrpt21qilwWO-420" style="edgeStyle=orthogonalEdgeStyle;rounded=0;orthogonalLoop=1;jettySize=auto;html=1;startArrow=ERmany;startFill=0;endArrow=ERone;endFill=0;" parent="1" source="Mz_XwUTkdrpt21qilwWO-373" target="Mz_XwUTkdrpt21qilwWO-329" edge="1">
          <mxGeometry relative="1" as="geometry" />
        </mxCell>
        <mxCell id="Mz_XwUTkdrpt21qilwWO-421" style="edgeStyle=orthogonalEdgeStyle;rounded=0;orthogonalLoop=1;jettySize=auto;html=1;startArrow=ERmany;startFill=0;endArrow=ERone;endFill=0;" parent="1" source="Mz_XwUTkdrpt21qilwWO-450" target="Mz_XwUTkdrpt21qilwWO-348" edge="1">
          <mxGeometry relative="1" as="geometry">
            <Array as="points">
              <mxPoint x="840" y="1805" />
              <mxPoint x="840" y="1860" />
              <mxPoint x="560" y="1860" />
              <mxPoint x="560" y="1715" />
            </Array>
          </mxGeometry>
        </mxCell>
        <mxCell id="Mz_XwUTkdrpt21qilwWO-422" style="edgeStyle=orthogonalEdgeStyle;rounded=0;orthogonalLoop=1;jettySize=auto;html=1;endArrow=ERone;endFill=0;startArrow=ERmany;startFill=0;" parent="1" source="Mz_XwUTkdrpt21qilwWO-103" target="Mz_XwUTkdrpt21qilwWO-297" edge="1">
          <mxGeometry relative="1" as="geometry">
            <Array as="points">
              <mxPoint x="840" y="1155" />
              <mxPoint x="840" y="1240" />
            </Array>
          </mxGeometry>
        </mxCell>
        <mxCell id="Mz_XwUTkdrpt21qilwWO-423" style="edgeStyle=orthogonalEdgeStyle;rounded=0;orthogonalLoop=1;jettySize=auto;html=1;startArrow=ERmany;startFill=0;endArrow=ERone;endFill=0;" parent="1" source="Mz_XwUTkdrpt21qilwWO-246" target="Mz_XwUTkdrpt21qilwWO-205" edge="1">
          <mxGeometry relative="1" as="geometry">
            <Array as="points">
              <mxPoint x="540" y="815" />
              <mxPoint x="540" y="1000" />
            </Array>
          </mxGeometry>
        </mxCell>
        <mxCell id="Mz_XwUTkdrpt21qilwWO-424" value="session_tips" style="shape=table;startSize=30;container=1;collapsible=1;childLayout=tableLayout;fixedRows=1;rowLines=0;fontStyle=1;align=center;resizeLast=1;html=1;strokeWidth=1;columnLines=0;rounded=0;shadow=0;swimlaneLine=1;fillColor=#fff2cc;strokeColor=#d6b656;" parent="1" vertex="1">
          <mxGeometry x="320" y="520" width="200" height="180" as="geometry">
            <mxRectangle x="60" y="610" width="70" height="30" as="alternateBounds" />
          </mxGeometry>
        </mxCell>
        <mxCell id="Mz_XwUTkdrpt21qilwWO-425" value="" style="shape=tableRow;horizontal=0;startSize=0;swimlaneHead=0;swimlaneBody=0;fillColor=none;collapsible=0;dropTarget=0;points=[[0,0.5],[1,0.5]];portConstraint=eastwest;top=0;left=0;right=0;bottom=0;swimlaneLine=1;container=1;rounded=0;shadow=0;strokeWidth=1;fontStyle=0" parent="Mz_XwUTkdrpt21qilwWO-424" vertex="1">
          <mxGeometry y="30" width="200" height="30" as="geometry" />
        </mxCell>
        <mxCell id="Mz_XwUTkdrpt21qilwWO-426" value="&lt;span style=&quot;&quot;&gt;id&lt;/span&gt;" style="shape=partialRectangle;connectable=0;top=0;left=0;bottom=0;right=0;fontStyle=4;overflow=hidden;whiteSpace=wrap;html=1;align=left;strokeWidth=1;spacingRight=0;spacingLeft=8;" parent="Mz_XwUTkdrpt21qilwWO-425" vertex="1">
          <mxGeometry width="120" height="30" as="geometry">
            <mxRectangle width="120" height="30" as="alternateBounds" />
          </mxGeometry>
        </mxCell>
        <mxCell id="Mz_XwUTkdrpt21qilwWO-427" value="reference" style="shape=partialRectangle;connectable=0;top=0;left=0;bottom=0;right=0;align=right;spacingLeft=0;fontStyle=4;overflow=hidden;whiteSpace=wrap;html=1;strokeWidth=1;spacingRight=8;" parent="Mz_XwUTkdrpt21qilwWO-425" vertex="1">
          <mxGeometry x="120" width="80" height="30" as="geometry">
            <mxRectangle width="80" height="30" as="alternateBounds" />
          </mxGeometry>
        </mxCell>
        <mxCell id="Mz_XwUTkdrpt21qilwWO-428" value="" style="shape=tableRow;horizontal=0;startSize=0;swimlaneHead=0;swimlaneBody=0;fillColor=none;collapsible=0;dropTarget=0;points=[[0,0.5],[1,0.5]];portConstraint=eastwest;top=0;left=0;right=0;bottom=0;" parent="Mz_XwUTkdrpt21qilwWO-424" vertex="1">
          <mxGeometry y="60" width="200" height="30" as="geometry" />
        </mxCell>
        <mxCell id="Mz_XwUTkdrpt21qilwWO-429" value="sessionId" style="shape=partialRectangle;connectable=0;top=0;left=0;bottom=0;right=0;editable=1;overflow=hidden;whiteSpace=wrap;html=1;align=left;strokeWidth=1;spacingRight=0;spacingLeft=8;" parent="Mz_XwUTkdrpt21qilwWO-428" vertex="1">
          <mxGeometry width="120" height="30" as="geometry">
            <mxRectangle width="120" height="30" as="alternateBounds" />
          </mxGeometry>
        </mxCell>
        <mxCell id="Mz_XwUTkdrpt21qilwWO-430" value="reference" style="shape=partialRectangle;connectable=0;top=0;left=0;bottom=0;right=0;align=right;spacingLeft=0;overflow=hidden;whiteSpace=wrap;html=1;strokeWidth=1;spacingRight=8;" parent="Mz_XwUTkdrpt21qilwWO-428" vertex="1">
          <mxGeometry x="120" width="80" height="30" as="geometry">
            <mxRectangle width="80" height="30" as="alternateBounds" />
          </mxGeometry>
        </mxCell>
        <mxCell id="Mz_XwUTkdrpt21qilwWO-431" value="" style="shape=tableRow;horizontal=0;startSize=0;swimlaneHead=0;swimlaneBody=0;fillColor=none;collapsible=0;dropTarget=0;points=[[0,0.5],[1,0.5]];portConstraint=eastwest;top=0;left=0;right=0;bottom=0;" parent="Mz_XwUTkdrpt21qilwWO-424" vertex="1">
          <mxGeometry y="90" width="200" height="30" as="geometry" />
        </mxCell>
        <mxCell id="Mz_XwUTkdrpt21qilwWO-432" value="text" style="shape=partialRectangle;connectable=0;top=0;left=0;bottom=0;right=0;editable=1;overflow=hidden;whiteSpace=wrap;html=1;align=left;strokeWidth=1;spacingRight=0;spacingLeft=8;" parent="Mz_XwUTkdrpt21qilwWO-431" vertex="1">
          <mxGeometry width="120" height="30" as="geometry">
            <mxRectangle width="120" height="30" as="alternateBounds" />
          </mxGeometry>
        </mxCell>
        <mxCell id="Mz_XwUTkdrpt21qilwWO-433" value="string" style="shape=partialRectangle;connectable=0;top=0;left=0;bottom=0;right=0;align=right;spacingLeft=0;overflow=hidden;whiteSpace=wrap;html=1;strokeWidth=1;spacingRight=8;" parent="Mz_XwUTkdrpt21qilwWO-431" vertex="1">
          <mxGeometry x="120" width="80" height="30" as="geometry">
            <mxRectangle width="80" height="30" as="alternateBounds" />
          </mxGeometry>
        </mxCell>
        <mxCell id="Mz_XwUTkdrpt21qilwWO-434" value="" style="shape=tableRow;horizontal=0;startSize=0;swimlaneHead=0;swimlaneBody=0;fillColor=none;collapsible=0;dropTarget=0;points=[[0,0.5],[1,0.5]];portConstraint=eastwest;top=0;left=0;right=0;bottom=0;" parent="Mz_XwUTkdrpt21qilwWO-424" vertex="1">
          <mxGeometry y="120" width="200" height="30" as="geometry" />
        </mxCell>
        <mxCell id="Mz_XwUTkdrpt21qilwWO-435" value="created" style="shape=partialRectangle;connectable=0;top=0;left=0;bottom=0;right=0;editable=1;overflow=hidden;whiteSpace=wrap;html=1;align=left;strokeWidth=1;spacingRight=0;spacingLeft=8;" parent="Mz_XwUTkdrpt21qilwWO-434" vertex="1">
          <mxGeometry width="120" height="30" as="geometry">
            <mxRectangle width="120" height="30" as="alternateBounds" />
          </mxGeometry>
        </mxCell>
        <mxCell id="Mz_XwUTkdrpt21qilwWO-436" value="datetime" style="shape=partialRectangle;connectable=0;top=0;left=0;bottom=0;right=0;align=right;spacingLeft=0;overflow=hidden;whiteSpace=wrap;html=1;strokeWidth=1;spacingRight=8;" parent="Mz_XwUTkdrpt21qilwWO-434" vertex="1">
          <mxGeometry x="120" width="80" height="30" as="geometry">
            <mxRectangle width="80" height="30" as="alternateBounds" />
          </mxGeometry>
        </mxCell>
        <mxCell id="Mz_XwUTkdrpt21qilwWO-437" value="" style="shape=tableRow;horizontal=0;startSize=0;swimlaneHead=0;swimlaneBody=0;fillColor=none;collapsible=0;dropTarget=0;points=[[0,0.5],[1,0.5]];portConstraint=eastwest;top=0;left=0;right=0;bottom=0;rounded=0;" parent="Mz_XwUTkdrpt21qilwWO-424" vertex="1">
          <mxGeometry y="150" width="200" height="30" as="geometry" />
        </mxCell>
        <mxCell id="Mz_XwUTkdrpt21qilwWO-438" value="updated" style="shape=partialRectangle;connectable=0;top=0;left=0;bottom=0;right=0;editable=1;overflow=hidden;whiteSpace=wrap;html=1;align=left;strokeWidth=1;spacingRight=0;spacingLeft=8;" parent="Mz_XwUTkdrpt21qilwWO-437" vertex="1">
          <mxGeometry width="120" height="30" as="geometry">
            <mxRectangle width="120" height="30" as="alternateBounds" />
          </mxGeometry>
        </mxCell>
        <mxCell id="Mz_XwUTkdrpt21qilwWO-439" value="datetime" style="shape=partialRectangle;connectable=0;top=0;left=0;bottom=0;right=0;align=right;spacingLeft=0;overflow=hidden;whiteSpace=wrap;html=1;strokeWidth=1;spacingRight=8;" parent="Mz_XwUTkdrpt21qilwWO-437" vertex="1">
          <mxGeometry x="120" width="80" height="30" as="geometry">
            <mxRectangle width="80" height="30" as="alternateBounds" />
          </mxGeometry>
        </mxCell>
        <mxCell id="Mz_XwUTkdrpt21qilwWO-440" style="edgeStyle=orthogonalEdgeStyle;rounded=0;orthogonalLoop=1;jettySize=auto;html=1;exitX=1;exitY=0.5;exitDx=0;exitDy=0;endArrow=ERone;endFill=0;startArrow=ERmany;startFill=0;" parent="1" source="Mz_XwUTkdrpt21qilwWO-428" target="Mz_XwUTkdrpt21qilwWO-94" edge="1">
          <mxGeometry relative="1" as="geometry">
            <Array as="points">
              <mxPoint x="560" y="595" />
              <mxPoint x="560" y="1070" />
            </Array>
          </mxGeometry>
        </mxCell>
      </root>
    </mxGraphModel>
  </diagram>
</mxfile>
